<?xml version="1.0" encoding="UTF-8"?>
<svg xmlns="http://www.w3.org/2000/svg" xmlns:xlink="http://www.w3.org/1999/xlink" width="452px" height="300px" viewBox="0 0 450 300" version="1.1">
<g id="surface1">
<path style=" stroke:none;fill-rule:nonzero;fill:rgb(13.725491%,12.156863%,12.54902%);fill-opacity:1;" d="M 424.734375 68.308594 C 414.757812 56.246094 401.671875 44.925781 385.570312 35.105469 C 367.742188 24.265625 345.789062 15.035156 319.777344 8.753906 C 290.179688 1.609375 258.179688 -1.042969 225.429688 1.066406 C 188.351562 3.492188 151.179688 11.972656 117.183594 26.488281 C 79.738281 42.5 47.988281 65.042969 26.695312 92.667969 C 4.535156 121.402344 -4.695312 153.515625 2.289062 185.695312 C 9.050781 216.585938 29.664062 242.304688 58.941406 261.511719 C 85.457031 278.910156 117.933594 290.203125 152.425781 295.714844 C 182.953125 300.566406 214.566406 300.839844 245.183594 296.984375 C 272.285156 293.582031 298.617188 286.980469 323.15625 277.480469 C 345.175781 268.953125 364.160156 258.722656 380.082031 247.632812 C 394.84375 237.359375 407.363281 226.066406 417.457031 214.386719 C 436.300781 192.523438 448.003906 167.441406 449.75 141.835938 C 451.542969 115.390625 442.582031 89.898438 424.710938 68.265625 Z M 445.011719 142.789062 C 443.445312 166.738281 432.898438 190.210938 415.914062 210.667969 C 406.820312 221.621094 395.546875 232.167969 382.234375 241.78125 C 367.902344 252.148438 350.777344 261.742188 330.933594 269.699219 C 308.820312 278.589844 285.101562 284.757812 260.675781 287.957031 C 233.097656 291.539062 204.613281 291.3125 177.101562 286.753906 C 146.03125 281.605469 116.773438 271.015625 92.894531 254.753906 C 66.539062 236.769531 47.945312 212.707031 41.867188 183.816406 C 35.5625 153.695312 43.863281 123.667969 63.820312 96.75 C 83.003906 70.917969 111.625 49.804688 145.351562 34.835938 C 175.96875 21.25 209.464844 13.3125 242.847656 11.042969 C 272.355469 9.070312 301.179688 11.542969 327.851562 18.234375 C 351.277344 24.109375 371.054688 32.75 387.132812 42.910156 C 401.625 52.09375 413.417969 62.683594 422.398438 73.980469 C 438.5 94.230469 446.554688 118.066406 444.964844 142.832031 Z M 445.011719 142.789062 "/>
<path style=" stroke:none;fill-rule:nonzero;fill:rgb(13.725491%,12.156863%,12.54902%);fill-opacity:1;" d="M 380.214844 199.328125 L 380.214844 216.746094 L 361.414062 216.746094 L 361.414062 231.941406 L 284.78125 232.074219 L 284.78125 218.152344 L 298.707031 218.152344 L 298.707031 210.78125 C 298.707031 210.78125 310.886719 202.84375 316.875 199.304688 C 338.238281 199.304688 358.851562 199.328125 380.214844 199.328125 Z M 380.214844 199.328125 "/>
<path style=" stroke:none;fill-rule:nonzero;fill:rgb(13.725491%,12.156863%,12.54902%);fill-opacity:1;" d="M 380.214844 162.40625 L 380.214844 172.15625 C 380.214844 172.15625 316.828125 171.90625 316.828125 171.90625 L 298.707031 186.105469 L 284.78125 177.578125 L 284.78125 209.804688 L 270.855469 209.804688 L 270.855469 185.449219 C 270.855469 185.449219 309.707031 149.34375 316.828125 142.925781 C 337.714844 142.925781 380.238281 142.925781 380.238281 142.925781 L 380.238281 153.378906 L 316.851562 153.425781 L 298.707031 169.414062 L 298.707031 177.304688 L 316.828125 162.429688 L 380.214844 162.429688 Z M 380.214844 162.40625 "/>
<path style=" stroke:none;fill-rule:nonzero;fill:rgb(13.725491%,12.156863%,12.54902%);fill-opacity:1;" d="M 380.261719 180.527344 L 380.261719 190.980469 L 347.488281 190.980469 C 336.945312 190.980469 316.851562 190.980469 316.851562 190.980469 L 298.730469 203.296875 L 298.730469 194.203125 L 316.851562 180.550781 L 380.261719 180.550781 Z M 380.261719 180.527344 "/>
<path style=" stroke:none;fill-rule:nonzero;fill:rgb(13.725491%,12.156863%,12.54902%);fill-opacity:1;" d="M 267.386719 173.5625 L 267.386719 205.609375 L 259.722656 215.363281 L 259.722656 232.074219 L 248.585938 232.074219 L 248.585938 141.519531 L 267.386719 141.519531 Z M 267.386719 173.5625 "/>
<path style=" stroke:none;fill-rule:nonzero;fill:rgb(13.725491%,12.156863%,12.54902%);fill-opacity:1;" d="M 243.007812 149.183594 L 243.007812 243.234375 L 144.785156 243.234375 L 144.785156 229.308594 L 234.636719 229.308594 L 234.636719 188.214844 C 234.636719 188.214844 191.117188 188.214844 191.117188 188.214844 L 191.117188 149.207031 C 191.117188 149.207031 225.589844 149.207031 243.007812 149.207031 Z M 243.007812 149.183594 "/>
<path style=" stroke:none;fill-rule:nonzero;fill:rgb(13.725491%,12.156863%,12.54902%);fill-opacity:1;" d="M 187.964844 188.191406 L 167.78125 188.191406 L 167.757812 170.773438 L 187.964844 149.183594 Z M 187.964844 188.191406 "/>
<path style=" stroke:none;fill-rule:nonzero;fill:rgb(13.725491%,12.156863%,12.54902%);fill-opacity:1;" d="M 100.195312 87.179688 L 121.085938 87.179688 L 121.085938 209.078125 L 100.195312 209.078125 Z M 100.195312 87.179688 "/>
<path style=" stroke:none;fill-rule:nonzero;fill:rgb(13.725491%,12.156863%,12.54902%);fill-opacity:1;" d="M 124.578125 86.953125 L 164.289062 86.953125 L 164.289062 188.167969 L 124.578125 188.167969 Z M 124.578125 86.953125 "/>
<path style=" stroke:none;fill-rule:nonzero;fill:rgb(13.725491%,12.156863%,12.54902%);fill-opacity:1;" d="M 127.480469 193.75 L 218.605469 193.75 L 218.605469 209.078125 L 127.480469 209.078125 Z M 127.480469 193.75 "/>
<path style=" stroke:none;fill-rule:nonzero;fill:rgb(13.725491%,12.156863%,12.54902%);fill-opacity:1;" d="M 197.535156 93.300781 L 196.378906 93.257812 L 196.558594 93.074219 C 203.636719 92.667969 208.535156 89.671875 208.648438 81.214844 L 208.648438 72.84375 C 208.558594 62.253906 203.75 59.511719 194.609375 59.417969 L 170.367188 59.417969 L 170.367188 133.964844 L 193.566406 133.964844 C 204.476562 133.875 209.714844 129.769531 209.804688 117.886719 L 209.804688 107.296875 C 209.757812 98.40625 205.019531 93.6875 197.558594 93.324219 Z M 193.339844 117.023438 C 193.339844 118.75 192.910156 120.085938 192.046875 121.015625 C 191.183594 121.921875 189.9375 122.332031 188.507812 122.332031 L 186.242188 122.332031 L 186.242188 99.199219 L 188.507812 99.199219 C 189.9375 99.199219 191.183594 99.605469 192.046875 100.515625 C 192.910156 101.421875 193.339844 102.78125 193.339844 104.503906 Z M 193.339844 83.664062 C 193.339844 86.613281 191.503906 88.855469 188.691406 88.855469 L 186.242188 88.855469 L 186.242188 70.394531 L 188.691406 70.394531 C 191.480469 70.394531 193.339844 72.640625 193.339844 75.613281 Z M 193.339844 83.664062 "/>
<path style=" stroke:none;fill-rule:nonzero;fill:rgb(13.725491%,12.156863%,12.54902%);fill-opacity:1;" d="M 240.445312 90.421875 C 234.730469 86.316406 228.652344 83.59375 228.582031 77.609375 L 228.582031 74.320312 C 228.582031 72.371094 228.878906 71.007812 229.511719 70.101562 C 230.125 69.171875 231.101562 68.785156 232.074219 68.808594 C 232.914062 68.808594 233.980469 68.988281 234.773438 69.917969 C 235.570312 70.828125 236.066406 72.324219 236.066406 74.773438 L 236.066406 82.777344 L 250.71875 82.777344 L 250.71875 73.933594 C 250.628906 65.90625 248.085938 57.945312 231.917969 57.855469 C 220.417969 57.945312 213.367188 62.527344 213.296875 76.066406 L 213.296875 80.308594 C 213.296875 90.898438 218.761719 95.617188 224.410156 99.605469 C 230.011719 103.554688 235.976562 106.683594 235.976562 114.007812 L 235.976562 117.183594 C 235.976562 118.679688 235.976562 120.425781 235.5 121.902344 C 235.09375 123.351562 234.027344 124.644531 232.1875 124.621094 C 230.761719 124.644531 229.761719 123.828125 229.285156 122.785156 C 228.789062 121.742188 228.695312 120.472656 228.695312 119.222656 L 228.332031 106.320312 L 213.027344 106.320312 L 213.386719 116.457031 C 213.5 127.230469 215.496094 135.507812 231.917969 135.621094 C 244.027344 135.507812 251.785156 131.878906 251.875 116.773438 L 251.875 110.832031 C 251.875 99.925781 246.25 94.617188 240.46875 90.488281 Z M 240.445312 90.421875 "/>
<path style=" stroke:none;fill-rule:nonzero;fill:rgb(13.725491%,12.156863%,12.54902%);fill-opacity:1;" d="M 278.886719 106.230469 L 279.25 117.207031 C 279.25 118.863281 279.25 120.425781 278.816406 121.695312 C 278.410156 122.988281 277.296875 123.941406 275.550781 123.894531 C 274.328125 123.894531 273.421875 123.101562 272.964844 122.082031 C 272.488281 121.039062 272.332031 119.746094 272.332031 118.363281 L 272.332031 74.933594 C 272.332031 73.570312 272.488281 72.253906 272.964844 71.210938 C 273.421875 70.191406 274.304688 69.375 275.550781 69.398438 C 277.277344 69.375 278.386719 70.238281 278.816406 71.371094 C 279.269531 72.503906 279.25 73.84375 279.25 75.113281 L 279.25 82.6875 L 295.714844 82.6875 L 295.714844 78.515625 C 295.644531 65.339844 289.226562 57.832031 276.617188 57.765625 C 259.972656 57.808594 255.980469 68.742188 255.910156 80.625 L 255.910156 112.625 C 256.003906 124.554688 258.929688 135.417969 276.253906 135.484375 C 288.480469 135.441406 295.691406 127.457031 295.734375 114.324219 L 295.375 106.183594 L 278.910156 106.183594 Z M 278.886719 106.230469 "/>
<path style=" stroke:none;fill-rule:nonzero;fill:rgb(13.725491%,12.156863%,12.54902%);fill-opacity:1;" d="M 343.40625 59.398438 L 359.871094 59.398438 L 359.871094 133.941406 L 343.40625 133.941406 Z M 343.40625 59.398438 "/>
<path style=" stroke:none;fill-rule:nonzero;fill:rgb(13.725491%,12.156863%,12.54902%);fill-opacity:1;" d="M 330.277344 59.398438 L 305.964844 59.398438 L 297.503906 133.941406 L 311.613281 133.941406 L 313.335938 116.140625 L 322.609375 116.140625 L 324.039062 133.941406 L 339.4375 133.941406 L 330.230469 59.398438 Z M 314.3125 106.230469 L 318.257812 70.714844 L 321.546875 105.664062 L 321.589844 106.25 L 314.3125 106.25 Z M 314.3125 106.230469 "/>
</g>
</svg>
