<?xml version="1.0" encoding="UTF-8"?>
<svg xmlns="http://www.w3.org/2000/svg" xmlns:xlink="http://www.w3.org/1999/xlink" width="200px" height="206px" viewBox="0 0 200 206" version="1.1">
<g id="surface1">
<path style=" stroke:none;fill-rule:nonzero;fill:rgb(0%,22.352941%,46.27451%);fill-opacity:1;" d="M 72.289062 13.960938 C 70.503906 16.421875 68.964844 19.058594 67.691406 21.824219 C 70.539062 22.476562 74.699219 21.167969 76.011719 23.789062 C 71.414062 27.722656 65.285156 22.914062 60.90625 26.191406 C 60.464844 26.191406 59.8125 26.410156 59.589844 25.972656 C 62.875 21.605469 65.285156 14.613281 71.414062 12.867188 Z M 72.289062 13.960938 "/>
<path style=" stroke:none;fill-rule:nonzero;fill:rgb(0%,22.352941%,46.27451%);fill-opacity:1;" d="M 142.355469 26.847656 C 140.820312 28.378906 139.070312 26.191406 137.320312 26.191406 C 133.769531 27.03125 130.058594 26.878906 126.589844 25.753906 C 125.980469 25.09375 125.890625 24.109375 126.371094 23.351562 C 129.414062 22.804688 132.527344 22.804688 135.570312 23.351562 C 133.59375 20.949219 133.160156 16.796875 131.1875 13.960938 C 131.847656 11.554688 133.59375 13.960938 134.691406 13.960938 C 139.726562 17.015625 137.757812 23.570312 142.355469 26.847656 Z M 142.355469 26.847656 "/>
<path style=" stroke:none;fill-rule:nonzero;fill:rgb(0%,22.352941%,46.27451%);fill-opacity:1;" d="M 88.054688 15.269531 C 87.398438 17.453125 84.769531 17.671875 83.238281 18.984375 C 81.179688 19.527344 79.046875 19.722656 76.925781 19.566406 C 75.257812 20.535156 73.386719 19.417969 72.070312 20.292969 C 72.730469 16.796875 76.667969 17.238281 78.859375 15.050781 C 81.488281 14.175781 85.867188 12.867188 88.054688 15.269531 Z M 88.054688 15.269531 "/>
<path style=" stroke:none;fill-rule:nonzero;fill:rgb(0%,22.352941%,46.27451%);fill-opacity:1;" d="M 131.1875 20.511719 C 125.679688 20.996094 120.171875 19.523438 115.640625 16.359375 C 115.203125 15.265625 116.078125 14.394531 116.957031 13.957031 C 122.648438 13.738281 127.246094 17.234375 131.1875 20.511719 Z M 131.1875 20.511719 "/>
<path style=" stroke:none;fill-rule:nonzero;fill:rgb(0%,22.352941%,46.27451%);fill-opacity:1;" d="M 60.464844 17.890625 C 58.714844 20.511719 58.714844 24.445312 56.304688 27.066406 C 56.304688 29.90625 58.714844 26.847656 60.464844 27.503906 C 62.4375 27.9375 65.285156 26.628906 66.378906 28.59375 C 62.21875 34.277344 53.460938 29.03125 48.644531 33.621094 C 47.332031 31.65625 50.617188 31.4375 51.054688 29.6875 C 51.664062 24.328125 54.847656 19.601562 59.59375 17.015625 Z M 60.464844 17.890625 "/>
<path style=" stroke:none;fill-rule:nonzero;fill:rgb(0%,22.352941%,46.27451%);fill-opacity:1;" d="M 153.082031 35.148438 C 148.703125 31.65625 139.945312 35.804688 137.757812 29.6875 C 140.640625 28.84375 143.726562 28.996094 146.515625 30.125 C 145.640625 26.410156 142.574219 22.476562 143.667969 18.105469 C 151.328125 20.511719 148.921875 29.90625 153.082031 35.148438 Z M 153.082031 35.148438 "/>
<path style=" stroke:none;fill-rule:nonzero;fill:rgb(0%,22.352941%,46.27451%);fill-opacity:1;" d="M 44.921875 34.277344 C 44.332031 35.28125 43.960938 36.394531 43.828125 37.550781 C 47.929688 36.425781 52.097656 35.550781 56.308594 34.929688 C 57.183594 35.585938 56.527344 36.898438 55.871094 37.550781 C 50.832031 42.796875 41.855469 39.957031 37.039062 45.417969 C 34.632812 43.453125 38.792969 42.796875 39.230469 40.609375 C 39.449219 35.148438 40.761719 28.378906 46.238281 25.535156 C 47.769531 27.9375 45.796875 31.65625 44.921875 34.277344 Z M 44.921875 34.277344 "/>
<path style=" stroke:none;fill-rule:nonzero;fill:rgb(0%,22.352941%,46.27451%);fill-opacity:1;" d="M 160.964844 33.402344 C 163.375 37.992188 160.308594 45.636719 165.78125 48.257812 C 165.78125 48.695312 165.78125 49.351562 165.34375 49.570312 C 162.9375 48.257812 161.621094 44.980469 158.335938 45.417969 C 156.804688 43.449219 154.394531 44.761719 152.644531 42.796875 C 150.238281 43.449219 147.609375 40.828125 145.199219 39.078125 C 144.761719 38.425781 143.886719 37.332031 144.980469 36.675781 C 148.921875 37.550781 153.957031 38.207031 157.023438 41.265625 C 157.554688 41.332031 158.070312 41.074219 158.335938 40.609375 C 158.554688 35.585938 155.492188 32.308594 156.148438 27.285156 C 158.777344 27.722656 160.085938 30.78125 160.964844 33.402344 Z M 160.964844 33.402344 "/>
<path style=" stroke:none;fill-rule:nonzero;fill:rgb(0%,22.352941%,46.27451%);fill-opacity:1;" d="M 35.945312 34.277344 C 34.632812 39.519531 34.632812 45.199219 32.882812 50.003906 L 33.101562 50.441406 C 36.382812 47.386719 41.199219 46.511719 45.359375 45.199219 C 47.113281 45.855469 46.019531 47.386719 45.359375 48.476562 C 41.457031 50.84375 37.152344 52.472656 32.660156 53.28125 C 29.8125 53.941406 29.597656 57.214844 27.625 57.652344 C 30.910156 49.570312 26.75 39.300781 34.195312 32.964844 C 35.070312 32.964844 35.945312 33.402344 35.945312 34.277344 Z M 35.945312 34.277344 "/>
<path style=" stroke:none;fill-rule:nonzero;fill:rgb(0%,22.352941%,46.27451%);fill-opacity:1;" d="M 173.445312 50.878906 C 171.964844 54.503906 172.460938 58.632812 174.761719 61.800781 L 174.101562 62.894531 C 172.132812 60.492188 169.941406 56.996094 166.21875 57.214844 C 161.621094 54.15625 156.585938 53.0625 155.054688 48.039062 C 156.585938 46.292969 157.460938 49.351562 159.214844 49.132812 C 163.59375 48.476562 165.347656 53.0625 168.628906 53.9375 L 169.289062 53.503906 C 167.761719 47.882812 167.171875 42.050781 167.535156 36.242188 C 172.566406 39.519531 173.660156 45.417969 173.445312 50.878906 Z M 173.445312 50.878906 "/>
<path style=" stroke:none;fill-rule:nonzero;fill:rgb(0%,22.352941%,46.27451%);fill-opacity:1;" d="M 23.902344 54.375 C 26.09375 57.433594 24.121094 61.582031 24.339844 65.296875 C 27.40625 64.207031 29.15625 60.273438 32.660156 58.964844 C 34.410156 58.308594 36.601562 56.777344 38.570312 57.652344 C 37.695312 63.113281 32.003906 65.082031 27.84375 67.703125 C 24.777344 67.265625 23.246094 70.542969 22.371094 72.726562 C 21.933594 73.382812 22.589844 75.128906 21.054688 74.910156 C 23.464844 65.519531 15.800781 55.25 22.589844 47.164062 C 25.4375 48.257812 22.589844 51.972656 23.902344 54.375 Z M 23.902344 54.375 "/>
<path style=" stroke:none;fill-rule:nonzero;fill:rgb(0%,22.352941%,46.27451%);fill-opacity:1;" d="M 181.984375 64.863281 C 179.898438 69.519531 179.214844 74.679688 180.011719 79.71875 C 178.042969 79.0625 178.699219 76.441406 177.605469 74.910156 C 173.222656 69.449219 165.128906 68.355469 162.277344 61.800781 L 162.277344 59.835938 C 169.128906 60.640625 174.960938 65.191406 177.386719 71.636719 C 178.261719 69.230469 176.074219 66.171875 176.730469 62.894531 C 177.605469 58.523438 177.386719 53.503906 178.042969 49.351562 C 183.078125 52.410156 183.078125 59.617188 181.984375 64.863281 Z M 181.984375 64.863281 "/>
<path style=" stroke:none;fill-rule:nonzero;fill:rgb(0%,22.352941%,46.27451%);fill-opacity:1;" d="M 14.488281 63.113281 C 15.363281 69.449219 20.179688 74.039062 19.523438 80.808594 L 19.960938 81.246094 C 22.371094 76.875 27.84375 72.941406 32.003906 69.667969 C 33.976562 70.542969 32.660156 72.945312 32.222656 74.257812 C 27.84375 80.808594 16.898438 82.121094 18.867188 92.824219 L 18.429688 93.261719 C 17.335938 91.078125 18.210938 87.363281 17.554688 84.742188 C 13.613281 78.1875 10.988281 70.761719 13.613281 63.113281 Z M 14.488281 63.113281 "/>
<path style=" stroke:none;fill-rule:nonzero;fill:rgb(0%,22.352941%,46.27451%);fill-opacity:1;" d="M 187.894531 67.703125 C 194.902344 79.28125 180.886719 85.398438 181.546875 96.539062 C 180.234375 94.792969 181.105469 92.609375 179.796875 90.421875 C 177.386719 88.675781 176.726562 85.398438 173.445312 84.523438 C 171.691406 80.371094 165.34375 77.316406 167.535156 72.726562 C 172.785156 77.535156 179.355469 80.15625 180.671875 87.363281 C 180.957031 83.320312 182.074219 79.378906 183.953125 75.785156 C 185.027344 73.085938 185.90625 70.308594 186.582031 67.480469 Z M 187.894531 67.703125 "/>
<path style=" stroke:none;fill-rule:nonzero;fill:rgb(0%,22.352941%,46.27451%);fill-opacity:1;" d="M 11.203125 85.835938 C 14.039062 89.929688 16.253906 94.417969 17.773438 99.160156 C 20.097656 93.421875 23.867188 88.382812 28.71875 84.523438 C 30.472656 84.523438 29.597656 87.363281 29.375 88.675781 C 27.625 97.199219 15.800781 98.945312 18.648438 109.871094 C 16.898438 108.773438 18.648438 105.71875 17.332031 104.1875 C 11.203125 98.289062 7.042969 91.738281 7.699219 82.339844 C 10.328125 79.28125 9.671875 84.742188 11.203125 85.835938 Z M 11.203125 85.835938 "/>
<path style=" stroke:none;fill-rule:nonzero;fill:rgb(0%,22.352941%,46.27451%);fill-opacity:1;" d="M 193.585938 92.390625 C 192.933594 101.785156 180.449219 104.1875 180.011719 113.582031 C 178.699219 112.269531 180.011719 108.992188 178.921875 107.246094 C 175.414062 100.691406 168.628906 94.792969 170.160156 86.710938 C 172.347656 86.710938 171.472656 89.332031 173.222656 89.769531 C 178.699219 93.261719 179.574219 99.597656 180.449219 105.496094 C 183.367188 98.328125 186.960938 91.453125 191.179688 84.960938 C 193.585938 86.273438 193.148438 89.769531 193.585938 92.390625 Z M 193.585938 92.390625 "/>
<path style=" stroke:none;fill-rule:nonzero;fill:rgb(0%,22.352941%,46.27451%);fill-opacity:1;" d="M 26.96875 108.773438 C 24.339844 114.234375 19.960938 120.351562 23.683594 126.6875 C 23.464844 127.125 23.464844 127.5625 22.589844 127.34375 C 22.019531 123.582031 19.972656 120.199219 16.898438 117.949219 C 9.890625 115.546875 8.796875 108.117188 6.605469 102 C 6.824219 101.785156 6.824219 101.128906 7.261719 100.910156 C 12.539062 105.703125 16.914062 111.398438 20.179688 117.730469 C 19.742188 111.613281 23.464844 105.714844 26.3125 100.472656 C 29.375 101.785156 27.183594 106.152344 26.96875 108.773438 Z M 26.96875 108.773438 "/>
<path style=" stroke:none;fill-rule:nonzero;fill:rgb(0%,22.352941%,46.27451%);fill-opacity:1;" d="M 176.730469 111.398438 C 177.40625 114.925781 177.773438 118.507812 177.824219 122.101562 C 180.234375 114.890625 188.332031 111.398438 192.277344 104.84375 C 194.902344 105.5 192.933594 108.554688 193.152344 110.300781 C 190.828125 115.75 186.523438 120.121094 181.105469 122.539062 C 179.136719 124.503906 175.632812 126.035156 175.851562 129.308594 L 174.761719 130.402344 C 173.445312 128.433594 176.074219 126.035156 175.414062 123.847656 C 173.660156 116.859375 168.628906 110.742188 171.035156 102.4375 C 173.621094 104.929688 175.574219 108 176.730469 111.398438 Z M 176.730469 111.398438 "/>
<path style=" stroke:none;fill-rule:nonzero;fill:rgb(0%,22.352941%,46.27451%);fill-opacity:1;" d="M 30.253906 113.582031 C 34.632812 123.195312 25.875 132.367188 31.347656 141.328125 L 31.347656 142.417969 C 29.378906 143.074219 29.378906 140.234375 28.71875 139.140625 C 22.808594 134.554688 13.175781 134.117188 11.640625 125.378906 C 11.425781 124.066406 8.578125 123.191406 9.890625 121.445312 C 14.925781 126.035156 21.496094 127.125 25.65625 133.242188 C 26.53125 130.839844 25.21875 127.34375 26.09375 124.285156 L 29.378906 113.578125 Z M 30.253906 113.582031 "/>
<path style=" stroke:none;fill-rule:nonzero;fill:rgb(0%,22.352941%,46.27451%);fill-opacity:1;" d="M 168.628906 117.292969 C 171.65625 123.222656 172.582031 130 171.253906 136.519531 C 174.976562 133.898438 177.824219 129.964844 182.640625 129.3125 C 184.609375 128.4375 186.800781 125.378906 188.550781 126.910156 C 186.582031 135.210938 178.257812 138.921875 170.816406 140.015625 L 166.875 143.945312 C 169.941406 135.425781 164.03125 126.6875 167.3125 117.292969 Z M 168.628906 117.292969 "/>
<path style=" stroke:none;fill-rule:nonzero;fill:rgb(0%,22.352941%,46.27451%);fill-opacity:1;" d="M 38.789062 135.644531 C 40.980469 141.980469 33.976562 150.285156 41.855469 154.433594 L 41.855469 155.308594 C 39.230469 154.871094 38.132812 151.816406 35.722656 150.722656 L 23.464844 147.878906 C 20.617188 145.476562 16.679688 143.074219 15.582031 140.234375 L 16.019531 139.796875 C 22.84375 140.976562 29.296875 143.746094 34.851562 147.878906 C 35.722656 145.257812 33.316406 142.636719 33.972656 139.578125 C 33.570312 136.082031 34.097656 132.539062 35.503906 129.308594 C 38.132812 129.746094 37.917969 133.242188 38.789062 135.644531 Z M 38.789062 135.644531 "/>
<path style=" stroke:none;fill-rule:nonzero;fill:rgb(0%,22.352941%,46.27451%);fill-opacity:1;" d="M 162.933594 145.257812 L 161.648438 150.074219 C 161.648438 152.042969 162.714844 150.285156 163.59375 150.285156 C 167.96875 144.386719 176.074219 146.570312 181.765625 143.511719 C 182.183594 145.710938 180.992188 147.902344 178.917969 148.757812 C 176.726562 150.941406 173.945312 149.234375 171.757812 150.984375 C 170.660156 150.546875 169.285156 151.597656 167.53125 152.03125 C 162.058594 151.160156 158.777344 154.875 155.054688 157.277344 C 154.394531 155.089844 157.460938 154.21875 157.898438 152.03125 C 159.652344 145.042969 156.148438 136.523438 161.621094 130.84375 C 163.355469 135.441406 163.808594 140.421875 162.933594 145.257812 Z M 162.933594 145.257812 "/>
<path style=" stroke:none;fill-rule:nonzero;fill:rgb(0%,22.352941%,46.27451%);fill-opacity:1;" d="M 47.984375 145.257812 C 50.394531 150.9375 43.828125 160.769531 52.804688 163.609375 L 52.804688 164.703125 C 51.160156 164.179688 49.664062 163.28125 48.425781 162.082031 C 40.324219 161.644531 30.253906 162.738281 24.121094 155.964844 L 25.4375 154.652344 C 32.539062 154.605469 39.539062 156.332031 45.796875 159.679688 C 43.445312 156.0625 42.582031 151.679688 43.390625 147.445312 C 44.046875 145.039062 42.949219 142.417969 43.828125 140.234375 C 46.015625 140.453125 47.546875 143.292969 47.984375 145.257812 Z M 47.984375 145.257812 "/>
<path style=" stroke:none;fill-rule:nonzero;fill:rgb(0%,22.352941%,46.27451%);fill-opacity:1;" d="M 153.925781 141.792969 C 154.808594 148.5625 153.101562 155.417969 149.140625 160.988281 C 157.238281 159.242188 162.457031 156.972656 170.992188 157.410156 C 170.773438 158.941406 170.5625 159.382812 169.25 159.820312 C 168.429688 160.128906 169.339844 161.078125 168.902344 161.078125 C 161.058594 168.085938 149.140625 159.679688 141.699219 167.105469 C 140.164062 164.484375 144.105469 165.359375 144.542969 163.171875 C 149.140625 157.054688 145.839844 148.253906 151.753906 142.574219 C 152.628906 142.574219 153.707031 140.917969 153.925781 141.792969 Z M 153.925781 141.792969 "/>
<path style=" stroke:none;fill-rule:nonzero;fill:rgb(0%,22.352941%,46.27451%);fill-opacity:1;" d="M 58.933594 168.417969 C 59.375 167.324219 58.277344 166.234375 57.183594 165.792969 C 53.679688 161.640625 55.433594 155.089844 52.804688 150.5 C 52.367188 148.753906 54.335938 148.753906 55.433594 149.191406 C 63.53125 154.871094 57.839844 167.761719 67.035156 171.695312 C 67.257812 172.128906 67.910156 172.566406 68.132812 173.003906 C 65.503906 173.003906 63.316406 171.039062 60.6875 170.601562 "/>
<path style=" stroke:none;fill-rule:nonzero;fill:rgb(0%,22.352941%,46.27451%);fill-opacity:1;" d="M 126.589844 174.53125 L 125.496094 174.53125 C 126.589844 172.789062 129.65625 172.128906 131.410156 170.164062 C 134.472656 162.957031 135.128906 153.996094 142.132812 149.191406 L 143.453125 149.191406 C 142.792969 156.402344 141.476562 164.703125 135.351562 169.070312 L 135.351562 169.945312 "/>
<path style=" stroke:none;fill-rule:nonzero;fill:rgb(0%,22.352941%,46.27451%);fill-opacity:1;" d="M 100.160156 159.601562 L 31.589844 158.15625 L 32.367188 158.480469 C 47.222656 164.265625 44 183.914062 35.667969 190.421875 L 35.9375 190.332031 C 61.300781 187.078125 100.070312 206.269531 100.070312 206.269531 "/>
<path style=" stroke:none;fill-rule:nonzero;fill:rgb(0%,22.352941%,46.27451%);fill-opacity:1;" d="M 100.070312 159.542969 L 168.636719 158.097656 L 167.863281 158.421875 C 153.007812 164.207031 156.226562 183.855469 164.5625 190.363281 L 164.292969 190.269531 C 138.929688 187.015625 100.070312 206.269531 100.070312 206.269531 "/>
<path style=" stroke:none;fill-rule:nonzero;fill:rgb(100%,85.490197%,47.843137%);fill-opacity:1;" d="M 55.742188 168.101562 C 55.742188 164.320312 55.695312 163.851562 53.5625 163.613281 L 52.605469 163.535156 C 55.925781 162.195312 59.558594 162.078125 64.007812 162.078125 C 67.628906 161.957031 71.25 162.40625 74.726562 163.417969 C 80.15625 164.765625 83.984375 169.601562 84.039062 175.183594 C 83.914062 180.265625 80.691406 184.753906 75.910156 186.511719 C 72.324219 187.898438 68.492188 188.539062 64.644531 188.398438 C 61.875 188.398438 59.738281 188.164062 58.058594 188.164062 C 56.332031 188.164062 54.289062 188.203125 52.289062 188.28125 L 53.199219 187.023438 C 55.335938 186.789062 55.742188 186.667969 55.742188 182.5 Z M 61.011719 180.964844 C 61.011719 184.777344 61.328125 186.824219 66.144531 186.824219 C 69.328125 187.15625 72.492188 186.046875 74.761719 183.796875 C 77.035156 181.546875 78.171875 178.398438 77.863281 175.21875 C 77.863281 167.429688 72.636719 163.652344 65.054688 163.652344 C 63.800781 163.578125 62.546875 163.765625 61.375 164.207031 C 61.054688 164.441406 61.011719 165.265625 61.011719 167.117188 Z M 61.011719 180.964844 "/>
<path style=" stroke:none;fill-rule:nonzero;fill:rgb(100%,85.490197%,47.843137%);fill-opacity:1;" d="M 115.230469 184.363281 C 115.230469 185.738281 115.46875 186.761719 116.371094 187.117188 C 115.554688 187.738281 114.796875 187.84375 114.050781 188.019531 C 111.027344 188.632812 107.953125 188.988281 104.871094 189.082031 C 99.652344 189.390625 94.492188 187.859375 90.292969 184.757812 C 87.648438 182.507812 86.125 179.210938 86.128906 175.742188 C 86.140625 172.171875 87.734375 168.789062 90.484375 166.5 C 94.789062 163.183594 100.152344 161.535156 105.582031 161.855469 C 107.691406 161.890625 109.792969 162.085938 111.875 162.445312 C 112.875 162.632812 113.886719 162.75 114.902344 162.800781 C 114.953125 163.980469 115.285156 165.984375 115.519531 169.054688 C 115.101562 169.453125 114.460938 169.488281 114.003906 169.136719 C 112.964844 165.320312 109.601562 163.429688 104.917969 163.429688 C 96.585938 163.429688 92.566406 168.425781 92.566406 175.113281 C 92.433594 178.464844 93.660156 181.730469 95.972656 184.164062 C 98.484375 186.390625 101.75 187.582031 105.105469 187.507812 C 106.574219 187.707031 108.066406 187.386719 109.320312 186.601562 C 109.707031 185.835938 109.855469 184.972656 109.746094 184.125 L 109.746094 182.710938 C 109.746094 179.917969 109.699219 179.679688 106.527344 179.246094 L 104.824219 179.011719 C 106.714844 177.949219 108.988281 177.988281 112.253906 177.988281 C 114.382812 177.988281 115.992188 177.949219 118.027344 177.871094 L 117.269531 179.128906 C 115.519531 179.328125 115.234375 179.679688 115.234375 182.078125 Z M 115.230469 184.363281 "/>
<path style=" stroke:none;fill-rule:nonzero;fill:rgb(100%,85.490197%,47.843137%);fill-opacity:1;" d="M 121.523438 187.851562 C 120.15625 186.144531 119.5 183.980469 119.683594 181.804688 C 120.242188 181.414062 120.972656 181.355469 121.589844 181.648438 C 123.664062 185.480469 127.660156 187.886719 132.027344 187.929688 C 136.695312 187.929688 139.335938 186.101562 139.335938 183.675781 C 139.335938 181.410156 137.679688 179.578125 133.070312 177.90625 L 130.429688 176.949219 C 125.824219 175.28125 121.773438 172.851562 121.773438 169.273438 C 121.773438 165.335938 126.320312 161.996094 135.285156 161.996094 C 138.105469 162.082031 140.914062 162.359375 143.695312 162.828125 C 144.558594 164.488281 145.003906 166.332031 144.988281 168.199219 C 144.394531 168.5625 143.65625 168.609375 143.023438 168.320312 C 141.5625 165.128906 138.226562 163.226562 134.734375 163.585938 C 129.820312 163.585938 127.792969 165.65625 127.792969 167.761719 C 127.792969 169.4375 129.574219 171.222656 133.628906 172.617188 L 137.433594 173.925781 C 141.425781 175.28125 145.847656 177.75 145.847656 181.765625 C 145.847656 186.304688 140.503906 189.527344 131.597656 189.527344 C 128.164062 189.625 124.742188 189.058594 121.523438 187.851562 Z M 121.523438 187.851562 "/>
<path style=" stroke:none;fill-rule:nonzero;fill:rgb(0%,22.352941%,46.27451%);fill-opacity:1;" d="M 173.042969 155.996094 C 169.535156 162.941406 161.621094 166.472656 154.097656 164.449219 C 144.460938 162.164062 160.441406 158.980469 163.121094 157.324219 C 166.304688 156.21875 169.679688 155.765625 173.042969 155.996094 Z M 173.042969 155.996094 "/>
<path style=" stroke:none;fill-rule:nonzero;fill:rgb(0%,22.352941%,46.27451%);fill-opacity:1;" d="M 55.335938 80.34375 C 55.335938 79.273438 54.425781 78.410156 53.300781 78.410156 C 52.175781 78.410156 51.265625 79.273438 51.265625 80.34375 C 51.265625 81.410156 52.175781 82.277344 53.300781 82.277344 C 54.425781 82.277344 55.335938 81.410156 55.335938 80.34375 Z M 55.335938 80.34375 "/>
<path style=" stroke:none;fill-rule:nonzero;fill:rgb(0%,22.352941%,46.27451%);fill-opacity:1;" d="M 63.921875 80.382812 C 63.921875 79.316406 63.011719 78.449219 61.890625 78.449219 C 60.765625 78.449219 59.855469 79.316406 59.855469 80.382812 C 59.855469 81.449219 60.765625 82.316406 61.890625 82.316406 C 63.011719 82.316406 63.921875 81.449219 63.921875 80.382812 Z M 63.921875 80.382812 "/>
<path style=" stroke:none;fill-rule:nonzero;fill:rgb(0%,22.352941%,46.27451%);fill-opacity:1;" d="M 53.300781 78.410156 L 61.828125 78.410156 L 61.828125 80.464844 L 53.300781 80.464844 Z M 53.300781 78.410156 "/>
<path style=" stroke:none;fill-rule:nonzero;fill:rgb(100%,100%,100%);fill-opacity:1;" d="M 55.800781 80.734375 L 59.363281 80.734375 L 59.363281 81.28125 L 55.800781 81.28125 Z M 55.800781 80.734375 "/>
<path style=" stroke:none;fill-rule:nonzero;fill:rgb(0%,22.352941%,46.27451%);fill-opacity:1;" d="M 54.84375 81.691406 L 60.320312 81.691406 L 60.320312 124.886719 L 54.84375 124.886719 Z M 54.84375 81.691406 "/>
<path style=" stroke:none;fill-rule:nonzero;fill:rgb(0%,22.352941%,46.27451%);fill-opacity:1;" d="M 52.925781 123.277344 L 62.101562 123.277344 L 62.101562 125.875 L 52.925781 125.875 Z M 52.925781 123.277344 "/>
<path style=" stroke:none;fill-rule:nonzero;fill:rgb(0%,22.352941%,46.27451%);fill-opacity:1;" d="M 88.984375 80.414062 C 88.984375 79.34375 88.074219 78.480469 86.949219 78.480469 C 85.824219 78.480469 84.914062 79.34375 84.914062 80.414062 C 84.914062 81.480469 85.824219 82.34375 86.949219 82.34375 C 88.074219 82.34375 88.984375 81.480469 88.984375 80.414062 Z M 88.984375 80.414062 "/>
<path style=" stroke:none;fill-rule:nonzero;fill:rgb(0%,22.352941%,46.27451%);fill-opacity:1;" d="M 97.511719 80.421875 C 97.511719 79.355469 96.601562 78.488281 95.476562 78.488281 C 94.355469 78.488281 93.445312 79.355469 93.445312 80.421875 C 93.445312 81.488281 94.355469 82.355469 95.476562 82.355469 C 96.601562 82.355469 97.511719 81.488281 97.511719 80.421875 Z M 97.511719 80.421875 "/>
<path style=" stroke:none;fill-rule:nonzero;fill:rgb(0%,22.352941%,46.27451%);fill-opacity:1;" d="M 86.949219 78.480469 L 95.476562 78.480469 L 95.476562 80.53125 L 86.949219 80.53125 Z M 86.949219 78.480469 "/>
<path style=" stroke:none;fill-rule:nonzero;fill:rgb(100%,100%,100%);fill-opacity:1;" d="M 89.449219 80.804688 L 93.011719 80.804688 L 93.011719 81.351562 L 89.449219 81.351562 Z M 89.449219 80.804688 "/>
<path style=" stroke:none;fill-rule:nonzero;fill:rgb(0%,22.352941%,46.27451%);fill-opacity:1;" d="M 88.488281 81.761719 L 93.96875 81.761719 L 93.96875 124.957031 L 88.488281 124.957031 Z M 88.488281 81.761719 "/>
<path style=" stroke:none;fill-rule:nonzero;fill:rgb(0%,22.352941%,46.27451%);fill-opacity:1;" d="M 86.574219 123.316406 L 95.75 123.316406 L 95.75 125.914062 L 86.574219 125.914062 Z M 86.574219 123.316406 "/>
<path style=" stroke:none;fill-rule:nonzero;fill:rgb(0%,22.352941%,46.27451%);fill-opacity:1;" d="M 72.132812 80.414062 C 72.132812 79.34375 71.222656 78.480469 70.101562 78.480469 C 68.976562 78.480469 68.066406 79.34375 68.066406 80.414062 C 68.066406 81.480469 68.976562 82.34375 70.101562 82.34375 C 71.222656 82.34375 72.132812 81.480469 72.132812 80.414062 Z M 72.132812 80.414062 "/>
<path style=" stroke:none;fill-rule:nonzero;fill:rgb(0%,22.352941%,46.27451%);fill-opacity:1;" d="M 80.691406 80.421875 C 80.691406 79.355469 79.78125 78.488281 78.65625 78.488281 C 77.535156 78.488281 76.625 79.355469 76.625 80.421875 C 76.625 81.488281 77.535156 82.355469 78.65625 82.355469 C 79.78125 82.355469 80.691406 81.488281 80.691406 80.421875 Z M 80.691406 80.421875 "/>
<path style=" stroke:none;fill-rule:nonzero;fill:rgb(0%,22.352941%,46.27451%);fill-opacity:1;" d="M 70.101562 78.480469 L 78.625 78.480469 L 78.625 80.53125 L 70.101562 80.53125 Z M 70.101562 78.480469 "/>
<path style=" stroke:none;fill-rule:nonzero;fill:rgb(100%,100%,100%);fill-opacity:1;" d="M 72.601562 80.804688 L 76.164062 80.804688 L 76.164062 81.351562 L 72.601562 81.351562 Z M 72.601562 80.804688 "/>
<path style=" stroke:none;fill-rule:nonzero;fill:rgb(0%,22.352941%,46.27451%);fill-opacity:1;" d="M 71.640625 81.761719 L 77.121094 81.761719 L 77.121094 124.957031 L 71.640625 124.957031 Z M 71.640625 81.761719 "/>
<path style=" stroke:none;fill-rule:nonzero;fill:rgb(0%,22.352941%,46.27451%);fill-opacity:1;" d="M 69.722656 123.316406 L 78.902344 123.316406 L 78.902344 125.914062 L 69.722656 125.914062 Z M 69.722656 123.316406 "/>
<path style=" stroke:none;fill-rule:nonzero;fill:rgb(0%,22.352941%,46.27451%);fill-opacity:1;" d="M 105.835938 80.277344 C 105.835938 79.207031 104.921875 78.34375 103.800781 78.34375 C 102.675781 78.34375 101.765625 79.207031 101.765625 80.277344 C 101.765625 81.34375 102.675781 82.207031 103.800781 82.207031 C 104.921875 82.207031 105.835938 81.34375 105.835938 80.277344 Z M 105.835938 80.277344 "/>
<path style=" stroke:none;fill-rule:nonzero;fill:rgb(0%,22.352941%,46.27451%);fill-opacity:1;" d="M 114.453125 80.40625 C 114.453125 79.339844 113.542969 78.472656 112.417969 78.472656 C 111.292969 78.472656 110.382812 79.339844 110.382812 80.40625 C 110.382812 81.472656 111.292969 82.339844 112.417969 82.339844 C 113.542969 82.339844 114.453125 81.472656 114.453125 80.40625 Z M 114.453125 80.40625 "/>
<path style=" stroke:none;fill-rule:nonzero;fill:rgb(0%,22.352941%,46.27451%);fill-opacity:1;" d="M 103.800781 78.34375 L 112.328125 78.34375 L 112.328125 80.394531 L 103.800781 80.394531 Z M 103.800781 78.34375 "/>
<path style=" stroke:none;fill-rule:nonzero;fill:rgb(100%,100%,100%);fill-opacity:1;" d="M 106.300781 80.667969 L 109.859375 80.667969 L 109.859375 81.214844 L 106.300781 81.214844 Z M 106.300781 80.667969 "/>
<path style=" stroke:none;fill-rule:nonzero;fill:rgb(0%,22.352941%,46.27451%);fill-opacity:1;" d="M 105.339844 81.625 L 110.820312 81.625 L 110.820312 124.820312 L 105.339844 124.820312 Z M 105.339844 81.625 "/>
<path style=" stroke:none;fill-rule:nonzero;fill:rgb(0%,22.352941%,46.27451%);fill-opacity:1;" d="M 103.421875 123.253906 L 112.601562 123.253906 L 112.601562 125.851562 L 103.421875 125.851562 Z M 103.421875 123.253906 "/>
<path style=" stroke:none;fill-rule:nonzero;fill:rgb(0%,22.352941%,46.27451%);fill-opacity:1;" d="M 122.683594 80.414062 C 122.683594 79.34375 121.773438 78.480469 120.648438 78.480469 C 119.527344 78.480469 118.613281 79.34375 118.613281 80.414062 C 118.613281 81.480469 119.527344 82.34375 120.648438 82.34375 C 121.773438 82.34375 122.683594 81.480469 122.683594 80.414062 Z M 122.683594 80.414062 "/>
<path style=" stroke:none;fill-rule:nonzero;fill:rgb(0%,22.352941%,46.27451%);fill-opacity:1;" d="M 131.242188 80.390625 C 131.242188 79.324219 130.332031 78.457031 129.207031 78.457031 C 128.082031 78.457031 127.171875 79.324219 127.171875 80.390625 C 127.171875 81.460938 128.082031 82.324219 129.207031 82.324219 C 130.332031 82.324219 131.242188 81.460938 131.242188 80.390625 Z M 131.242188 80.390625 "/>
<path style=" stroke:none;fill-rule:nonzero;fill:rgb(0%,22.352941%,46.27451%);fill-opacity:1;" d="M 120.648438 78.480469 L 129.175781 78.480469 L 129.175781 80.53125 L 120.648438 80.53125 Z M 120.648438 78.480469 "/>
<path style=" stroke:none;fill-rule:nonzero;fill:rgb(100%,100%,100%);fill-opacity:1;" d="M 123.148438 80.804688 L 126.710938 80.804688 L 126.710938 81.351562 L 123.148438 81.351562 Z M 123.148438 80.804688 "/>
<path style=" stroke:none;fill-rule:nonzero;fill:rgb(0%,22.352941%,46.27451%);fill-opacity:1;" d="M 122.191406 81.761719 L 127.671875 81.761719 L 127.671875 124.957031 L 122.191406 124.957031 Z M 122.191406 81.761719 "/>
<path style=" stroke:none;fill-rule:nonzero;fill:rgb(0%,22.352941%,46.27451%);fill-opacity:1;" d="M 120.273438 123.316406 L 129.449219 123.316406 L 129.449219 125.914062 L 120.273438 125.914062 Z M 120.273438 123.316406 "/>
<path style=" stroke:none;fill-rule:nonzero;fill:rgb(0%,22.352941%,46.27451%);fill-opacity:1;" d="M 139.394531 80.277344 C 139.394531 79.207031 138.484375 78.34375 137.363281 78.34375 C 136.238281 78.34375 135.328125 79.207031 135.328125 80.277344 C 135.328125 81.34375 136.238281 82.207031 137.363281 82.207031 C 138.484375 82.207031 139.394531 81.34375 139.394531 80.277344 Z M 139.394531 80.277344 "/>
<path style=" stroke:none;fill-rule:nonzero;fill:rgb(0%,22.352941%,46.27451%);fill-opacity:1;" d="M 147.925781 80.285156 C 147.925781 79.21875 147.015625 78.351562 145.890625 78.351562 C 144.765625 78.351562 143.855469 79.21875 143.855469 80.285156 C 143.855469 81.351562 144.765625 82.21875 145.890625 82.21875 C 147.015625 82.21875 147.925781 81.351562 147.925781 80.285156 Z M 147.925781 80.285156 "/>
<path style=" stroke:none;fill-rule:nonzero;fill:rgb(0%,22.352941%,46.27451%);fill-opacity:1;" d="M 137.363281 78.34375 L 145.890625 78.34375 L 145.890625 80.394531 L 137.363281 80.394531 Z M 137.363281 78.34375 "/>
<path style=" stroke:none;fill-rule:nonzero;fill:rgb(100%,100%,100%);fill-opacity:1;" d="M 139.863281 80.667969 L 143.425781 80.667969 L 143.425781 81.214844 L 139.863281 81.214844 Z M 139.863281 80.667969 "/>
<path style=" stroke:none;fill-rule:nonzero;fill:rgb(0%,22.352941%,46.27451%);fill-opacity:1;" d="M 138.902344 81.625 L 144.382812 81.625 L 144.382812 124.820312 L 138.902344 124.820312 Z M 138.902344 81.625 "/>
<path style=" stroke:none;fill-rule:nonzero;fill:rgb(0%,22.352941%,46.27451%);fill-opacity:1;" d="M 137.0625 123.328125 L 146.238281 123.328125 L 146.238281 125.925781 L 137.0625 125.925781 Z M 137.0625 123.328125 "/>
<path style="fill-rule:nonzero;fill:rgb(0%,22.352941%,46.27451%);fill-opacity:1;stroke-width:0.0637;stroke-linecap:butt;stroke-linejoin:miter;stroke:rgb(0%,22.352941%,46.27451%);stroke-opacity:1;stroke-miterlimit:4;" d="M 16.809023 22.535194 L 44.774414 22.535194 L 44.774414 24.36165 L 16.809023 24.36165 Z M 16.809023 22.535194 " transform="matrix(3.225806,0,0,3.21875,0,0)"/>
<path style="fill-rule:nonzero;fill:rgb(0%,22.352941%,46.27451%);fill-opacity:1;stroke-width:0.0637;stroke-linecap:butt;stroke-linejoin:miter;stroke:rgb(0%,22.352941%,46.27451%);stroke-opacity:1;stroke-miterlimit:4;" d="M 16.809023 21.324029 L 44.774414 21.324029 L 44.774414 21.961165 L 16.809023 21.961165 Z M 16.809023 21.324029 " transform="matrix(3.225806,0,0,3.21875,0,0)"/>
<path style="fill-rule:nonzero;fill:rgb(0%,22.352941%,46.27451%);fill-opacity:1;stroke-width:0.0637;stroke-linecap:butt;stroke-linejoin:miter;stroke:rgb(0%,22.352941%,46.27451%);stroke-opacity:1;stroke-miterlimit:4;" d="M 30.888594 13.106796 L 15.663477 19.476942 L 15.917773 20.178398 L 30.888594 13.871359 Z M 30.888594 13.106796 " transform="matrix(3.225806,0,0,3.21875,0,0)"/>
<path style="fill-rule:nonzero;fill:rgb(0%,22.352941%,46.27451%);fill-opacity:1;stroke-width:0.0637;stroke-linecap:butt;stroke-linejoin:miter;stroke:rgb(0%,22.352941%,46.27451%);stroke-opacity:1;stroke-miterlimit:4;" d="M 30.918867 13.115291 L 46.143984 19.485437 L 45.889688 20.18568 L 30.918867 13.878641 Z M 30.918867 13.115291 " transform="matrix(3.225806,0,0,3.21875,0,0)"/>
<path style="fill-rule:nonzero;fill:rgb(0%,22.352941%,46.27451%);fill-opacity:1;stroke-width:0.0637;stroke-linecap:butt;stroke-linejoin:miter;stroke:rgb(0%,22.352941%,46.27451%);stroke-opacity:1;stroke-miterlimit:4;" d="M 16.363398 20.114078 L 45.22125 20.114078 L 45.22125 20.81432 L 16.363398 20.81432 Z M 16.363398 20.114078 " transform="matrix(3.225806,0,0,3.21875,0,0)"/>
<path style="fill-rule:nonzero;fill:rgb(0%,22.352941%,46.27451%);fill-opacity:1;stroke-width:0.0637;stroke-linecap:butt;stroke-linejoin:miter;stroke:rgb(0%,22.352941%,46.27451%);stroke-opacity:1;stroke-miterlimit:4;" d="M 42.545078 19.796117 L 18.658125 19.796117 L 30.888594 14.955097 " transform="matrix(3.225806,0,0,3.21875,0,0)"/>
<path style="fill-rule:nonzero;fill:rgb(0%,22.352941%,46.27451%);fill-opacity:1;stroke-width:0.3822;stroke-linecap:butt;stroke-linejoin:miter;stroke:rgb(0%,22.352941%,46.27451%);stroke-opacity:1;stroke-miterlimit:4;" d="M 16.363398 39.416262 L 19.295078 39.416262 L 19.295078 43.025485 L 16.363398 43.025485 Z M 16.363398 39.416262 " transform="matrix(3.225806,0,0,3.21875,0,0)"/>
<path style="fill-rule:nonzero;fill:rgb(0%,22.352941%,46.27451%);fill-opacity:1;stroke-width:0.3822;stroke-linecap:butt;stroke-linejoin:miter;stroke:rgb(0%,22.352941%,46.27451%);stroke-opacity:1;stroke-miterlimit:4;" d="M 42.482109 39.416262 L 45.412578 39.416262 L 45.412578 43.025485 L 42.482109 43.025485 Z M 42.482109 39.416262 " transform="matrix(3.225806,0,0,3.21875,0,0)"/>
<path style="fill:none;stroke-width:0.6371;stroke-linecap:butt;stroke-linejoin:miter;stroke:rgb(0%,22.352941%,46.27451%);stroke-opacity:1;stroke-miterlimit:4;" d="M 16.59832 39.416262 L 45.539727 39.416262 " transform="matrix(3.225806,0,0,3.21875,0,0)"/>
<path style="fill:none;stroke-width:0.6371;stroke-linecap:butt;stroke-linejoin:miter;stroke:rgb(0%,22.352941%,46.27451%);stroke-opacity:1;stroke-miterlimit:4;" d="M 16.304063 40.583738 L 45.24668 40.583738 " transform="matrix(3.225806,0,0,3.21875,0,0)"/>
<path style="fill:none;stroke-width:0.6371;stroke-linecap:butt;stroke-linejoin:miter;stroke:rgb(0%,22.352941%,46.27451%);stroke-opacity:1;stroke-miterlimit:4;" d="M 16.198711 41.746359 L 45.138906 41.746359 " transform="matrix(3.225806,0,0,3.21875,0,0)"/>
<path style="fill:none;stroke-width:0.6371;stroke-linecap:butt;stroke-linejoin:miter;stroke:rgb(0%,22.352941%,46.27451%);stroke-opacity:1;stroke-miterlimit:4;" d="M 16.237461 43.025485 L 45.475547 43.025485 " transform="matrix(3.225806,0,0,3.21875,0,0)"/>
<path style=" stroke:none;fill-rule:nonzero;fill:rgb(100%,100%,100%);fill-opacity:1;" d="M 59.996094 62.300781 L 138.355469 62.300781 L 138.355469 63.941406 L 59.996094 63.941406 Z M 59.996094 62.300781 "/>
<path style=" stroke:none;fill-rule:nonzero;fill:rgb(0%,22.352941%,46.27451%);fill-opacity:1;" d="M 39.671875 158.480469 L 154.890625 158.480469 L 154.890625 160.652344 L 39.671875 160.652344 Z M 39.671875 158.480469 "/>
</g>
</svg>
