<?xml version="1.0" encoding="UTF-8"?>
<svg xmlns="http://www.w3.org/2000/svg" xmlns:xlink="http://www.w3.org/1999/xlink" width="201px" height="300px" viewBox="0 0 201 300" version="1.1">
<g id="surface1">
<path style=" stroke:none;fill-rule:nonzero;fill:rgb(100%,100%,100%);fill-opacity:1;" d="M 183.664062 298.851562 L 17.5 298.851562 C 8.34375 298.851562 0.921875 291.441406 0.921875 282.300781 L 0.921875 17.472656 C 0.921875 8.332031 8.34375 0.917969 17.5 0.917969 L 183.664062 0.917969 C 192.820312 0.917969 200.242188 8.332031 200.242188 17.472656 L 200.242188 282.300781 C 200.242188 291.441406 192.820312 298.851562 183.664062 298.851562 "/>
<path style=" stroke:none;fill-rule:nonzero;fill:rgb(13.725491%,12.156863%,12.54902%);fill-opacity:1;" d="M 183.492188 298.851562 L 17.671875 298.851562 C 8.421875 298.851562 0.921875 291.363281 0.921875 282.125 L 0.921875 196.496094 L 200.242188 196.496094 L 200.242188 282.125 C 200.242188 291.363281 192.742188 298.851562 183.492188 298.851562 "/>
<path style="fill:none;stroke-width:20;stroke-linecap:butt;stroke-linejoin:miter;stroke:rgb(13.725491%,12.156863%,12.54902%);stroke-opacity:1;stroke-miterlimit:10;" d="M 1994.262857 9.989182 L 190.018665 9.989182 C 90.598185 9.989182 10.009912 90.574635 10.009912 189.978936 L 10.009912 3069.984924 C 10.009912 3169.389226 90.598185 3250.017159 190.018665 3250.017159 L 1994.262857 3250.017159 C 2093.683338 3250.017159 2174.271611 3169.389226 2174.271611 3069.984924 L 2174.271611 189.978936 C 2174.271611 90.574635 2093.683338 9.989182 1994.262857 9.989182 Z M 1994.262857 9.989182 " transform="matrix(0.0920962,0,0,-0.091954,0,299.770108)"/>
<path style=" stroke:none;fill-rule:nonzero;fill:rgb(47.843137%,80.000001%,28.627452%);fill-opacity:1;" d="M 76.847656 137.398438 C 77.347656 143.015625 82.898438 146.9375 88.242188 147.199219 C 93.488281 147.453125 99.039062 143.9375 99.027344 138.273438 C 99.027344 132.222656 93.027344 127.878906 87.355469 127.710938 L 87.03125 127.710938 C 81.699219 127.699219 76.347656 131.628906 76.847656 137.398438 "/>
<path style=" stroke:none;fill-rule:nonzero;fill:rgb(47.843137%,80.000001%,28.627452%);fill-opacity:1;" d="M 113.800781 127.699219 C 108.136719 127.878906 102.132812 132.214844 102.132812 138.265625 C 102.132812 143.9375 107.675781 147.445312 112.921875 147.191406 C 118.265625 146.925781 123.808594 143.007812 124.316406 137.390625 C 124.816406 131.621094 119.464844 127.691406 114.121094 127.691406 C 114.007812 127.699219 113.90625 127.699219 113.800781 127.699219 "/>
<path style=" stroke:none;fill-rule:nonzero;fill:rgb(47.843137%,80.000001%,28.627452%);fill-opacity:1;" d="M 54.929688 134.550781 C 55.796875 139.539062 60.253906 143.890625 65.238281 144.738281 C 70.0625 145.558594 74.222656 142.09375 73.722656 137.117188 C 73.167969 131.648438 68.125 126.710938 62.671875 126.15625 C 62.386719 126.125 62.105469 126.117188 61.839844 126.117188 C 57.308594 126.125 54.136719 129.960938 54.929688 134.550781 "/>
<path style=" stroke:none;fill-rule:nonzero;fill:rgb(47.843137%,80.000001%,28.627452%);fill-opacity:1;" d="M 138.503906 126.164062 C 133.03125 126.722656 128 131.660156 127.441406 137.125 C 126.941406 142.101562 131.105469 145.570312 135.925781 144.75 C 140.902344 143.902344 145.355469 139.546875 146.226562 134.5625 C 147.019531 129.972656 143.855469 126.125 139.324219 126.125 C 139.0625 126.125 138.789062 126.136719 138.503906 126.164062 "/>
<path style=" stroke:none;fill-rule:nonzero;fill:rgb(47.843137%,80.000001%,28.627452%);fill-opacity:1;" d="M 52.410156 111.734375 C 52.703125 117.136719 56.734375 122.628906 62.386719 123.128906 C 68.277344 123.65625 72.335938 118.183594 72.167969 112.695312 C 71.988281 106.984375 67.523438 101.039062 61.433594 101 L 61.375 101 C 55.703125 101 52.117188 106.476562 52.410156 111.734375 "/>
<path style=" stroke:none;fill-rule:nonzero;fill:rgb(47.843137%,80.000001%,28.627452%);fill-opacity:1;" d="M 139.730469 101 C 133.632812 101.039062 129.167969 106.984375 129 112.695312 C 128.828125 118.183594 132.886719 123.65625 138.777344 123.128906 C 144.433594 122.628906 148.460938 117.136719 148.753906 111.734375 C 149.039062 106.46875 145.453125 101 139.777344 101 L 139.730469 101 "/>
<path style=" stroke:none;fill-rule:nonzero;fill:rgb(47.843137%,80.000001%,28.627452%);fill-opacity:1;" d="M 62.386719 76.0625 C 56.734375 76.570312 52.703125 82.066406 52.410156 87.449219 C 52.117188 92.734375 55.722656 98.238281 61.433594 98.203125 C 67.523438 98.171875 71.988281 92.226562 72.167969 86.496094 C 72.328125 81.257812 68.636719 76.027344 63.171875 76.027344 C 62.90625 76.027344 62.652344 76.035156 62.386719 76.0625 "/>
<path style=" stroke:none;fill-rule:nonzero;fill:rgb(47.843137%,80.000001%,28.627452%);fill-opacity:1;" d="M 129 86.503906 C 129.179688 92.226562 133.644531 98.171875 139.730469 98.210938 C 145.433594 98.25 149.039062 92.746094 148.753906 87.457031 C 148.460938 82.078125 144.433594 76.582031 138.777344 76.074219 C 138.523438 76.042969 138.25 76.035156 137.996094 76.035156 C 132.527344 76.027344 128.828125 81.257812 129 86.503906 "/>
<path style=" stroke:none;fill-rule:nonzero;fill:rgb(47.843137%,80.000001%,28.627452%);fill-opacity:1;" d="M 65.238281 54.453125 C 60.253906 55.300781 55.796875 59.675781 54.929688 64.640625 C 54.082031 69.503906 57.695312 73.546875 62.660156 73.039062 C 68.117188 72.480469 73.15625 67.542969 73.714844 62.078125 C 74.15625 57.589844 70.824219 54.332031 66.632812 54.332031 C 66.179688 54.332031 65.710938 54.367188 65.238281 54.453125 "/>
<path style=" stroke:none;fill-rule:nonzero;fill:rgb(47.843137%,80.000001%,28.627452%);fill-opacity:1;" d="M 127.441406 62.078125 C 128 67.542969 133.039062 72.480469 138.503906 73.039062 C 143.460938 73.546875 147.074219 69.503906 146.226562 64.640625 C 145.355469 59.675781 140.902344 55.300781 135.925781 54.453125 C 135.445312 54.367188 134.984375 54.332031 134.519531 54.332031 C 130.328125 54.332031 126.988281 57.601562 127.441406 62.078125 "/>
<path style=" stroke:none;fill-rule:nonzero;fill:rgb(47.843137%,80.000001%,28.627452%);fill-opacity:1;" d="M 88.242188 52.003906 C 82.898438 52.265625 77.347656 56.1875 76.847656 61.8125 C 76.339844 67.683594 81.917969 71.652344 87.355469 71.492188 C 93.027344 71.324219 99.019531 66.976562 99.027344 60.929688 C 99.039062 55.453125 93.855469 51.984375 88.777344 51.984375 C 88.609375 51.984375 88.429688 51.984375 88.242188 52.003906 "/>
<path style=" stroke:none;fill-rule:nonzero;fill:rgb(47.843137%,80.000001%,28.627452%);fill-opacity:1;" d="M 102.125 60.929688 C 102.125 66.976562 108.128906 71.324219 113.792969 71.492188 C 119.238281 71.652344 124.808594 67.683594 124.308594 61.8125 C 123.796875 56.195312 118.257812 52.265625 112.914062 52.003906 C 112.734375 51.992188 112.546875 51.992188 112.375 51.992188 C 107.308594 51.984375 102.125 55.453125 102.125 60.929688 "/>
<path style=" stroke:none;fill-rule:nonzero;fill:rgb(60.784316%,83.137256%,12.941177%);fill-opacity:1;" d="M 75.480469 112.800781 C 75.648438 119.066406 81 124.363281 87.269531 124.515625 C 93.59375 124.683594 99.019531 119.472656 99.019531 113.128906 C 99.019531 106.644531 93.433594 101.125 86.949219 101.09375 L 86.929688 101.09375 C 80.585938 101.085938 75.308594 106.46875 75.480469 112.800781 "/>
<path style=" stroke:none;fill-rule:nonzero;fill:rgb(60.784316%,83.137256%,12.941177%);fill-opacity:1;" d="M 114.21875 101.085938 C 107.722656 101.105469 102.144531 106.636719 102.144531 113.121094 C 102.144531 119.464844 107.5625 124.675781 113.886719 124.503906 C 120.152344 124.347656 125.496094 119.058594 125.6875 112.800781 C 125.855469 106.457031 120.578125 101.085938 114.246094 101.085938 L 114.21875 101.085938 "/>
<path style=" stroke:none;fill-rule:nonzero;fill:rgb(60.784316%,83.137256%,12.941177%);fill-opacity:1;" d="M 87.269531 74.675781 C 81 74.847656 75.660156 80.132812 75.480469 86.394531 C 75.300781 92.734375 80.59375 98.109375 86.9375 98.109375 C 93.433594 98.097656 99.011719 92.554688 99.011719 86.0625 C 99.011719 79.824219 93.753906 74.675781 87.550781 74.675781 L 87.269531 74.675781 "/>
<path style=" stroke:none;fill-rule:nonzero;fill:rgb(60.784316%,83.137256%,12.941177%);fill-opacity:1;" d="M 102.144531 86.074219 C 102.144531 92.554688 107.730469 98.097656 114.21875 98.109375 C 120.558594 98.109375 125.855469 92.734375 125.6875 86.394531 C 125.507812 80.132812 120.164062 74.847656 113.894531 74.675781 L 113.613281 74.675781 C 107.402344 74.675781 102.132812 79.824219 102.144531 86.074219 "/>
<path style=" stroke:none;fill-rule:nonzero;fill:rgb(25.098041%,73.725492%,47.843137%);fill-opacity:1;" d="M 79.1875 156.152344 C 79.972656 160.667969 85.578125 162.808594 89.589844 163.082031 C 93.207031 163.316406 99.066406 161.921875 99.058594 157.339844 C 99.046875 152.300781 92.5625 149.839844 88.390625 149.613281 C 88.210938 149.613281 88.023438 149.605469 87.835938 149.605469 C 84.03125 149.59375 78.386719 151.46875 79.1875 156.152344 "/>
<path style=" stroke:none;fill-rule:nonzero;fill:rgb(25.098041%,73.725492%,47.843137%);fill-opacity:1;" d="M 112.761719 149.605469 C 108.601562 149.828125 102.117188 152.300781 102.105469 157.332031 C 102.097656 161.910156 107.957031 163.308594 111.582031 163.070312 C 115.574219 162.796875 121.191406 160.660156 121.976562 156.144531 C 122.789062 151.460938 117.132812 149.585938 113.328125 149.585938 C 113.132812 149.59375 112.941406 149.605469 112.761719 149.605469 "/>
<path style=" stroke:none;fill-rule:nonzero;fill:rgb(25.098041%,73.725492%,47.843137%);fill-opacity:1;" d="M 59.273438 152.28125 C 60.640625 156.359375 65.179688 159.226562 69.203125 160.160156 C 72.328125 160.867188 77.1875 160.007812 76.367188 155.777344 C 75.449219 151.128906 70.03125 147.832031 65.699219 147.050781 C 65.21875 146.972656 64.738281 146.925781 64.246094 146.925781 C 61.152344 146.9375 58.042969 148.632812 59.273438 152.28125 "/>
<path style=" stroke:none;fill-rule:nonzero;fill:rgb(25.098041%,73.725492%,47.843137%);fill-opacity:1;" d="M 135.464844 147.070312 C 131.121094 147.839844 125.703125 151.140625 124.796875 155.777344 C 123.96875 160.007812 128.828125 160.867188 131.953125 160.140625 C 135.972656 159.226562 140.523438 156.351562 141.882812 152.28125 C 143.109375 148.632812 140.003906 146.9375 136.917969 146.9375 C 136.425781 146.9375 135.9375 146.972656 135.464844 147.070312 "/>
<path style=" stroke:none;fill-rule:nonzero;fill:rgb(25.098041%,73.725492%,47.843137%);fill-opacity:1;" d="M 44.460938 146.671875 C 46.019531 150.195312 49.257812 153.382812 52.777344 154.898438 C 55.609375 156.132812 58.1875 154.929688 57.027344 151.621094 C 55.628906 147.671875 51.785156 143.910156 47.832031 142.542969 C 47.253906 142.347656 46.746094 142.242188 46.300781 142.242188 C 44.167969 142.253906 43.414062 144.289062 44.460938 146.671875 "/>
<path style=" stroke:none;fill-rule:nonzero;fill:rgb(25.098041%,73.725492%,47.843137%);fill-opacity:1;" d="M 153.324219 142.535156 C 149.378906 143.910156 145.515625 147.671875 144.128906 151.621094 C 142.960938 154.929688 145.535156 156.132812 148.367188 154.898438 C 151.898438 153.371094 155.15625 150.1875 156.695312 146.671875 C 157.75 144.289062 156.984375 142.242188 154.851562 142.242188 C 154.398438 142.253906 153.878906 142.335938 153.324219 142.535156 "/>
<path style=" stroke:none;fill-rule:nonzero;fill:rgb(25.098041%,73.725492%,47.843137%);fill-opacity:1;" d="M 39.15625 130.488281 C 40.121094 134.542969 43.082031 139.027344 47.191406 140.386719 C 51.398438 141.773438 53.144531 137.585938 52.496094 134.0625 C 51.691406 129.6875 48.285156 124.363281 43.613281 123.421875 C 43.273438 123.367188 42.953125 123.335938 42.648438 123.335938 C 39.234375 123.335938 38.476562 127.570312 39.15625 130.488281 "/>
<path style=" stroke:none;fill-rule:nonzero;fill:rgb(25.098041%,73.725492%,47.843137%);fill-opacity:1;" d="M 157.542969 123.421875 C 152.871094 124.355469 149.464844 129.679688 148.652344 134.070312 C 148.007812 137.597656 149.753906 141.78125 153.957031 140.386719 C 158.070312 139.011719 161.035156 134.542969 161.988281 130.488281 C 162.679688 127.570312 161.921875 123.335938 158.488281 123.335938 C 158.195312 123.335938 157.875 123.367188 157.542969 123.421875 "/>
<path style=" stroke:none;fill-rule:nonzero;fill:rgb(25.098041%,73.725492%,47.843137%);fill-opacity:1;" d="M 36.128906 110.246094 C 36.417969 114.328125 38.695312 119.898438 43.253906 120.6875 C 48.210938 121.566406 50.105469 115.402344 49.878906 111.558594 C 49.632812 107.304688 47.03125 100.867188 41.933594 100.820312 L 41.867188 100.820312 C 37.277344 100.832031 35.84375 106.597656 36.128906 110.246094 "/>
<path style=" stroke:none;fill-rule:nonzero;fill:rgb(25.098041%,73.725492%,47.843137%);fill-opacity:1;" d="M 159.234375 100.832031 C 154.136719 100.898438 151.53125 107.316406 151.285156 111.566406 C 151.066406 115.410156 152.945312 121.574219 157.921875 120.699219 C 162.46875 119.90625 164.753906 114.328125 165.039062 110.265625 C 165.3125 106.609375 163.875 100.839844 159.296875 100.839844 L 159.234375 100.839844 L 159.234375 100.832031 "/>
<path style=" stroke:none;fill-rule:nonzero;fill:rgb(25.098041%,73.725492%,47.843137%);fill-opacity:1;" d="M 43.246094 78.496094 C 38.695312 79.304688 36.417969 84.875 36.128906 88.945312 C 35.855469 92.621094 37.289062 98.4375 41.933594 98.371094 C 47.03125 98.316406 49.625 91.878906 49.878906 87.628906 C 50.085938 84.046875 48.453125 78.410156 44.179688 78.410156 C 43.886719 78.410156 43.574219 78.4375 43.246094 78.496094 "/>
<path style=" stroke:none;fill-rule:nonzero;fill:rgb(25.098041%,73.725492%,47.843137%);fill-opacity:1;" d="M 151.285156 87.628906 C 151.519531 91.886719 154.136719 98.316406 159.234375 98.371094 C 163.875 98.425781 165.3125 92.621094 165.039062 88.945312 C 164.746094 84.875 162.46875 79.304688 157.921875 78.503906 C 157.589844 78.449219 157.289062 78.417969 156.996094 78.417969 C 152.710938 78.410156 151.078125 84.046875 151.285156 87.628906 "/>
<path style=" stroke:none;fill-rule:nonzero;fill:rgb(25.098041%,73.725492%,47.843137%);fill-opacity:1;" d="M 47.191406 58.816406 C 43.082031 60.171875 40.109375 64.660156 39.167969 68.703125 C 38.410156 71.878906 39.375 76.609375 43.621094 75.769531 C 48.292969 74.847656 51.703125 69.503906 52.503906 65.121094 C 53.0625 62.085938 51.832031 58.535156 48.765625 58.535156 C 48.285156 58.535156 47.757812 58.617188 47.191406 58.816406 "/>
<path style=" stroke:none;fill-rule:nonzero;fill:rgb(25.098041%,73.725492%,47.843137%);fill-opacity:1;" d="M 148.652344 65.121094 C 149.453125 69.503906 152.871094 74.847656 157.542969 75.769531 C 161.78125 76.609375 162.746094 71.878906 162 68.703125 C 161.035156 64.660156 158.070312 60.171875 153.957031 58.816406 C 153.390625 58.617188 152.859375 58.542969 152.390625 58.542969 C 149.332031 58.535156 148.09375 62.085938 148.652344 65.121094 "/>
<path style=" stroke:none;fill-rule:nonzero;fill:rgb(25.098041%,73.725492%,47.843137%);fill-opacity:1;" d="M 52.789062 44.292969 C 49.265625 45.820312 46.011719 49.003906 44.460938 52.511719 C 43.1875 55.40625 44.574219 57.796875 47.832031 56.660156 C 51.785156 55.28125 55.628906 51.511719 57.027344 47.5625 C 57.882812 45.113281 56.6875 43.820312 54.855469 43.820312 C 54.230469 43.832031 53.515625 43.980469 52.789062 44.292969 "/>
<path style=" stroke:none;fill-rule:nonzero;fill:rgb(25.098041%,73.725492%,47.843137%);fill-opacity:1;" d="M 144.128906 47.574219 C 145.515625 51.53125 149.367188 55.292969 153.324219 56.667969 C 156.589844 57.808594 157.976562 55.421875 156.695312 52.519531 C 155.144531 49.003906 151.898438 45.820312 148.367188 44.292969 C 147.640625 43.980469 146.933594 43.832031 146.300781 43.832031 C 144.46875 43.832031 143.261719 45.121094 144.128906 47.574219 "/>
<path style=" stroke:none;fill-rule:nonzero;fill:rgb(25.098041%,73.725492%,47.843137%);fill-opacity:1;" d="M 69.203125 39.042969 C 65.179688 39.96875 60.640625 42.832031 59.273438 46.914062 C 57.855469 51.144531 62.246094 52.746094 65.691406 52.132812 C 70.03125 51.351562 75.449219 48.0625 76.355469 43.417969 C 77.027344 40.050781 74.074219 38.816406 71.261719 38.816406 C 70.550781 38.816406 69.84375 38.902344 69.203125 39.042969 "/>
<path style=" stroke:none;fill-rule:nonzero;fill:rgb(25.098041%,73.725492%,47.843137%);fill-opacity:1;" d="M 124.796875 43.417969 C 125.714844 48.0625 131.121094 51.351562 135.464844 52.132812 C 138.910156 52.757812 143.300781 51.152344 141.882812 46.921875 C 140.515625 42.84375 135.972656 39.96875 131.953125 39.054688 C 131.320312 38.910156 130.601562 38.828125 129.894531 38.828125 C 127.082031 38.816406 124.136719 40.042969 124.796875 43.417969 "/>
<path style=" stroke:none;fill-rule:nonzero;fill:rgb(25.098041%,73.725492%,47.843137%);fill-opacity:1;" d="M 89.582031 36.121094 C 85.578125 36.394531 79.972656 38.554688 79.1875 43.050781 C 78.339844 47.96875 84.625 49.789062 88.402344 49.589844 C 92.5625 49.363281 99.046875 46.882812 99.058594 41.863281 C 99.066406 37.601562 94.015625 36.101562 90.394531 36.101562 C 90.117188 36.101562 89.84375 36.113281 89.582031 36.121094 "/>
<path style=" stroke:none;fill-rule:nonzero;fill:rgb(25.098041%,73.725492%,47.843137%);fill-opacity:1;" d="M 102.097656 41.863281 C 102.105469 46.894531 108.589844 49.363281 112.753906 49.589844 C 116.53125 49.789062 122.804688 47.96875 121.957031 43.039062 C 121.171875 38.542969 115.574219 36.386719 111.5625 36.121094 C 111.300781 36.113281 111.035156 36.09375 110.753906 36.09375 C 107.136719 36.09375 102.085938 37.609375 102.097656 41.863281 "/>
<path style=" stroke:none;fill-rule:nonzero;fill:rgb(25.490198%,68.627453%,76.47059%);fill-opacity:1;" d="M 81.933594 168.007812 C 82.945312 171.148438 88.257812 171.929688 91.015625 172.136719 C 93.054688 172.289062 99.09375 172.402344 99.085938 169.261719 C 99.066406 165.710938 92.300781 164.75 89.75 164.578125 C 89.496094 164.558594 89.148438 164.542969 88.730469 164.542969 C 86.097656 164.542969 80.980469 165.050781 81.933594 168.007812 "/>
<path style=" stroke:none;fill-rule:nonzero;fill:rgb(25.490198%,68.627453%,76.47059%);fill-opacity:1;" d="M 111.386719 164.570312 C 108.847656 164.75 102.085938 165.71875 102.070312 169.242188 C 102.058594 172.390625 108.101562 172.289062 110.140625 172.136719 C 112.894531 171.929688 118.210938 171.148438 119.21875 168.007812 C 120.171875 165.058594 115.058594 164.542969 112.421875 164.542969 C 112.007812 164.542969 111.648438 164.558594 111.386719 164.570312 "/>
<path style=" stroke:none;fill-rule:nonzero;fill:rgb(25.490198%,68.627453%,76.47059%);fill-opacity:1;" d="M 64.433594 163.902344 C 66.210938 166.832031 70.335938 168.433594 73.488281 169.261719 C 74.855469 169.613281 80.566406 170.574219 79.480469 167.613281 C 78.234375 164.210938 72.949219 162.382812 69.75 161.636719 C 69.183594 161.507812 68.152344 161.367188 67.125 161.367188 C 65.171875 161.367188 63.21875 161.875 64.433594 163.902344 "/>
<path style=" stroke:none;fill-rule:nonzero;fill:rgb(25.490198%,68.627453%,76.47059%);fill-opacity:1;" d="M 131.40625 161.636719 C 128.207031 162.382812 122.917969 164.210938 121.675781 167.621094 C 120.597656 170.582031 126.300781 169.621094 127.667969 169.261719 C 130.828125 168.453125 134.953125 166.839844 136.71875 163.902344 C 137.9375 161.863281 135.972656 161.367188 134.019531 161.367188 C 133 161.367188 131.972656 161.515625 131.40625 161.636719 "/>
<path style=" stroke:none;fill-rule:nonzero;fill:rgb(25.490198%,68.627453%,76.47059%);fill-opacity:1;" d="M 50.871094 157.878906 C 52.863281 160.535156 55.929688 162.609375 58.902344 164.023438 C 60.148438 164.625 64.039062 165.765625 62.425781 163.203125 C 60.5 160.128906 56.808594 157.765625 53.5625 156.332031 C 52.855469 156.019531 52.003906 155.804688 51.34375 155.796875 C 50.296875 155.804688 49.730469 156.34375 50.871094 157.878906 "/>
<path style=" stroke:none;fill-rule:nonzero;fill:rgb(25.490198%,68.627453%,76.47059%);fill-opacity:1;" d="M 147.605469 156.34375 C 144.355469 157.785156 140.664062 160.140625 138.738281 163.195312 C 137.125 165.765625 141.015625 164.625 142.269531 164.023438 C 145.234375 162.609375 148.300781 160.527344 150.304688 157.867188 C 151.445312 156.34375 150.871094 155.8125 149.832031 155.804688 C 149.160156 155.804688 148.320312 156.03125 147.605469 156.34375 "/>
<path style=" stroke:none;fill-rule:nonzero;fill:rgb(25.490198%,68.627453%,76.47059%);fill-opacity:1;" d="M 35.078125 140.5 C 36.523438 143.46875 38.65625 146.492188 41.355469 148.472656 C 43.859375 150.308594 43.820312 147.792969 42.953125 145.890625 C 41.480469 142.636719 39.054688 139 35.964844 137.078125 C 35.511719 136.804688 35.183594 136.683594 34.929688 136.683594 C 33.71875 136.683594 34.550781 139.414062 35.078125 140.5 "/>
<path style=" stroke:none;fill-rule:nonzero;fill:rgb(25.490198%,68.627453%,76.47059%);fill-opacity:1;" d="M 165.199219 137.070312 C 162.101562 138.992188 159.6875 142.628906 158.203125 145.878906 C 157.355469 147.792969 157.308594 150.300781 159.808594 148.460938 C 162.5 146.492188 164.632812 143.46875 166.085938 140.5 C 166.613281 139.398438 167.445312 136.671875 166.238281 136.671875 C 165.980469 136.683594 165.652344 136.796875 165.199219 137.070312 "/>
<path style=" stroke:none;fill-rule:nonzero;fill:rgb(25.490198%,68.627453%,76.47059%);fill-opacity:1;" d="M 29.746094 126.097656 C 30.605469 129.273438 32.292969 133.382812 35.257812 135.144531 C 38.402344 137.011719 37.996094 131.613281 37.589844 129.925781 C 36.808594 126.664062 34.898438 121.460938 31.4375 120.179688 C 31.171875 120.078125 30.925781 120.039062 30.71875 120.039062 C 28.585938 120.039062 29.40625 124.816406 29.746094 126.097656 "/>
<path style=" stroke:none;fill-rule:nonzero;fill:rgb(25.490198%,68.627453%,76.47059%);fill-opacity:1;" d="M 169.71875 120.179688 C 166.265625 121.460938 164.347656 126.664062 163.566406 129.914062 C 163.160156 131.613281 162.746094 137.003906 165.898438 135.144531 C 168.871094 133.363281 170.550781 129.273438 171.410156 126.097656 C 171.757812 124.816406 172.578125 120.03125 170.445312 120.03125 C 170.230469 120.03125 169.992188 120.078125 169.71875 120.179688 "/>
<path style=" stroke:none;fill-rule:nonzero;fill:rgb(25.490198%,68.627453%,76.47059%);fill-opacity:1;" d="M 26.734375 108.644531 C 26.980469 111.480469 27.859375 116.75 31.050781 117.796875 C 34.542969 118.945312 34.683594 111.980469 34.53125 110.039062 C 34.332031 107.402344 33.265625 100.691406 29.652344 100.613281 L 29.585938 100.613281 C 26.441406 100.625 26.566406 106.597656 26.734375 108.644531 "/>
<path style=" stroke:none;fill-rule:nonzero;fill:rgb(25.490198%,68.627453%,76.47059%);fill-opacity:1;" d="M 171.511719 100.625 C 167.898438 100.699219 166.832031 107.410156 166.625 110.046875 C 166.480469 111.988281 166.625 118.953125 170.117188 117.804688 C 173.308594 116.757812 174.183594 111.492188 174.429688 108.652344 C 174.601562 106.617188 174.730469 100.632812 171.578125 100.632812 C 171.550781 100.625 171.523438 100.625 171.511719 100.625 "/>
<path style=" stroke:none;fill-rule:nonzero;fill:rgb(25.490198%,68.627453%,76.47059%);fill-opacity:1;" d="M 31.039062 81.398438 C 27.847656 82.445312 26.972656 87.710938 26.726562 90.550781 C 26.546875 92.601562 26.433594 98.644531 29.632812 98.578125 C 33.257812 98.503906 34.324219 91.800781 34.523438 89.164062 C 34.664062 87.363281 34.542969 81.277344 31.765625 81.277344 C 31.550781 81.265625 31.3125 81.304688 31.039062 81.398438 "/>
<path style=" stroke:none;fill-rule:nonzero;fill:rgb(25.490198%,68.627453%,76.47059%);fill-opacity:1;" d="M 166.632812 89.152344 C 166.832031 91.800781 167.898438 98.484375 171.511719 98.578125 C 174.722656 98.644531 174.601562 92.601562 174.421875 90.550781 C 174.175781 87.730469 173.308594 82.445312 170.105469 81.40625 C 169.851562 81.3125 169.605469 81.277344 169.371094 81.277344 C 166.59375 81.265625 166.492188 87.355469 166.632812 89.152344 "/>
<path style=" stroke:none;fill-rule:nonzero;fill:rgb(25.490198%,68.627453%,76.47059%);fill-opacity:1;" d="M 35.269531 64.054688 C 32.292969 65.828125 30.605469 69.929688 29.753906 73.113281 C 29.378906 74.507812 28.425781 80.132812 31.4375 79.023438 C 34.898438 77.75 36.808594 72.527344 37.589844 69.269531 C 37.9375 67.828125 38.289062 63.660156 36.417969 63.660156 C 36.097656 63.660156 35.722656 63.78125 35.269531 64.054688 "/>
<path style=" stroke:none;fill-rule:nonzero;fill:rgb(25.490198%,68.627453%,76.47059%);fill-opacity:1;" d="M 163.566406 69.269531 C 164.347656 72.527344 166.265625 77.730469 169.71875 79.003906 C 172.730469 80.132812 171.785156 74.507812 171.410156 73.105469 C 170.550781 69.9375 168.859375 65.835938 165.898438 64.066406 C 165.445312 63.78125 165.058594 63.667969 164.746094 63.667969 C 162.867188 63.667969 163.214844 67.828125 163.566406 69.269531 "/>
<path style=" stroke:none;fill-rule:nonzero;fill:rgb(25.490198%,68.627453%,76.47059%);fill-opacity:1;" d="M 41.347656 50.722656 C 38.65625 52.691406 36.523438 55.714844 35.078125 58.695312 C 34.4375 60.003906 33.363281 63.734375 35.964844 62.125 C 39.054688 60.210938 41.480469 56.574219 42.953125 53.3125 C 43.601562 51.871094 43.773438 50.089844 42.746094 50.089844 C 42.421875 50.089844 41.953125 50.269531 41.347656 50.722656 "/>
<path style=" stroke:none;fill-rule:nonzero;fill:rgb(25.490198%,68.627453%,76.47059%);fill-opacity:1;" d="M 158.203125 53.3125 C 159.675781 56.574219 162.101562 60.210938 165.199219 62.125 C 167.804688 63.746094 166.726562 60.003906 166.085938 58.695312 C 164.632812 55.714844 162.5 52.691406 159.808594 50.722656 C 159.203125 50.269531 158.742188 50.089844 158.402344 50.089844 C 157.382812 50.089844 157.5625 51.871094 158.203125 53.3125 "/>
<path style=" stroke:none;fill-rule:nonzero;fill:rgb(25.490198%,68.627453%,76.47059%);fill-opacity:1;" d="M 58.902344 35.160156 C 55.929688 36.574219 52.863281 38.667969 50.878906 41.316406 C 49.003906 43.832031 51.71875 43.660156 53.550781 42.851562 C 56.808594 41.410156 60.5 39.0625 62.425781 35.988281 C 63.1875 34.773438 62.71875 34.398438 61.867188 34.398438 C 60.933594 34.398438 59.546875 34.859375 58.902344 35.160156 "/>
<path style=" stroke:none;fill-rule:nonzero;fill:rgb(25.490198%,68.627453%,76.47059%);fill-opacity:1;" d="M 138.738281 36 C 140.675781 39.0625 144.355469 41.410156 147.605469 42.859375 C 149.445312 43.660156 152.164062 43.832031 150.285156 41.324219 C 148.300781 38.667969 145.234375 36.59375 142.25 35.171875 C 141.601562 34.859375 140.210938 34.40625 139.289062 34.40625 C 138.4375 34.398438 137.976562 34.773438 138.738281 36 "/>
<path style=" stroke:none;fill-rule:nonzero;fill:rgb(25.490198%,68.627453%,76.47059%);fill-opacity:1;" d="M 73.488281 29.929688 C 70.335938 30.75 66.199219 32.363281 64.433594 35.300781 C 62.574219 38.402344 68.125 37.941406 69.75 37.5625 C 72.949219 36.808594 78.234375 34.992188 79.492188 31.578125 C 80.085938 29.929688 78.585938 29.507812 76.90625 29.507812 C 75.554688 29.507812 74.089844 29.78125 73.488281 29.929688 "/>
<path style=" stroke:none;fill-rule:nonzero;fill:rgb(25.490198%,68.627453%,76.47059%);fill-opacity:1;" d="M 121.675781 31.570312 C 122.917969 34.992188 128.207031 36.808594 131.40625 37.554688 C 133.03125 37.949219 138.589844 38.394531 136.71875 35.292969 C 134.953125 32.363281 130.820312 30.75 127.667969 29.9375 C 127.0625 29.78125 125.601562 29.507812 124.261719 29.507812 C 122.570312 29.507812 121.078125 29.9375 121.675781 31.570312 "/>
<path style=" stroke:none;fill-rule:nonzero;fill:rgb(25.490198%,68.627453%,76.47059%);fill-opacity:1;" d="M 91.015625 27.066406 C 88.257812 27.273438 82.9375 28.054688 81.933594 31.191406 C 80.832031 34.613281 87.863281 34.753906 89.761719 34.632812 C 92.308594 34.453125 99.078125 33.484375 99.09375 29.949219 C 99.09375 27.460938 95.300781 27.007812 92.703125 27.007812 C 92.035156 27.007812 91.441406 27.027344 91.015625 27.066406 "/>
<path style=" stroke:none;fill-rule:nonzero;fill:rgb(25.490198%,68.627453%,76.47059%);fill-opacity:1;" d="M 102.070312 29.9375 C 102.085938 33.472656 108.847656 34.453125 111.386719 34.625 C 113.28125 34.746094 120.324219 34.605469 119.21875 31.183594 C 118.210938 28.054688 112.894531 27.273438 110.140625 27.054688 C 109.722656 27.019531 109.128906 27 108.457031 27 C 105.863281 27.007812 102.050781 27.441406 102.070312 29.9375 "/>
<path style=" stroke:none;fill-rule:nonzero;fill:rgb(32.156864%,68.627453%,90.196079%);fill-opacity:1;" d="M 84.617188 173.984375 C 85.210938 175.117188 90.308594 175.878906 92.335938 176.039062 C 92.78125 176.066406 94.082031 176.199219 95.433594 176.199219 L 95.5 176.199219 C 97.28125 176.199219 99.125 175.992188 99.113281 175.117188 C 99.105469 173.304688 92.542969 172.976562 91.195312 172.871094 C 90.988281 172.851562 90.421875 172.835938 89.695312 172.835938 C 87.5625 172.835938 84.117188 173.015625 84.617188 173.984375 "/>
<path style=" stroke:none;fill-rule:nonzero;fill:rgb(32.156864%,68.627453%,90.196079%);fill-opacity:1;" d="M 109.960938 172.871094 C 108.609375 172.976562 102.050781 173.296875 102.039062 175.125 C 102.03125 175.992188 103.871094 176.199219 105.65625 176.199219 L 105.710938 176.199219 C 107.070312 176.199219 108.363281 176.078125 108.816406 176.039062 C 110.847656 175.878906 115.945312 175.117188 116.53125 173.984375 C 117.039062 173.003906 113.585938 172.835938 111.449219 172.835938 C 110.734375 172.835938 110.167969 172.851562 109.960938 172.871094 "/>
<path style=" stroke:none;fill-rule:nonzero;fill:rgb(32.156864%,68.627453%,90.196079%);fill-opacity:1;" d="M 70.03125 170.46875 C 70.984375 171.796875 75.328125 173.175781 77.960938 173.796875 C 83.425781 175.097656 83.03125 173.890625 83.03125 173.890625 C 82.519531 172.75 77.046875 170.949219 74.527344 170.300781 C 74.042969 170.167969 72.0625 169.695312 70.84375 169.695312 C 70.070312 169.6875 69.617188 169.886719 70.03125 170.46875 "/>
<path style=" stroke:none;fill-rule:nonzero;fill:rgb(32.156864%,68.627453%,90.196079%);fill-opacity:1;" d="M 126.621094 170.289062 C 124.101562 170.941406 118.625 172.75 118.125 173.898438 C 118.125 173.898438 117.726562 175.085938 123.195312 173.804688 C 125.835938 173.175781 130.179688 171.796875 131.121094 170.46875 C 131.546875 169.886719 131.085938 169.695312 130.3125 169.695312 C 129.09375 169.695312 127.121094 170.15625 126.621094 170.289062 "/>
<path style=" stroke:none;fill-rule:nonzero;fill:rgb(32.156864%,68.627453%,90.196079%);fill-opacity:1;" d="M 57.167969 164.882812 C 59.453125 166.625 62.113281 167.914062 64.726562 169.027344 C 65.378906 169.300781 69.191406 170.582031 67.871094 169.527344 C 65.425781 167.566406 62.367188 166.238281 59.546875 165.003906 C 58.933594 164.738281 57.335938 164.15625 56.769531 164.15625 C 56.460938 164.15625 56.46875 164.34375 57.167969 164.882812 "/>
<path style=" stroke:none;fill-rule:nonzero;fill:rgb(32.156864%,68.627453%,90.196079%);fill-opacity:1;" d="M 141.609375 165.003906 C 138.777344 166.246094 135.71875 167.574219 133.273438 169.527344 C 131.972656 170.582031 135.777344 169.308594 136.425781 169.039062 C 139.03125 167.914062 141.695312 166.625 143.980469 164.882812 C 144.6875 164.34375 144.695312 164.15625 144.375 164.15625 C 143.808594 164.15625 142.214844 164.738281 141.609375 165.003906 "/>
<path style=" stroke:none;fill-rule:nonzero;fill:rgb(32.156864%,68.627453%,90.196079%);fill-opacity:1;" d="M 41.0625 151.195312 C 42.914062 153.589844 45.140625 155.796875 47.558594 157.625 C 49.058594 158.753906 50.378906 159.039062 48.898438 157.085938 C 46.867188 154.410156 44.347656 151.929688 41.660156 149.921875 C 41.046875 149.480469 40.640625 149.273438 40.414062 149.273438 C 39.929688 149.273438 40.261719 150.148438 41.0625 151.195312 "/>
<path style=" stroke:none;fill-rule:nonzero;fill:rgb(32.156864%,68.627453%,90.196079%);fill-opacity:1;" d="M 159.496094 149.933594 C 156.816406 151.921875 154.285156 154.417969 152.257812 157.097656 C 150.773438 159.039062 152.097656 158.746094 153.597656 157.605469 C 156.023438 155.785156 158.25 153.589844 160.089844 151.1875 C 160.902344 150.140625 161.222656 149.265625 160.742188 149.265625 C 160.527344 149.273438 160.121094 149.480469 159.496094 149.933594 "/>
<path style=" stroke:none;fill-rule:nonzero;fill:rgb(32.156864%,68.627453%,90.196079%);fill-opacity:1;" d="M 29.839844 134.675781 C 31.058594 137.226562 32.464844 139.820312 34.269531 141.988281 C 35.824219 143.875 34.542969 140.667969 34.070312 139.707031 C 32.71875 136.9375 31.265625 133.957031 29.238281 131.628906 C 29.066406 131.433594 28.953125 131.347656 28.886719 131.347656 C 28.5 131.347656 29.585938 134.128906 29.839844 134.675781 "/>
<path style=" stroke:none;fill-rule:nonzero;fill:rgb(32.156864%,68.627453%,90.196079%);fill-opacity:1;" d="M 171.917969 131.628906 C 169.898438 133.96875 168.4375 136.945312 167.085938 139.714844 C 166.625 140.667969 165.332031 143.882812 166.886719 142 C 168.699219 139.828125 170.097656 137.226562 171.316406 134.675781 C 171.589844 134.136719 172.65625 131.355469 172.269531 131.355469 C 172.203125 131.347656 172.089844 131.441406 171.917969 131.628906 "/>
<path style=" stroke:none;fill-rule:nonzero;fill:rgb(32.156864%,68.627453%,90.196079%);fill-opacity:1;" d="M 25.015625 122.355469 C 25.640625 124.929688 26.679688 128.21875 28.007812 129.539062 C 29.425781 130.933594 28.773438 126.53125 28.460938 125.15625 C 27.859375 122.527344 26.632812 118.34375 25.148438 117.445312 C 25.046875 117.382812 24.960938 117.351562 24.886719 117.351562 C 24.007812 117.34375 24.773438 121.320312 25.015625 122.355469 "/>
<path style=" stroke:none;fill-rule:nonzero;fill:rgb(32.156864%,68.627453%,90.196079%);fill-opacity:1;" d="M 175.996094 117.4375 C 174.515625 118.34375 173.277344 122.527344 172.683594 125.164062 C 172.371094 126.53125 171.722656 130.933594 173.136719 129.539062 C 174.476562 128.210938 175.515625 124.929688 176.128906 122.355469 C 176.382812 121.308594 177.148438 117.351562 176.261719 117.351562 C 176.1875 117.34375 176.109375 117.371094 175.996094 117.4375 "/>
<path style=" stroke:none;fill-rule:nonzero;fill:rgb(32.156864%,68.627453%,90.196079%);fill-opacity:1;" d="M 22.296875 104.902344 L 22.296875 105.035156 C 22.296875 105.78125 22.328125 106.449219 22.355469 106.890625 C 22.488281 109.144531 22.894531 113.355469 24.160156 114.167969 C 25.535156 115.0625 25.515625 109.5 25.433594 107.945312 C 25.328125 105.835938 24.828125 100.5 23.402344 100.464844 L 23.394531 100.453125 C 22.496094 100.453125 22.296875 102.914062 22.296875 104.902344 "/>
<path style=" stroke:none;fill-rule:nonzero;fill:rgb(32.156864%,68.627453%,90.196079%);fill-opacity:1;" d="M 177.761719 100.472656 C 176.347656 100.519531 175.847656 105.855469 175.734375 107.957031 C 175.65625 109.511719 175.628906 115.070312 177.015625 114.175781 C 178.28125 113.367188 178.675781 109.152344 178.808594 106.898438 C 178.902344 105.261719 179.015625 100.472656 177.78125 100.464844 L 177.761719 100.472656 "/>
<path style=" stroke:none;fill-rule:nonzero;fill:rgb(32.156864%,68.627453%,90.196079%);fill-opacity:1;" d="M 24.148438 85.015625 C 22.882812 85.835938 22.476562 90.039062 22.347656 92.300781 C 22.328125 92.753906 22.296875 93.433594 22.296875 94.195312 L 22.296875 94.253906 C 22.296875 96.261719 22.496094 98.757812 23.402344 98.738281 C 24.820312 98.683594 25.328125 93.347656 25.433594 91.246094 C 25.515625 89.804688 25.535156 84.933594 24.449219 84.933594 C 24.347656 84.921875 24.253906 84.949219 24.148438 85.015625 "/>
<path style=" stroke:none;fill-rule:nonzero;fill:rgb(32.156864%,68.627453%,90.196079%);fill-opacity:1;" d="M 175.734375 91.238281 C 175.835938 93.339844 176.347656 98.683594 177.753906 98.730469 C 179.015625 98.765625 178.902344 93.933594 178.808594 92.300781 C 178.675781 90.039062 178.273438 85.828125 177.015625 85.015625 C 176.914062 84.949219 176.816406 84.921875 176.734375 84.921875 C 175.621094 84.921875 175.65625 89.796875 175.734375 91.238281 "/>
<path style=" stroke:none;fill-rule:nonzero;fill:rgb(32.156864%,68.627453%,90.196079%);fill-opacity:1;" d="M 28.019531 69.664062 C 26.679688 70.992188 25.648438 74.261719 25.027344 76.847656 C 24.753906 77.976562 23.867188 82.539062 25.160156 81.753906 C 26.640625 80.859375 27.867188 76.667969 28.472656 74.035156 C 28.734375 72.851562 29.265625 69.390625 28.480469 69.390625 C 28.347656 69.390625 28.207031 69.476562 28.019531 69.664062 "/>
<path style=" stroke:none;fill-rule:nonzero;fill:rgb(32.156864%,68.627453%,90.196079%);fill-opacity:1;" d="M 172.683594 74.035156 C 173.277344 76.667969 174.515625 80.859375 175.996094 81.753906 C 177.28125 82.539062 176.402344 77.976562 176.128906 76.847656 C 175.515625 74.261719 174.476562 70.984375 173.136719 69.65625 C 172.949219 69.464844 172.796875 69.382812 172.675781 69.382812 C 171.890625 69.390625 172.417969 72.851562 172.683594 74.035156 "/>
<path style=" stroke:none;fill-rule:nonzero;fill:rgb(32.156864%,68.627453%,90.196079%);fill-opacity:1;" d="M 34.269531 57.203125 C 32.464844 59.390625 31.058594 61.972656 29.839844 64.527344 C 29.53125 65.167969 28.105469 68.871094 29.238281 67.570312 C 31.265625 65.226562 32.71875 62.246094 34.070312 59.484375 C 34.4375 58.742188 35.296875 56.621094 34.917969 56.621094 C 34.816406 56.628906 34.605469 56.789062 34.269531 57.203125 "/>
<path style=" stroke:none;fill-rule:nonzero;fill:rgb(32.156864%,68.627453%,90.196079%);fill-opacity:1;" d="M 167.085938 59.484375 C 168.445312 62.246094 169.898438 65.226562 171.917969 67.5625 C 173.0625 68.871094 171.636719 65.160156 171.316406 64.519531 C 170.117188 61.964844 168.699219 59.382812 166.886719 57.195312 C 166.546875 56.78125 166.351562 56.609375 166.246094 56.609375 C 165.859375 56.628906 166.71875 58.742188 167.085938 59.484375 "/>
<path style=" stroke:none;fill-rule:nonzero;fill:rgb(32.156864%,68.627453%,90.196079%);fill-opacity:1;" d="M 47.558594 41.578125 C 45.140625 43.40625 42.90625 45.613281 41.0625 48.007812 C 39.875 49.550781 39.722656 50.703125 41.648438 49.269531 C 44.339844 47.269531 46.867188 44.773438 48.898438 42.105469 C 49.671875 41.097656 49.679688 40.683594 49.304688 40.683594 C 48.953125 40.691406 48.285156 41.03125 47.558594 41.578125 "/>
<path style=" stroke:none;fill-rule:nonzero;fill:rgb(32.156864%,68.627453%,90.196079%);fill-opacity:1;" d="M 152.257812 42.117188 C 154.285156 44.785156 156.808594 47.269531 159.496094 49.269531 C 161.441406 50.703125 161.28125 49.550781 160.089844 48.007812 C 158.242188 45.601562 156.015625 43.40625 153.597656 41.578125 C 152.878906 41.03125 152.199219 40.683594 151.851562 40.683594 C 151.484375 40.683594 151.492188 41.097656 152.257812 42.117188 "/>
<path style=" stroke:none;fill-rule:nonzero;fill:rgb(32.156864%,68.627453%,90.196079%);fill-opacity:1;" d="M 64.726562 30.164062 C 62.113281 31.277344 59.453125 32.578125 57.167969 34.320312 C 55.214844 35.8125 58.59375 34.613281 59.546875 34.199219 C 62.367188 32.957031 65.425781 31.636719 67.871094 29.675781 C 68.25 29.363281 68.203125 29.269531 67.9375 29.269531 C 67.277344 29.25 65.191406 29.957031 64.726562 30.164062 "/>
<path style=" stroke:none;fill-rule:nonzero;fill:rgb(32.156864%,68.627453%,90.196079%);fill-opacity:1;" d="M 133.285156 29.667969 C 135.71875 31.625 138.789062 32.957031 141.609375 34.191406 C 142.5625 34.605469 145.933594 35.800781 143.988281 34.3125 C 141.695312 32.570312 139.042969 31.269531 136.425781 30.15625 C 135.964844 29.957031 133.871094 29.25 133.207031 29.25 C 132.945312 29.261719 132.90625 29.363281 133.285156 29.667969 "/>
<path style=" stroke:none;fill-rule:nonzero;fill:rgb(32.156864%,68.627453%,90.196079%);fill-opacity:1;" d="M 77.972656 25.40625 C 75.335938 26.039062 70.984375 27.402344 70.042969 28.742188 C 68.945312 30.25 73.734375 29.121094 74.535156 28.914062 C 77.046875 28.253906 82.53125 26.441406 83.03125 25.3125 C 83.03125 25.3125 83.199219 24.804688 81.820312 24.804688 C 81.078125 24.8125 79.886719 24.953125 77.972656 25.40625 "/>
<path style=" stroke:none;fill-rule:nonzero;fill:rgb(32.156864%,68.627453%,90.196079%);fill-opacity:1;" d="M 118.125 25.3125 C 118.644531 26.441406 124.117188 28.253906 126.628906 28.902344 C 127.421875 29.121094 132.207031 30.25 131.121094 28.734375 C 130.167969 27.394531 125.828125 26.027344 123.183594 25.40625 C 121.277344 24.953125 120.078125 24.804688 119.332031 24.804688 C 117.953125 24.804688 118.125 25.3125 118.125 25.3125 "/>
<path style=" stroke:none;fill-rule:nonzero;fill:rgb(32.156864%,68.627453%,90.196079%);fill-opacity:1;" d="M 95.433594 23.003906 C 94.082031 23.003906 92.769531 23.125 92.335938 23.164062 C 90.308594 23.324219 85.210938 24.085938 84.617188 25.21875 C 83.9375 26.519531 90.363281 26.394531 91.195312 26.332031 C 92.542969 26.226562 99.105469 25.90625 99.105469 24.085938 C 99.113281 23.21875 97.273438 23.011719 95.488281 23.011719 L 95.433594 23.011719 L 95.433594 23.003906 "/>
<path style=" stroke:none;fill-rule:nonzero;fill:rgb(32.156864%,68.627453%,90.196079%);fill-opacity:1;" d="M 105.65625 23.003906 C 103.871094 23.003906 102.019531 23.210938 102.03125 24.078125 C 102.039062 25.894531 108.609375 26.21875 109.949219 26.320312 C 110.78125 26.378906 117.21875 26.507812 116.53125 25.207031 C 115.933594 24.078125 110.835938 23.3125 108.808594 23.152344 C 108.363281 23.117188 107.0625 22.992188 105.703125 22.992188 L 105.65625 22.992188 L 105.65625 23.003906 "/>
<path style=" stroke:none;fill-rule:nonzero;fill:rgb(100%,100%,100%);fill-opacity:1;" d="M 44.988281 215.910156 L 51.039062 215.910156 L 51.039062 243.421875 L 44.988281 243.421875 L 44.988281 215.910156 "/>
<path style=" stroke:none;fill-rule:nonzero;fill:rgb(100%,100%,100%);fill-opacity:1;" d="M 57.777344 215.910156 L 63.824219 215.910156 L 63.824219 243.421875 L 57.777344 243.421875 L 57.777344 215.910156 "/>
<path style=" stroke:none;fill-rule:nonzero;fill:rgb(100%,100%,100%);fill-opacity:1;" d="M 70.621094 230.371094 L 70.621094 230.292969 C 70.621094 222.464844 76.472656 216.050781 84.863281 216.050781 C 90.015625 216.050781 93.105469 217.78125 95.636719 220.296875 L 91.808594 224.742188 C 89.707031 222.8125 87.554688 221.636719 84.824219 221.636719 C 80.222656 221.636719 76.90625 225.496094 76.90625 230.21875 L 76.90625 230.292969 C 76.90625 235.015625 80.136719 238.953125 84.824219 238.953125 C 87.957031 238.953125 89.855469 237.695312 92.003906 235.726562 L 95.832031 239.621094 C 93.019531 242.65625 89.894531 244.539062 84.628906 244.539062 C 76.582031 244.539062 70.621094 238.289062 70.621094 230.371094 "/>
<path style=" stroke:none;fill-rule:nonzero;fill:rgb(100%,100%,100%);fill-opacity:1;" d="M 101.195312 216.519531 L 113.6875 216.519531 C 117.15625 216.519531 119.847656 217.503906 121.648438 219.308594 C 123.167969 220.84375 123.988281 223.011719 123.988281 225.609375 L 123.988281 225.6875 C 123.988281 230.140625 121.605469 232.929688 118.136719 234.230469 L 124.808594 244.066406 L 117.789062 244.066406 L 111.929688 235.253906 L 107.210938 235.253906 L 107.210938 244.066406 L 101.195312 244.066406 Z M 113.292969 229.898438 C 116.226562 229.898438 117.898438 228.335938 117.898438 226.007812 L 117.898438 225.925781 C 117.898438 223.328125 116.101562 221.988281 113.175781 221.988281 L 107.210938 221.988281 L 107.210938 229.894531 L 113.292969 229.894531 L 113.292969 229.898438 "/>
<path style=" stroke:none;fill-rule:nonzero;fill:rgb(100%,100%,100%);fill-opacity:1;" d="M 130.191406 230.371094 L 130.191406 230.292969 C 130.191406 222.464844 136.046875 216.050781 144.449219 216.050781 C 149.597656 216.050781 152.671875 217.78125 155.210938 220.296875 L 151.382812 224.742188 C 149.28125 222.8125 147.125 221.636719 144.40625 221.636719 C 139.796875 221.636719 136.476562 225.496094 136.476562 230.21875 L 136.476562 230.292969 C 136.476562 235.015625 139.71875 238.953125 144.40625 238.953125 C 147.523438 238.953125 149.4375 237.695312 151.582031 235.726562 L 155.410156 239.621094 C 152.597656 242.65625 149.480469 244.539062 144.203125 244.539062 C 136.164062 244.539062 130.191406 238.289062 130.191406 230.371094 "/>
<path style=" stroke:none;fill-rule:nonzero;fill:rgb(100%,100%,100%);fill-opacity:1;" d="M 65.464844 266.742188 C 67.390625 266.742188 69.265625 266.863281 71.117188 266.703125 C 72.535156 266.582031 73.382812 265.382812 73.414062 263.972656 C 73.449219 262.46875 72.785156 261.34375 71.269531 261.171875 C 69.359375 260.957031 67.40625 261.121094 65.398438 261.121094 C 65.398438 262.777344 65.398438 264.417969 65.402344 266.058594 C 65.402344 266.261719 65.4375 266.460938 65.464844 266.742188 Z M 65.382812 270.96875 C 65.382812 273.265625 65.382812 275.402344 65.382812 277.597656 C 63.832031 277.597656 62.421875 277.597656 60.894531 277.597656 C 60.894531 270.6875 60.894531 263.785156 60.894531 256.921875 C 64.8125 256.921875 68.714844 256.6875 72.574219 256.996094 C 75.65625 257.242188 77.570312 259.46875 77.992188 262.324219 C 78.503906 265.796875 77.328125 268.300781 74.445312 269.871094 C 74.261719 269.96875 74.078125 270.070312 73.757812 270.246094 C 75.382812 272.660156 76.988281 275.042969 78.746094 277.65625 C 76.914062 277.65625 75.34375 277.699219 73.777344 277.621094 C 73.457031 277.609375 73.082031 277.214844 72.867188 276.898438 C 71.808594 275.375 70.734375 273.855469 69.789062 272.261719 C 69.203125 271.277344 68.523438 270.792969 67.371094 270.953125 C 66.765625 271.039062 66.136719 270.96875 65.382812 270.96875 "/>
<path style=" stroke:none;fill-rule:nonzero;fill:rgb(100%,100%,100%);fill-opacity:1;" d="M 168.625 273.394531 C 170.140625 273.394531 171.523438 273.472656 172.890625 273.378906 C 175.667969 273.191406 177.871094 271.03125 178.1875 268.3125 C 178.574219 264.9375 177.136719 262.089844 174.300781 261.351562 C 172.492188 260.878906 170.542969 260.960938 168.625 260.792969 C 168.625 265.164062 168.625 269.210938 168.625 273.394531 Z M 164.042969 256.5625 C 167.867188 256.75 171.601562 256.554688 175.191406 257.195312 C 180.183594 258.082031 183.289062 262.492188 183.09375 267.476562 C 182.886719 272.710938 179.417969 276.855469 174.265625 277.402344 C 170.921875 277.761719 167.511719 277.46875 164.042969 277.46875 C 164.042969 270.65625 164.042969 263.789062 164.042969 256.5625 "/>
<path style=" stroke:none;fill-rule:nonzero;fill:rgb(100%,100%,100%);fill-opacity:1;" d="M 159.429688 277.59375 C 154.195312 277.59375 149.046875 277.59375 143.789062 277.59375 C 143.789062 270.691406 143.789062 263.78125 143.789062 256.804688 C 148.921875 256.804688 154.027344 256.804688 159.238281 256.804688 C 159.238281 258.105469 159.238281 259.398438 159.238281 260.859375 C 155.640625 260.859375 152.019531 260.859375 148.328125 260.859375 C 148.328125 262.320312 148.328125 263.605469 148.328125 265.03125 C 151.5625 265.03125 154.730469 265.03125 157.964844 265.03125 C 157.964844 266.457031 157.964844 267.746094 157.964844 269.183594 C 154.75 269.183594 151.582031 269.183594 148.335938 269.183594 C 148.335938 270.660156 148.335938 271.992188 148.335938 273.5 C 152.015625 273.5 155.6875 273.5 159.429688 273.5 C 159.429688 274.925781 159.429688 276.179688 159.429688 277.59375 "/>
<path style=" stroke:none;fill-rule:nonzero;fill:rgb(100%,100%,100%);fill-opacity:1;" d="M 40.386719 256.808594 C 45.605469 256.808594 50.667969 256.808594 55.820312 256.808594 C 55.820312 258.164062 55.820312 259.445312 55.820312 260.863281 C 52.171875 260.863281 48.582031 260.863281 44.910156 260.863281 C 44.910156 262.285156 44.910156 263.578125 44.910156 265.027344 C 48.105469 265.027344 51.269531 265.027344 54.496094 265.027344 C 54.496094 266.46875 54.496094 267.753906 54.496094 269.164062 C 51.296875 269.164062 48.167969 269.164062 44.933594 269.164062 C 44.933594 270.609375 44.933594 271.941406 44.933594 273.4375 C 48.5625 273.4375 52.226562 273.4375 55.984375 273.4375 C 55.984375 274.890625 55.984375 276.179688 55.984375 277.566406 C 50.820312 277.566406 45.648438 277.566406 40.386719 277.566406 C 40.386719 270.648438 40.386719 263.78125 40.386719 256.808594 "/>
<path style=" stroke:none;fill-rule:nonzero;fill:rgb(100%,100%,100%);fill-opacity:1;" d="M 17.441406 249.640625 C 17.097656 248.691406 17.363281 248.273438 18.304688 248.347656 C 18.554688 248.367188 18.808594 248.351562 19.0625 248.351562 C 72.769531 248.351562 126.480469 248.351562 180.191406 248.351562 C 180.804688 248.351562 181.421875 248.351562 182.089844 248.351562 C 182.089844 248.875 182.089844 249.226562 182.089844 249.640625 C 127.183594 249.640625 72.355469 249.640625 17.441406 249.640625 "/>
<path style=" stroke:none;fill-rule:nonzero;fill:rgb(100%,100%,100%);fill-opacity:1;" d="M 36.441406 274.046875 C 32.835938 278.425781 25.367188 278.976562 21.058594 275.078125 C 16.496094 270.953125 16.226562 263.5625 20.480469 259.164062 C 24.589844 254.910156 32.277344 254.921875 36.453125 259.292969 C 35.519531 260.386719 34.578125 261.492188 33.574219 262.667969 C 31.71875 261.066406 29.707031 259.824219 27.273438 260.464844 C 26.050781 260.785156 24.746094 261.5 23.890625 262.421875 C 21.613281 264.878906 21.777344 269.054688 24.015625 271.464844 C 26.488281 274.128906 29.542969 273.992188 33.640625 271.050781 C 34.550781 272.027344 35.460938 273 36.441406 274.046875 "/>
<path style=" stroke:none;fill-rule:nonzero;fill:rgb(100%,100%,100%);fill-opacity:1;" d="M 117.035156 269.53125 C 117.035156 272.320312 117.035156 274.894531 117.035156 277.5625 C 115.507812 277.5625 114.066406 277.5625 112.539062 277.5625 C 112.539062 270.6875 112.539062 263.8125 112.539062 256.835938 C 117.714844 256.835938 122.890625 256.835938 128.171875 256.835938 C 128.171875 258.164062 128.171875 259.484375 128.171875 260.898438 C 124.5 260.898438 120.863281 260.898438 117.128906 260.898438 C 117.128906 262.359375 117.128906 263.726562 117.128906 265.292969 C 118.363281 265.292969 119.601562 265.292969 120.839844 265.292969 C 122.5625 265.292969 124.28125 265.308594 126 265.285156 C 126.601562 265.277344 126.957031 265.414062 126.9375 266.117188 C 126.90625 267.210938 126.929688 268.308594 126.929688 269.53125 C 123.632812 269.53125 120.421875 269.53125 117.035156 269.53125 "/>
<path style=" stroke:none;fill-rule:nonzero;fill:rgb(100%,100%,100%);fill-opacity:1;" d="M 91.800781 277.59375 C 90.195312 277.59375 88.785156 277.59375 87.140625 277.59375 C 87.140625 274.84375 87.140625 272.117188 87.140625 269.390625 C 87.140625 266.644531 87.140625 263.902344 87.140625 261.019531 C 85.035156 261.019531 83.046875 261.019531 80.953125 261.019531 C 80.953125 259.566406 80.953125 258.246094 80.953125 256.832031 C 86.617188 256.832031 92.253906 256.832031 97.972656 256.832031 C 97.972656 258.167969 97.972656 259.460938 97.972656 260.929688 C 95.957031 260.929688 93.933594 260.929688 91.800781 260.929688 C 91.800781 266.546875 91.800781 271.992188 91.800781 277.59375 "/>
<path style=" stroke:none;fill-rule:nonzero;fill:rgb(100%,100%,100%);fill-opacity:1;" d="M 133.886719 256.808594 C 135.445312 256.808594 136.855469 256.808594 138.328125 256.808594 C 138.328125 263.757812 138.328125 270.632812 138.328125 277.585938 C 136.839844 277.585938 135.398438 277.585938 133.886719 277.585938 C 133.886719 270.648438 133.886719 263.773438 133.886719 256.808594 "/>
<path style=" stroke:none;fill-rule:nonzero;fill:rgb(100%,100%,100%);fill-opacity:1;" d="M 102.660156 256.808594 C 104.210938 256.808594 105.621094 256.808594 107.097656 256.808594 C 107.097656 263.753906 107.097656 270.628906 107.097656 277.582031 C 105.613281 277.582031 104.171875 277.582031 102.660156 277.582031 C 102.660156 270.648438 102.660156 263.777344 102.660156 256.808594 "/>
</g>
</svg>
