<?xml version="1.0" encoding="UTF-8"?>
<svg xmlns="http://www.w3.org/2000/svg" xmlns:xlink="http://www.w3.org/1999/xlink" width="200px" height="299px" viewBox="0 0 200 298" version="1.1">
<g id="surface1">
<path style=" stroke:none;fill-rule:nonzero;fill:rgb(100%,100%,100%);fill-opacity:1;" d="M 182.75 296.859375 L 17.410156 296.859375 C 8.300781 296.859375 0.917969 289.496094 0.917969 280.417969 L 0.917969 17.355469 C 0.917969 8.273438 8.300781 0.914062 17.410156 0.914062 L 182.75 0.914062 C 191.859375 0.914062 199.246094 8.273438 199.246094 17.355469 L 199.246094 280.417969 C 199.246094 289.496094 191.859375 296.859375 182.75 296.859375 "/>
<path style=" stroke:none;fill-rule:nonzero;fill:rgb(13.725491%,12.156863%,12.54902%);fill-opacity:1;" d="M 182.578125 296.859375 L 17.582031 296.859375 C 8.378906 296.859375 0.917969 289.421875 0.917969 280.246094 L 0.917969 195.1875 L 199.246094 195.1875 L 199.246094 280.246094 C 199.246094 289.421875 191.78125 296.859375 182.578125 296.859375 "/>
<path style="fill:none;stroke-width:20;stroke-linecap:butt;stroke-linejoin:miter;stroke:rgb(13.725491%,12.156863%,12.54902%);stroke-opacity:1;stroke-miterlimit:10;" d="M 1994.259464 9.987471 L 189.988339 9.987471 C 90.582279 9.987471 10.017334 90.600579 10.017334 189.987774 L 10.017334 3069.992622 C 10.017334 3169.422583 90.582279 3249.992925 189.988339 3249.992925 L 1994.259464 3249.992925 C 2093.665523 3249.992925 2174.273095 3169.422583 2174.273095 3069.992622 L 2174.273095 189.987774 C 2174.273095 90.600579 2093.665523 9.987471 1994.259464 9.987471 Z M 1994.259464 9.987471 " transform="matrix(0.091638,0,0,-0.091341,0,297.771641)"/>
<path style=" stroke:none;fill-rule:nonzero;fill:rgb(47.843137%,80.000001%,28.627452%);fill-opacity:1;" d="M 76.464844 136.484375 C 76.964844 142.0625 82.484375 145.957031 87.800781 146.21875 C 93.023438 146.472656 98.546875 142.980469 98.535156 137.351562 C 98.535156 131.34375 92.5625 127.027344 86.917969 126.859375 L 86.597656 126.859375 C 81.292969 126.847656 75.96875 130.753906 76.464844 136.484375 "/>
<path style=" stroke:none;fill-rule:nonzero;fill:rgb(47.843137%,80.000001%,28.627452%);fill-opacity:1;" d="M 113.234375 126.847656 C 107.601562 127.027344 101.625 131.332031 101.625 137.34375 C 101.625 142.980469 107.140625 146.460938 112.363281 146.210938 C 117.679688 145.949219 123.191406 142.050781 123.699219 136.472656 C 124.195312 130.742188 118.871094 126.839844 113.554688 126.839844 C 113.441406 126.847656 113.339844 126.847656 113.234375 126.847656 "/>
<path style=" stroke:none;fill-rule:nonzero;fill:rgb(47.843137%,80.000001%,28.627452%);fill-opacity:1;" d="M 54.65625 133.65625 C 55.519531 138.605469 59.953125 142.933594 64.914062 143.773438 C 69.710938 144.589844 73.855469 141.144531 73.355469 136.203125 C 72.800781 130.773438 67.789062 125.867188 62.359375 125.3125 C 62.078125 125.285156 61.792969 125.277344 61.53125 125.277344 C 57.023438 125.285156 53.867188 129.097656 54.65625 133.65625 "/>
<path style=" stroke:none;fill-rule:nonzero;fill:rgb(47.843137%,80.000001%,28.627452%);fill-opacity:1;" d="M 137.816406 125.324219 C 132.367188 125.875 127.359375 130.78125 126.808594 136.210938 C 126.308594 141.152344 130.453125 144.597656 135.25 143.785156 C 140.199219 142.941406 144.632812 138.617188 145.5 133.664062 C 146.285156 129.105469 143.140625 125.285156 138.632812 125.285156 C 138.367188 125.285156 138.097656 125.296875 137.816406 125.324219 "/>
<path style=" stroke:none;fill-rule:nonzero;fill:rgb(47.843137%,80.000001%,28.627452%);fill-opacity:1;" d="M 52.148438 110.992188 C 52.441406 116.355469 56.449219 121.8125 62.078125 122.308594 C 67.9375 122.832031 71.976562 117.394531 71.808594 111.945312 C 71.628906 106.273438 67.1875 100.363281 61.128906 100.328125 L 61.070312 100.328125 C 55.425781 100.328125 51.859375 105.765625 52.148438 110.992188 "/>
<path style=" stroke:none;fill-rule:nonzero;fill:rgb(47.843137%,80.000001%,28.627452%);fill-opacity:1;" d="M 139.035156 100.328125 C 132.96875 100.363281 128.527344 106.273438 128.355469 111.945312 C 128.1875 117.394531 132.226562 122.832031 138.085938 122.308594 C 143.714844 121.8125 147.722656 116.355469 148.015625 110.992188 C 148.296875 105.757812 144.726562 100.328125 139.082031 100.328125 L 139.035156 100.328125 "/>
<path style=" stroke:none;fill-rule:nonzero;fill:rgb(47.843137%,80.000001%,28.627452%);fill-opacity:1;" d="M 62.078125 75.554688 C 56.449219 76.0625 52.441406 81.519531 52.148438 86.867188 C 51.859375 92.117188 55.445312 97.585938 61.128906 97.546875 C 67.1875 97.519531 71.628906 91.613281 71.808594 85.917969 C 71.964844 80.714844 68.292969 75.519531 62.855469 75.519531 C 62.59375 75.519531 62.339844 75.527344 62.078125 75.554688 "/>
<path style=" stroke:none;fill-rule:nonzero;fill:rgb(47.843137%,80.000001%,28.627452%);fill-opacity:1;" d="M 128.355469 85.929688 C 128.535156 91.613281 132.976562 97.519531 139.035156 97.558594 C 144.710938 97.59375 148.296875 92.125 148.015625 86.875 C 147.722656 81.527344 143.714844 76.070312 138.085938 75.566406 C 137.832031 75.539062 137.5625 75.527344 137.308594 75.527344 C 131.871094 75.519531 128.1875 80.714844 128.355469 85.929688 "/>
<path style=" stroke:none;fill-rule:nonzero;fill:rgb(47.843137%,80.000001%,28.627452%);fill-opacity:1;" d="M 64.914062 54.089844 C 59.953125 54.933594 55.519531 59.277344 54.65625 64.210938 C 53.8125 69.039062 57.410156 73.054688 62.347656 72.550781 C 67.777344 72 72.792969 67.09375 73.347656 61.664062 C 73.789062 57.207031 70.472656 53.96875 66.304688 53.96875 C 65.851562 53.96875 65.382812 54.003906 64.914062 54.089844 "/>
<path style=" stroke:none;fill-rule:nonzero;fill:rgb(47.843137%,80.000001%,28.627452%);fill-opacity:1;" d="M 126.808594 61.664062 C 127.359375 67.09375 132.375 72 137.816406 72.550781 C 142.746094 73.054688 146.34375 69.039062 145.5 64.210938 C 144.632812 59.277344 140.199219 54.933594 135.25 54.089844 C 134.773438 54.003906 134.3125 53.96875 133.851562 53.96875 C 129.679688 53.96875 126.355469 57.21875 126.808594 61.664062 "/>
<path style=" stroke:none;fill-rule:nonzero;fill:rgb(47.843137%,80.000001%,28.627452%);fill-opacity:1;" d="M 87.800781 51.65625 C 82.484375 51.917969 76.964844 55.8125 76.464844 61.402344 C 75.957031 67.234375 81.507812 71.175781 86.917969 71.015625 C 92.5625 70.847656 98.527344 66.53125 98.535156 60.523438 C 98.546875 55.082031 93.390625 51.636719 88.335938 51.636719 C 88.167969 51.636719 87.988281 51.636719 87.800781 51.65625 "/>
<path style=" stroke:none;fill-rule:nonzero;fill:rgb(47.843137%,80.000001%,28.627452%);fill-opacity:1;" d="M 101.617188 60.523438 C 101.617188 66.53125 107.589844 70.847656 113.226562 71.015625 C 118.644531 71.175781 124.1875 67.234375 123.6875 61.402344 C 123.183594 55.820312 117.667969 51.917969 112.351562 51.65625 C 112.175781 51.648438 111.984375 51.648438 111.816406 51.648438 C 106.773438 51.636719 101.617188 55.082031 101.617188 60.523438 "/>
<path style=" stroke:none;fill-rule:nonzero;fill:rgb(60.784316%,83.137256%,12.941177%);fill-opacity:1;" d="M 75.101562 112.046875 C 75.273438 118.273438 80.597656 123.535156 86.835938 123.683594 C 93.128906 123.855469 98.527344 118.675781 98.527344 112.375 C 98.527344 105.933594 92.96875 100.449219 86.515625 100.421875 L 86.496094 100.421875 C 80.183594 100.410156 74.933594 105.757812 75.101562 112.046875 "/>
<path style=" stroke:none;fill-rule:nonzero;fill:rgb(60.784316%,83.137256%,12.941177%);fill-opacity:1;" d="M 113.648438 100.410156 C 107.1875 100.429688 101.636719 105.925781 101.636719 112.367188 C 101.636719 118.667969 107.027344 123.84375 113.320312 123.675781 C 119.554688 123.515625 124.871094 118.265625 125.058594 112.046875 C 125.230469 105.75 119.980469 100.410156 113.675781 100.410156 L 113.648438 100.410156 "/>
<path style=" stroke:none;fill-rule:nonzero;fill:rgb(60.784316%,83.137256%,12.941177%);fill-opacity:1;" d="M 86.835938 74.179688 C 80.597656 74.347656 75.28125 79.601562 75.101562 85.816406 C 74.925781 92.117188 80.195312 97.453125 86.503906 97.453125 C 92.96875 97.445312 98.519531 91.9375 98.519531 85.488281 C 98.519531 79.292969 93.285156 74.179688 87.117188 74.179688 L 86.835938 74.179688 "/>
<path style=" stroke:none;fill-rule:nonzero;fill:rgb(60.784316%,83.137256%,12.941177%);fill-opacity:1;" d="M 101.636719 85.5 C 101.636719 91.9375 107.195312 97.445312 113.648438 97.453125 C 119.960938 97.453125 125.230469 92.117188 125.058594 85.816406 C 124.882812 79.601562 119.566406 74.347656 113.328125 74.179688 L 113.046875 74.179688 C 106.867188 74.179688 101.625 79.292969 101.636719 85.5 "/>
<path style=" stroke:none;fill-rule:nonzero;fill:rgb(25.098041%,73.725492%,47.843137%);fill-opacity:1;" d="M 78.792969 155.113281 C 79.574219 159.597656 85.152344 161.722656 89.144531 161.992188 C 92.742188 162.226562 98.574219 160.839844 98.566406 156.292969 C 98.554688 151.285156 92.105469 148.839844 87.953125 148.617188 C 87.773438 148.617188 87.585938 148.605469 87.398438 148.605469 C 83.613281 148.597656 77.996094 150.460938 78.792969 155.113281 "/>
<path style=" stroke:none;fill-rule:nonzero;fill:rgb(25.098041%,73.725492%,47.843137%);fill-opacity:1;" d="M 112.203125 148.605469 C 108.058594 148.832031 101.609375 151.285156 101.597656 156.28125 C 101.589844 160.832031 107.421875 162.21875 111.027344 161.984375 C 115 161.710938 120.589844 159.585938 121.367188 155.101562 C 122.175781 150.449219 116.550781 148.585938 112.765625 148.585938 C 112.570312 148.597656 112.382812 148.605469 112.203125 148.605469 "/>
<path style=" stroke:none;fill-rule:nonzero;fill:rgb(25.098041%,73.725492%,47.843137%);fill-opacity:1;" d="M 58.976562 151.265625 C 60.339844 155.316406 64.855469 158.164062 68.859375 159.089844 C 71.964844 159.792969 76.804688 158.941406 75.984375 154.738281 C 75.074219 150.121094 69.683594 146.847656 65.375 146.070312 C 64.894531 145.992188 64.414062 145.949219 63.925781 145.949219 C 60.847656 145.957031 57.757812 147.640625 58.976562 151.265625 "/>
<path style=" stroke:none;fill-rule:nonzero;fill:rgb(25.098041%,73.725492%,47.843137%);fill-opacity:1;" d="M 134.789062 146.089844 C 130.46875 146.855469 125.078125 150.132812 124.179688 154.738281 C 123.351562 158.941406 128.1875 159.792969 131.296875 159.070312 C 135.296875 158.164062 139.824219 155.308594 141.175781 151.265625 C 142.398438 147.640625 139.308594 145.957031 136.238281 145.957031 C 135.75 145.957031 135.261719 145.992188 134.789062 146.089844 "/>
<path style=" stroke:none;fill-rule:nonzero;fill:rgb(25.098041%,73.725492%,47.843137%);fill-opacity:1;" d="M 44.242188 145.695312 C 45.789062 149.195312 49.011719 152.359375 52.515625 153.867188 C 55.332031 155.09375 57.898438 153.894531 56.742188 150.609375 C 55.351562 146.6875 51.527344 142.953125 47.59375 141.59375 C 47.019531 141.398438 46.511719 141.292969 46.070312 141.292969 C 43.949219 141.304688 43.199219 143.324219 44.242188 145.695312 "/>
<path style=" stroke:none;fill-rule:nonzero;fill:rgb(25.098041%,73.725492%,47.843137%);fill-opacity:1;" d="M 152.5625 141.585938 C 148.636719 142.953125 144.792969 146.6875 143.414062 150.609375 C 142.246094 153.894531 144.8125 155.09375 147.628906 153.867188 C 151.140625 152.351562 154.382812 149.1875 155.914062 145.695312 C 156.964844 143.324219 156.207031 141.292969 154.082031 141.292969 C 153.632812 141.304688 153.113281 141.386719 152.5625 141.585938 "/>
<path style=" stroke:none;fill-rule:nonzero;fill:rgb(25.098041%,73.725492%,47.843137%);fill-opacity:1;" d="M 38.960938 129.621094 C 39.921875 133.644531 42.871094 138.101562 46.957031 139.449219 C 51.144531 140.828125 52.882812 136.667969 52.234375 133.167969 C 51.433594 128.824219 48.042969 123.535156 43.394531 122.597656 C 43.058594 122.542969 42.738281 122.515625 42.4375 122.515625 C 39.039062 122.515625 38.285156 126.71875 38.960938 129.621094 "/>
<path style=" stroke:none;fill-rule:nonzero;fill:rgb(25.098041%,73.725492%,47.843137%);fill-opacity:1;" d="M 156.757812 122.597656 C 152.109375 123.527344 148.71875 128.816406 147.910156 133.179688 C 147.273438 136.679688 149.011719 140.835938 153.191406 139.449219 C 157.285156 138.082031 160.234375 133.644531 161.183594 129.621094 C 161.867188 126.71875 161.117188 122.515625 157.699219 122.515625 C 157.40625 122.515625 157.085938 122.542969 156.757812 122.597656 "/>
<path style=" stroke:none;fill-rule:nonzero;fill:rgb(25.098041%,73.725492%,47.843137%);fill-opacity:1;" d="M 35.949219 109.511719 C 36.238281 113.566406 38.5 119.097656 43.039062 119.882812 C 47.96875 120.753906 49.855469 114.632812 49.632812 110.8125 C 49.386719 106.589844 46.796875 100.195312 41.722656 100.148438 L 41.65625 100.148438 C 37.09375 100.160156 35.664062 105.886719 35.949219 109.511719 "/>
<path style=" stroke:none;fill-rule:nonzero;fill:rgb(25.098041%,73.725492%,47.843137%);fill-opacity:1;" d="M 158.441406 100.160156 C 153.367188 100.226562 150.777344 106.597656 150.53125 110.820312 C 150.316406 114.640625 152.183594 120.765625 157.132812 119.894531 C 161.660156 119.105469 163.933594 113.566406 164.214844 109.53125 C 164.488281 105.898438 163.0625 100.167969 158.507812 100.167969 L 158.441406 100.167969 L 158.441406 100.160156 "/>
<path style=" stroke:none;fill-rule:nonzero;fill:rgb(25.098041%,73.725492%,47.843137%);fill-opacity:1;" d="M 43.027344 77.972656 C 38.5 78.777344 36.238281 84.308594 35.949219 88.355469 C 35.675781 92.003906 37.101562 97.78125 41.722656 97.714844 C 46.796875 97.660156 49.378906 91.265625 49.632812 87.042969 C 49.839844 83.484375 48.214844 77.886719 43.960938 77.886719 C 43.667969 77.886719 43.359375 77.914062 43.027344 77.972656 "/>
<path style=" stroke:none;fill-rule:nonzero;fill:rgb(25.098041%,73.725492%,47.843137%);fill-opacity:1;" d="M 150.53125 87.042969 C 150.765625 91.273438 153.367188 97.660156 158.441406 97.714844 C 163.0625 97.769531 164.488281 92.003906 164.214844 88.355469 C 163.925781 84.308594 161.660156 78.777344 157.132812 77.980469 C 156.804688 77.925781 156.503906 77.898438 156.214844 77.898438 C 151.949219 77.886719 150.324219 83.484375 150.53125 87.042969 "/>
<path style=" stroke:none;fill-rule:nonzero;fill:rgb(25.098041%,73.725492%,47.843137%);fill-opacity:1;" d="M 46.957031 58.425781 C 42.871094 59.773438 39.910156 64.226562 38.972656 68.246094 C 38.21875 71.398438 39.179688 76.097656 43.40625 75.265625 C 48.054688 74.347656 51.445312 69.039062 52.242188 64.6875 C 52.796875 61.671875 51.574219 58.144531 48.523438 58.144531 C 48.042969 58.144531 47.519531 58.226562 46.957031 58.425781 "/>
<path style=" stroke:none;fill-rule:nonzero;fill:rgb(25.098041%,73.725492%,47.843137%);fill-opacity:1;" d="M 147.910156 64.6875 C 148.710938 69.039062 152.109375 74.347656 156.757812 75.265625 C 160.976562 76.097656 161.933594 71.398438 161.191406 68.246094 C 160.234375 64.226562 157.285156 59.773438 153.191406 58.425781 C 152.625 58.226562 152.101562 58.152344 151.628906 58.152344 C 148.589844 58.144531 147.359375 61.671875 147.910156 64.6875 "/>
<path style=" stroke:none;fill-rule:nonzero;fill:rgb(25.098041%,73.725492%,47.843137%);fill-opacity:1;" d="M 52.523438 44 C 49.019531 45.515625 45.78125 48.679688 44.242188 52.160156 C 42.972656 55.035156 44.355469 57.414062 47.59375 56.28125 C 51.527344 54.914062 55.351562 51.167969 56.742188 47.246094 C 57.597656 44.8125 56.402344 43.53125 54.582031 43.53125 C 53.960938 43.539062 53.246094 43.6875 52.523438 44 "/>
<path style=" stroke:none;fill-rule:nonzero;fill:rgb(25.098041%,73.725492%,47.843137%);fill-opacity:1;" d="M 143.414062 47.257812 C 144.792969 51.1875 148.625 54.921875 152.5625 56.289062 C 155.808594 57.421875 157.191406 55.054688 155.914062 52.171875 C 154.375 48.679688 151.140625 45.515625 147.628906 44 C 146.90625 43.6875 146.203125 43.539062 145.574219 43.539062 C 143.75 43.539062 142.546875 44.820312 143.414062 47.257812 "/>
<path style=" stroke:none;fill-rule:nonzero;fill:rgb(25.098041%,73.725492%,47.843137%);fill-opacity:1;" d="M 68.859375 38.785156 C 64.855469 39.699219 60.339844 42.546875 58.976562 46.601562 C 57.570312 50.804688 61.933594 52.394531 65.363281 51.785156 C 69.683594 51.007812 75.074219 47.742188 75.976562 43.128906 C 76.644531 39.785156 73.703125 38.558594 70.90625 38.558594 C 70.199219 38.558594 69.496094 38.644531 68.859375 38.785156 "/>
<path style=" stroke:none;fill-rule:nonzero;fill:rgb(25.098041%,73.725492%,47.843137%);fill-opacity:1;" d="M 124.179688 43.128906 C 125.089844 47.742188 130.46875 51.007812 134.789062 51.785156 C 138.21875 52.40625 142.585938 50.8125 141.175781 46.609375 C 139.816406 42.558594 135.296875 39.699219 131.296875 38.792969 C 130.667969 38.652344 129.953125 38.566406 129.25 38.566406 C 126.449219 38.558594 123.519531 39.773438 124.179688 43.128906 "/>
<path style=" stroke:none;fill-rule:nonzero;fill:rgb(25.098041%,73.725492%,47.843137%);fill-opacity:1;" d="M 89.136719 35.882812 C 85.152344 36.152344 79.574219 38.296875 78.792969 42.761719 C 77.949219 47.648438 84.203125 49.457031 87.960938 49.257812 C 92.105469 49.035156 98.554688 46.570312 98.566406 41.582031 C 98.574219 37.351562 93.550781 35.863281 89.941406 35.863281 C 89.671875 35.863281 89.398438 35.871094 89.136719 35.882812 "/>
<path style=" stroke:none;fill-rule:nonzero;fill:rgb(25.098041%,73.725492%,47.843137%);fill-opacity:1;" d="M 101.589844 41.582031 C 101.597656 46.582031 108.050781 49.035156 112.191406 49.257812 C 115.949219 49.457031 122.195312 47.648438 121.351562 42.753906 C 120.570312 38.289062 115 36.144531 111.007812 35.882812 C 110.746094 35.871094 110.484375 35.851562 110.203125 35.851562 C 106.605469 35.851562 101.578125 37.359375 101.589844 41.582031 "/>
<path style=" stroke:none;fill-rule:nonzero;fill:rgb(25.490198%,68.627453%,76.47059%);fill-opacity:1;" d="M 81.527344 166.890625 C 82.53125 170.007812 87.820312 170.785156 90.5625 170.992188 C 92.59375 171.140625 98.601562 171.25 98.59375 168.136719 C 98.574219 164.605469 91.839844 163.648438 89.304688 163.480469 C 89.050781 163.464844 88.703125 163.445312 88.289062 163.445312 C 85.667969 163.445312 80.578125 163.949219 81.527344 166.890625 "/>
<path style=" stroke:none;fill-rule:nonzero;fill:rgb(25.490198%,68.627453%,76.47059%);fill-opacity:1;" d="M 110.832031 163.472656 C 108.304688 163.648438 101.578125 164.613281 101.5625 168.117188 C 101.550781 171.242188 107.5625 171.140625 109.589844 170.992188 C 112.335938 170.785156 117.621094 170.007812 118.628906 166.890625 C 119.574219 163.957031 114.484375 163.445312 111.863281 163.445312 C 111.449219 163.445312 111.09375 163.464844 110.832031 163.472656 "/>
<path style=" stroke:none;fill-rule:nonzero;fill:rgb(25.490198%,68.627453%,76.47059%);fill-opacity:1;" d="M 64.113281 162.808594 C 65.878906 165.71875 69.984375 167.3125 73.121094 168.136719 C 74.484375 168.480469 80.164062 169.4375 79.085938 166.496094 C 77.847656 163.117188 72.585938 161.300781 69.402344 160.5625 C 68.839844 160.429688 67.816406 160.289062 66.792969 160.289062 C 64.847656 160.289062 62.902344 160.792969 64.113281 162.808594 "/>
<path style=" stroke:none;fill-rule:nonzero;fill:rgb(25.490198%,68.627453%,76.47059%);fill-opacity:1;" d="M 130.75 160.5625 C 127.570312 161.300781 122.308594 163.117188 121.070312 166.503906 C 120 169.445312 125.671875 168.492188 127.035156 168.136719 C 130.179688 167.328125 134.285156 165.726562 136.039062 162.808594 C 137.25 160.785156 135.296875 160.289062 133.351562 160.289062 C 132.339844 160.289062 131.316406 160.441406 130.75 160.5625 "/>
<path style=" stroke:none;fill-rule:nonzero;fill:rgb(25.490198%,68.627453%,76.47059%);fill-opacity:1;" d="M 50.617188 156.824219 C 52.601562 159.464844 55.652344 161.527344 58.609375 162.929688 C 59.851562 163.527344 63.71875 164.660156 62.113281 162.113281 C 60.199219 159.0625 56.527344 156.710938 53.292969 155.289062 C 52.589844 154.980469 51.746094 154.765625 51.085938 154.757812 C 50.046875 154.765625 49.480469 155.300781 50.617188 156.824219 "/>
<path style=" stroke:none;fill-rule:nonzero;fill:rgb(25.490198%,68.627453%,76.47059%);fill-opacity:1;" d="M 146.871094 155.300781 C 143.636719 156.730469 139.964844 159.070312 138.050781 162.105469 C 136.445312 164.660156 140.3125 163.527344 141.5625 162.929688 C 144.511719 161.527344 147.5625 159.457031 149.554688 156.816406 C 150.691406 155.300781 150.117188 154.777344 149.085938 154.765625 C 148.417969 154.765625 147.582031 154.992188 146.871094 155.300781 "/>
<path style=" stroke:none;fill-rule:nonzero;fill:rgb(25.490198%,68.627453%,76.47059%);fill-opacity:1;" d="M 34.90625 139.5625 C 36.34375 142.511719 38.464844 145.515625 41.152344 147.484375 C 43.640625 149.308594 43.601562 146.808594 42.738281 144.917969 C 41.273438 141.6875 38.859375 138.074219 35.789062 136.164062 C 35.335938 135.890625 35.007812 135.769531 34.753906 135.769531 C 33.550781 135.769531 34.378906 138.484375 34.90625 139.5625 "/>
<path style=" stroke:none;fill-rule:nonzero;fill:rgb(25.490198%,68.627453%,76.47059%);fill-opacity:1;" d="M 164.375 136.15625 C 161.296875 138.066406 158.890625 141.679688 157.417969 144.90625 C 156.570312 146.808594 156.523438 149.296875 159.011719 147.472656 C 161.691406 145.515625 163.8125 142.511719 165.257812 139.5625 C 165.785156 138.46875 166.613281 135.761719 165.410156 135.761719 C 165.15625 135.769531 164.828125 135.882812 164.375 136.15625 "/>
<path style=" stroke:none;fill-rule:nonzero;fill:rgb(25.490198%,68.627453%,76.47059%);fill-opacity:1;" d="M 29.597656 125.257812 C 30.453125 128.414062 32.132812 132.496094 35.082031 134.246094 C 38.210938 136.097656 37.808594 130.734375 37.402344 129.058594 C 36.625 125.820312 34.726562 120.652344 31.28125 119.378906 C 31.015625 119.277344 30.773438 119.238281 30.566406 119.238281 C 28.441406 119.238281 29.261719 123.984375 29.597656 125.257812 "/>
<path style=" stroke:none;fill-rule:nonzero;fill:rgb(25.490198%,68.627453%,76.47059%);fill-opacity:1;" d="M 168.875 119.378906 C 165.4375 120.652344 163.53125 125.820312 162.75 129.050781 C 162.347656 130.734375 161.933594 136.089844 165.070312 134.246094 C 168.03125 132.476562 169.703125 128.414062 170.554688 125.257812 C 170.902344 123.984375 171.71875 119.230469 169.597656 119.230469 C 169.382812 119.230469 169.148438 119.277344 168.875 119.378906 "/>
<path style=" stroke:none;fill-rule:nonzero;fill:rgb(25.490198%,68.627453%,76.47059%);fill-opacity:1;" d="M 26.601562 107.921875 C 26.847656 110.738281 27.71875 115.972656 30.894531 117.011719 C 34.371094 118.152344 34.511719 111.234375 34.359375 109.304688 C 34.164062 106.683594 33.101562 100.019531 29.503906 99.945312 L 29.4375 99.945312 C 26.3125 99.953125 26.433594 105.886719 26.601562 107.921875 "/>
<path style=" stroke:none;fill-rule:nonzero;fill:rgb(25.490198%,68.627453%,76.47059%);fill-opacity:1;" d="M 170.660156 99.953125 C 167.0625 100.027344 166 106.695312 165.792969 109.316406 C 165.652344 111.242188 165.792969 118.160156 169.269531 117.019531 C 172.445312 115.980469 173.316406 110.746094 173.5625 107.929688 C 173.730469 105.90625 173.863281 99.960938 170.726562 99.960938 C 170.695312 99.953125 170.667969 99.953125 170.660156 99.953125 "/>
<path style=" stroke:none;fill-rule:nonzero;fill:rgb(25.490198%,68.627453%,76.47059%);fill-opacity:1;" d="M 30.886719 80.855469 C 27.710938 81.894531 26.835938 87.128906 26.59375 89.945312 C 26.414062 91.984375 26.300781 97.988281 29.484375 97.921875 C 33.09375 97.847656 34.152344 91.191406 34.351562 88.570312 C 34.492188 86.78125 34.371094 80.734375 31.609375 80.734375 C 31.390625 80.722656 31.15625 80.761719 30.886719 80.855469 "/>
<path style=" stroke:none;fill-rule:nonzero;fill:rgb(25.490198%,68.627453%,76.47059%);fill-opacity:1;" d="M 165.804688 88.558594 C 166 91.191406 167.0625 97.828125 170.660156 97.921875 C 173.851562 97.988281 173.730469 91.984375 173.550781 89.945312 C 173.308594 87.144531 172.445312 81.894531 169.261719 80.863281 C 169.007812 80.769531 168.761719 80.734375 168.527344 80.734375 C 165.765625 80.722656 165.664062 86.773438 165.804688 88.558594 "/>
<path style=" stroke:none;fill-rule:nonzero;fill:rgb(25.490198%,68.627453%,76.47059%);fill-opacity:1;" d="M 35.09375 63.628906 C 32.132812 65.390625 30.453125 69.460938 29.609375 72.625 C 29.230469 74.011719 28.285156 79.601562 31.28125 78.496094 C 34.726562 77.234375 36.625 72.046875 37.402344 68.804688 C 37.75 67.375 38.097656 63.234375 36.238281 63.234375 C 35.917969 63.234375 35.542969 63.359375 35.09375 63.628906 "/>
<path style=" stroke:none;fill-rule:nonzero;fill:rgb(25.490198%,68.627453%,76.47059%);fill-opacity:1;" d="M 162.75 68.804688 C 163.53125 72.046875 165.4375 77.214844 168.875 78.476562 C 171.871094 79.601562 170.929688 74.011719 170.554688 72.617188 C 169.703125 69.472656 168.019531 65.398438 165.070312 63.640625 C 164.621094 63.359375 164.234375 63.246094 163.925781 63.246094 C 162.054688 63.246094 162.402344 67.375 162.75 68.804688 "/>
<path style=" stroke:none;fill-rule:nonzero;fill:rgb(25.490198%,68.627453%,76.47059%);fill-opacity:1;" d="M 41.140625 50.382812 C 38.464844 52.339844 36.34375 55.34375 34.90625 58.304688 C 34.265625 59.605469 33.195312 63.3125 35.789062 61.710938 C 38.859375 59.808594 41.273438 56.195312 42.738281 52.957031 C 43.386719 51.523438 43.554688 49.753906 42.53125 49.753906 C 42.210938 49.753906 41.742188 49.933594 41.140625 50.382812 "/>
<path style=" stroke:none;fill-rule:nonzero;fill:rgb(25.490198%,68.627453%,76.47059%);fill-opacity:1;" d="M 157.417969 52.957031 C 158.882812 56.195312 161.296875 59.808594 164.375 61.710938 C 166.96875 63.320312 165.898438 59.605469 165.257812 58.304688 C 163.8125 55.34375 161.691406 52.339844 159.011719 50.382812 C 158.410156 49.933594 157.953125 49.753906 157.613281 49.753906 C 156.597656 49.753906 156.777344 51.523438 157.417969 52.957031 "/>
<path style=" stroke:none;fill-rule:nonzero;fill:rgb(25.490198%,68.627453%,76.47059%);fill-opacity:1;" d="M 58.609375 34.925781 C 55.652344 36.332031 52.601562 38.410156 50.628906 41.039062 C 48.757812 43.539062 51.464844 43.371094 53.285156 42.566406 C 56.527344 41.132812 60.199219 38.800781 62.113281 35.75 C 62.875 34.542969 62.40625 34.167969 61.558594 34.167969 C 60.628906 34.167969 59.25 34.625 58.609375 34.925781 "/>
<path style=" stroke:none;fill-rule:nonzero;fill:rgb(25.490198%,68.627453%,76.47059%);fill-opacity:1;" d="M 138.050781 35.761719 C 139.976562 38.800781 143.636719 41.132812 146.871094 42.574219 C 148.699219 43.371094 151.40625 43.539062 149.535156 41.046875 C 147.5625 38.410156 144.511719 36.347656 141.542969 34.9375 C 140.894531 34.625 139.515625 34.179688 138.59375 34.179688 C 137.75 34.167969 137.289062 34.542969 138.050781 35.761719 "/>
<path style=" stroke:none;fill-rule:nonzero;fill:rgb(25.490198%,68.627453%,76.47059%);fill-opacity:1;" d="M 73.121094 29.730469 C 69.984375 30.546875 65.871094 32.144531 64.113281 35.066406 C 62.265625 38.148438 67.789062 37.6875 69.402344 37.3125 C 72.585938 36.566406 77.847656 34.757812 79.09375 31.371094 C 79.6875 29.730469 78.191406 29.308594 76.523438 29.308594 C 75.179688 29.308594 73.722656 29.582031 73.121094 29.730469 "/>
<path style=" stroke:none;fill-rule:nonzero;fill:rgb(25.490198%,68.627453%,76.47059%);fill-opacity:1;" d="M 121.070312 31.359375 C 122.308594 34.757812 127.570312 36.566406 130.75 37.304688 C 132.367188 37.699219 137.898438 38.136719 136.039062 35.058594 C 134.285156 32.144531 130.171875 30.546875 127.035156 29.738281 C 126.433594 29.582031 124.976562 29.308594 123.644531 29.308594 C 121.960938 29.308594 120.476562 29.738281 121.070312 31.359375 "/>
<path style=" stroke:none;fill-rule:nonzero;fill:rgb(25.490198%,68.627453%,76.47059%);fill-opacity:1;" d="M 90.5625 26.882812 C 87.820312 27.089844 82.523438 27.867188 81.527344 30.984375 C 80.429688 34.382812 87.425781 34.523438 89.3125 34.402344 C 91.851562 34.222656 98.585938 33.261719 98.601562 29.75 C 98.601562 27.277344 94.828125 26.828125 92.242188 26.828125 C 91.578125 26.828125 90.984375 26.847656 90.5625 26.882812 "/>
<path style=" stroke:none;fill-rule:nonzero;fill:rgb(25.490198%,68.627453%,76.47059%);fill-opacity:1;" d="M 101.5625 29.738281 C 101.578125 33.25 108.304688 34.222656 110.832031 34.394531 C 112.71875 34.515625 119.726562 34.375 118.628906 30.976562 C 117.621094 27.867188 112.335938 27.089844 109.589844 26.875 C 109.179688 26.835938 108.585938 26.820312 107.917969 26.820312 C 105.335938 26.828125 101.542969 27.257812 101.5625 29.738281 "/>
<path style=" stroke:none;fill-rule:nonzero;fill:rgb(32.156864%,68.627453%,90.196079%);fill-opacity:1;" d="M 84.195312 172.824219 C 84.785156 173.949219 89.859375 174.707031 91.878906 174.867188 C 92.320312 174.894531 93.617188 175.023438 94.960938 175.023438 L 95.023438 175.023438 C 96.800781 175.023438 98.632812 174.820312 98.621094 173.949219 C 98.613281 172.148438 92.085938 171.824219 90.742188 171.71875 C 90.535156 171.699219 89.972656 171.683594 89.25 171.683594 C 87.125 171.683594 83.699219 171.859375 84.195312 172.824219 "/>
<path style=" stroke:none;fill-rule:nonzero;fill:rgb(32.156864%,68.627453%,90.196079%);fill-opacity:1;" d="M 109.414062 171.71875 C 108.070312 171.824219 101.542969 172.140625 101.53125 173.957031 C 101.523438 174.820312 103.355469 175.023438 105.128906 175.023438 L 105.1875 175.023438 C 106.539062 175.023438 107.824219 174.902344 108.277344 174.867188 C 110.296875 174.707031 115.367188 173.949219 115.949219 172.824219 C 116.457031 171.851562 113.019531 171.683594 110.898438 171.683594 C 110.183594 171.683594 109.621094 171.699219 109.414062 171.71875 "/>
<path style=" stroke:none;fill-rule:nonzero;fill:rgb(32.156864%,68.627453%,90.196079%);fill-opacity:1;" d="M 69.683594 169.332031 C 70.632812 170.652344 74.953125 172.019531 77.574219 172.636719 C 83.011719 173.929688 82.617188 172.730469 82.617188 172.730469 C 82.109375 171.597656 76.664062 169.808594 74.15625 169.164062 C 73.675781 169.03125 71.703125 168.566406 70.492188 168.566406 C 69.722656 168.554688 69.269531 168.753906 69.683594 169.332031 "/>
<path style=" stroke:none;fill-rule:nonzero;fill:rgb(32.156864%,68.627453%,90.196079%);fill-opacity:1;" d="M 125.992188 169.15625 C 123.480469 169.800781 118.035156 171.597656 117.539062 172.742188 C 117.539062 172.742188 117.144531 173.921875 122.582031 172.648438 C 125.210938 172.019531 129.53125 170.652344 130.46875 169.332031 C 130.894531 168.753906 130.433594 168.566406 129.664062 168.566406 C 128.449219 168.566406 126.488281 169.023438 125.992188 169.15625 "/>
<path style=" stroke:none;fill-rule:nonzero;fill:rgb(32.156864%,68.627453%,90.196079%);fill-opacity:1;" d="M 56.882812 163.78125 C 59.15625 165.511719 61.804688 166.796875 64.40625 167.898438 C 65.054688 168.171875 68.847656 169.445312 67.535156 168.394531 C 65.101562 166.449219 62.058594 165.128906 59.25 163.902344 C 58.640625 163.640625 57.050781 163.058594 56.488281 163.058594 C 56.179688 163.058594 56.1875 163.246094 56.882812 163.78125 "/>
<path style=" stroke:none;fill-rule:nonzero;fill:rgb(32.156864%,68.627453%,90.196079%);fill-opacity:1;" d="M 140.90625 163.902344 C 138.085938 165.140625 135.042969 166.457031 132.613281 168.394531 C 131.316406 169.445312 135.101562 168.179688 135.75 167.910156 C 138.339844 166.796875 140.988281 165.511719 143.261719 163.78125 C 143.96875 163.246094 143.976562 163.058594 143.65625 163.058594 C 143.09375 163.058594 141.507812 163.640625 140.90625 163.902344 "/>
<path style=" stroke:none;fill-rule:nonzero;fill:rgb(32.156864%,68.627453%,90.196079%);fill-opacity:1;" d="M 40.859375 150.1875 C 42.699219 152.566406 44.917969 154.757812 47.320312 156.574219 C 48.816406 157.695312 50.128906 157.976562 48.65625 156.039062 C 46.636719 153.378906 44.128906 150.917969 41.453125 148.925781 C 40.839844 148.484375 40.4375 148.277344 40.210938 148.277344 C 39.734375 148.277344 40.0625 149.148438 40.859375 150.1875 "/>
<path style=" stroke:none;fill-rule:nonzero;fill:rgb(32.156864%,68.627453%,90.196079%);fill-opacity:1;" d="M 158.703125 148.933594 C 156.035156 150.910156 153.519531 153.390625 151.5 156.046875 C 150.023438 157.976562 151.339844 157.6875 152.832031 156.554688 C 155.246094 154.746094 157.464844 152.566406 159.296875 150.179688 C 160.101562 149.140625 160.421875 148.269531 159.941406 148.269531 C 159.726562 148.277344 159.324219 148.484375 158.703125 148.933594 "/>
<path style=" stroke:none;fill-rule:nonzero;fill:rgb(32.156864%,68.627453%,90.196079%);fill-opacity:1;" d="M 29.691406 133.777344 C 30.902344 136.3125 32.304688 138.886719 34.097656 141.042969 C 35.648438 142.914062 34.371094 139.730469 33.898438 138.777344 C 32.558594 136.023438 31.109375 133.066406 29.089844 130.753906 C 28.921875 130.554688 28.808594 130.472656 28.742188 130.472656 C 28.359375 130.472656 29.4375 133.234375 29.691406 133.777344 "/>
<path style=" stroke:none;fill-rule:nonzero;fill:rgb(32.156864%,68.627453%,90.196079%);fill-opacity:1;" d="M 171.0625 130.753906 C 169.054688 133.074219 167.597656 136.035156 166.253906 138.785156 C 165.792969 139.730469 164.507812 142.921875 166.058594 141.050781 C 167.859375 138.898438 169.25 136.3125 170.460938 133.777344 C 170.734375 133.242188 171.796875 130.480469 171.410156 130.480469 C 171.34375 130.472656 171.230469 130.566406 171.0625 130.753906 "/>
<path style=" stroke:none;fill-rule:nonzero;fill:rgb(32.156864%,68.627453%,90.196079%);fill-opacity:1;" d="M 24.894531 121.542969 C 25.511719 124.097656 26.546875 127.363281 27.871094 128.675781 C 29.277344 130.058594 28.628906 125.6875 28.320312 124.320312 C 27.71875 121.710938 26.5 117.554688 25.023438 116.664062 C 24.921875 116.597656 24.835938 116.570312 24.761719 116.570312 C 23.886719 116.5625 24.648438 120.511719 24.894531 121.542969 "/>
<path style=" stroke:none;fill-rule:nonzero;fill:rgb(32.156864%,68.627453%,90.196079%);fill-opacity:1;" d="M 175.121094 116.65625 C 173.644531 117.554688 172.417969 121.710938 171.824219 124.332031 C 171.515625 125.6875 170.867188 130.058594 172.273438 128.675781 C 173.609375 127.355469 174.640625 124.097656 175.253906 121.542969 C 175.507812 120.5 176.265625 116.570312 175.382812 116.570312 C 175.308594 116.5625 175.234375 116.589844 175.121094 116.65625 "/>
<path style=" stroke:none;fill-rule:nonzero;fill:rgb(32.156864%,68.627453%,90.196079%);fill-opacity:1;" d="M 22.1875 104.203125 L 22.1875 104.335938 C 22.1875 105.074219 22.214844 105.738281 22.242188 106.179688 C 22.375 108.417969 22.78125 112.601562 24.039062 113.40625 C 25.410156 114.296875 25.390625 108.773438 25.304688 107.226562 C 25.203125 105.128906 24.703125 99.832031 23.285156 99.792969 L 23.277344 99.785156 C 22.386719 99.785156 22.1875 102.226562 22.1875 104.203125 "/>
<path style=" stroke:none;fill-rule:nonzero;fill:rgb(32.156864%,68.627453%,90.196079%);fill-opacity:1;" d="M 176.878906 99.804688 C 175.46875 99.851562 174.972656 105.148438 174.859375 107.234375 C 174.78125 108.78125 174.753906 114.304688 176.136719 113.414062 C 177.394531 112.609375 177.789062 108.425781 177.917969 106.1875 C 178.011719 104.558594 178.125 99.804688 176.894531 99.792969 L 176.878906 99.804688 "/>
<path style=" stroke:none;fill-rule:nonzero;fill:rgb(32.156864%,68.627453%,90.196079%);fill-opacity:1;" d="M 24.027344 84.449219 C 22.769531 85.265625 22.367188 89.441406 22.234375 91.6875 C 22.214844 92.136719 22.1875 92.808594 22.1875 93.566406 L 22.1875 93.625 C 22.1875 95.617188 22.386719 98.097656 23.285156 98.082031 C 24.695312 98.023438 25.203125 92.726562 25.304688 90.636719 C 25.390625 89.207031 25.410156 84.367188 24.328125 84.367188 C 24.226562 84.355469 24.132812 84.382812 24.027344 84.449219 "/>
<path style=" stroke:none;fill-rule:nonzero;fill:rgb(32.156864%,68.627453%,90.196079%);fill-opacity:1;" d="M 174.859375 90.628906 C 174.960938 92.714844 175.46875 98.023438 176.867188 98.070312 C 178.125 98.109375 178.011719 93.304688 177.917969 91.6875 C 177.789062 89.441406 177.382812 85.253906 176.136719 84.449219 C 176.03125 84.382812 175.9375 84.355469 175.851562 84.355469 C 174.746094 84.355469 174.78125 89.195312 174.859375 90.628906 "/>
<path style=" stroke:none;fill-rule:nonzero;fill:rgb(32.156864%,68.627453%,90.196079%);fill-opacity:1;" d="M 27.878906 69.199219 C 26.546875 70.519531 25.523438 73.769531 24.902344 76.332031 C 24.628906 77.457031 23.746094 81.988281 25.035156 81.210938 C 26.507812 80.320312 27.730469 76.15625 28.332031 73.542969 C 28.59375 72.363281 29.121094 68.929688 28.339844 68.929688 C 28.207031 68.929688 28.066406 69.011719 27.878906 69.199219 "/>
<path style=" stroke:none;fill-rule:nonzero;fill:rgb(32.156864%,68.627453%,90.196079%);fill-opacity:1;" d="M 171.824219 73.542969 C 172.417969 76.15625 173.644531 80.320312 175.121094 81.210938 C 176.398438 81.988281 175.523438 77.457031 175.253906 76.332031 C 174.640625 73.769531 173.609375 70.511719 172.273438 69.191406 C 172.085938 69.003906 171.9375 68.917969 171.816406 68.917969 C 171.035156 68.929688 171.5625 72.363281 171.824219 73.542969 "/>
<path style=" stroke:none;fill-rule:nonzero;fill:rgb(32.156864%,68.627453%,90.196079%);fill-opacity:1;" d="M 34.097656 56.824219 C 32.304688 58.996094 30.902344 61.558594 29.691406 64.097656 C 29.382812 64.734375 27.964844 68.414062 29.089844 67.121094 C 31.109375 64.789062 32.558594 61.832031 33.898438 59.089844 C 34.265625 58.347656 35.121094 56.242188 34.746094 56.242188 C 34.640625 56.253906 34.433594 56.410156 34.097656 56.824219 "/>
<path style=" stroke:none;fill-rule:nonzero;fill:rgb(32.156864%,68.627453%,90.196079%);fill-opacity:1;" d="M 166.253906 59.089844 C 167.605469 61.832031 169.054688 64.789062 171.0625 67.113281 C 172.199219 68.414062 170.78125 64.726562 170.460938 64.089844 C 169.269531 61.550781 167.859375 58.984375 166.058594 56.8125 C 165.71875 56.402344 165.523438 56.234375 165.417969 56.234375 C 165.035156 56.253906 165.886719 58.347656 166.253906 59.089844 "/>
<path style=" stroke:none;fill-rule:nonzero;fill:rgb(32.156864%,68.627453%,90.196079%);fill-opacity:1;" d="M 47.320312 41.300781 C 44.917969 43.117188 42.691406 45.308594 40.859375 47.6875 C 39.675781 49.222656 39.527344 50.363281 41.441406 48.941406 C 44.117188 46.957031 46.636719 44.476562 48.65625 41.824219 C 49.425781 40.824219 49.433594 40.410156 49.058594 40.410156 C 48.710938 40.421875 48.042969 40.757812 47.320312 41.300781 "/>
<path style=" stroke:none;fill-rule:nonzero;fill:rgb(32.156864%,68.627453%,90.196079%);fill-opacity:1;" d="M 151.5 41.835938 C 153.519531 44.484375 156.027344 46.957031 158.703125 48.941406 C 160.636719 50.363281 160.476562 49.222656 159.296875 47.6875 C 157.453125 45.296875 155.238281 43.117188 152.832031 41.300781 C 152.117188 40.757812 151.441406 40.410156 151.09375 40.410156 C 150.730469 40.410156 150.738281 40.824219 151.5 41.835938 "/>
<path style=" stroke:none;fill-rule:nonzero;fill:rgb(32.156864%,68.627453%,90.196079%);fill-opacity:1;" d="M 64.40625 29.964844 C 61.804688 31.070312 59.15625 32.359375 56.882812 34.09375 C 54.9375 35.574219 58.300781 34.382812 59.25 33.972656 C 62.058594 32.734375 65.101562 31.425781 67.535156 29.476562 C 67.910156 29.167969 67.863281 29.074219 67.597656 29.074219 C 66.941406 29.054688 64.867188 29.757812 64.40625 29.964844 "/>
<path style=" stroke:none;fill-rule:nonzero;fill:rgb(32.156864%,68.627453%,90.196079%);fill-opacity:1;" d="M 132.621094 29.46875 C 135.042969 31.414062 138.097656 32.734375 140.90625 33.960938 C 141.855469 34.375 145.207031 35.5625 143.269531 34.082031 C 140.988281 32.351562 138.351562 31.058594 135.75 29.957031 C 135.289062 29.757812 133.203125 29.054688 132.546875 29.054688 C 132.28125 29.066406 132.246094 29.167969 132.621094 29.46875 "/>
<path style=" stroke:none;fill-rule:nonzero;fill:rgb(32.156864%,68.627453%,90.196079%);fill-opacity:1;" d="M 77.582031 25.238281 C 74.960938 25.863281 70.632812 27.222656 69.695312 28.550781 C 68.605469 30.050781 73.367188 28.925781 74.164062 28.71875 C 76.664062 28.066406 82.121094 26.265625 82.617188 25.144531 C 82.617188 25.144531 82.785156 24.636719 81.414062 24.636719 C 80.671875 24.648438 79.488281 24.789062 77.582031 25.238281 "/>
<path style=" stroke:none;fill-rule:nonzero;fill:rgb(32.156864%,68.627453%,90.196079%);fill-opacity:1;" d="M 117.539062 25.144531 C 118.054688 26.265625 123.5 28.066406 126 28.710938 C 126.789062 28.925781 131.550781 30.050781 130.46875 28.542969 C 129.523438 27.210938 125.203125 25.855469 122.570312 25.238281 C 120.675781 24.789062 119.480469 24.636719 118.738281 24.636719 C 117.367188 24.636719 117.539062 25.144531 117.539062 25.144531 "/>
<path style=" stroke:none;fill-rule:nonzero;fill:rgb(32.156864%,68.627453%,90.196079%);fill-opacity:1;" d="M 94.960938 22.851562 C 93.617188 22.851562 92.308594 22.972656 91.878906 23.007812 C 89.859375 23.167969 84.785156 23.925781 84.195312 25.050781 C 83.519531 26.34375 89.914062 26.21875 90.742188 26.15625 C 92.085938 26.050781 98.613281 25.734375 98.613281 23.925781 C 98.621094 23.066406 96.789062 22.859375 95.015625 22.859375 L 94.960938 22.859375 L 94.960938 22.851562 "/>
<path style=" stroke:none;fill-rule:nonzero;fill:rgb(32.156864%,68.627453%,90.196079%);fill-opacity:1;" d="M 105.128906 22.851562 C 103.355469 22.851562 101.515625 23.054688 101.523438 23.917969 C 101.53125 25.722656 108.070312 26.042969 109.402344 26.144531 C 110.230469 26.199219 116.636719 26.332031 115.949219 25.039062 C 115.359375 23.917969 110.285156 23.160156 108.269531 23 C 107.824219 22.960938 106.53125 22.839844 105.175781 22.839844 L 105.128906 22.839844 L 105.128906 22.851562 "/>
<path style=" stroke:none;fill-rule:nonzero;fill:rgb(100%,100%,100%);fill-opacity:1;" d="M 44.765625 214.46875 L 50.785156 214.46875 L 50.785156 241.800781 L 44.765625 241.800781 L 44.765625 214.46875 "/>
<path style=" stroke:none;fill-rule:nonzero;fill:rgb(100%,100%,100%);fill-opacity:1;" d="M 57.488281 214.46875 L 63.507812 214.46875 L 63.507812 241.800781 L 57.488281 241.800781 L 57.488281 214.46875 "/>
<path style=" stroke:none;fill-rule:nonzero;fill:rgb(100%,100%,100%);fill-opacity:1;" d="M 70.269531 228.835938 L 70.269531 228.757812 C 70.269531 220.980469 76.09375 214.609375 84.441406 214.609375 C 89.570312 214.609375 92.640625 216.332031 95.160156 218.828125 L 91.351562 223.246094 C 89.261719 221.328125 87.121094 220.15625 84.402344 220.15625 C 79.824219 220.15625 76.523438 223.992188 76.523438 228.683594 L 76.523438 228.757812 C 76.523438 233.449219 79.738281 237.363281 84.402344 237.363281 C 87.519531 237.363281 89.40625 236.109375 91.546875 234.15625 L 95.355469 238.023438 C 92.554688 241.039062 89.449219 242.910156 84.207031 242.910156 C 76.203125 242.910156 70.269531 236.699219 70.269531 228.835938 "/>
<path style=" stroke:none;fill-rule:nonzero;fill:rgb(100%,100%,100%);fill-opacity:1;" d="M 100.691406 215.074219 L 113.121094 215.074219 C 116.574219 215.074219 119.253906 216.054688 121.042969 217.847656 C 122.554688 219.371094 123.371094 221.523438 123.371094 224.105469 L 123.371094 224.183594 C 123.371094 228.605469 121 231.375 117.546875 232.667969 L 124.1875 242.441406 L 117.203125 242.441406 L 111.375 233.683594 L 106.675781 233.683594 L 106.675781 242.441406 L 100.691406 242.441406 Z M 112.730469 228.367188 C 115.648438 228.367188 117.3125 226.8125 117.3125 224.503906 L 117.3125 224.417969 C 117.3125 221.839844 115.523438 220.507812 112.613281 220.507812 L 106.675781 220.507812 L 106.675781 228.363281 L 112.730469 228.363281 L 112.730469 228.367188 "/>
<path style=" stroke:none;fill-rule:nonzero;fill:rgb(100%,100%,100%);fill-opacity:1;" d="M 129.542969 228.835938 L 129.542969 228.757812 C 129.542969 220.980469 135.371094 214.609375 143.730469 214.609375 C 148.851562 214.609375 151.914062 216.332031 154.4375 218.828125 L 150.632812 223.246094 C 148.539062 221.328125 146.394531 220.15625 143.6875 220.15625 C 139.101562 220.15625 135.800781 223.992188 135.800781 228.683594 L 135.800781 228.757812 C 135.800781 233.449219 139.023438 237.363281 143.6875 237.363281 C 146.789062 237.363281 148.695312 236.109375 150.828125 234.15625 L 154.636719 238.023438 C 151.839844 241.039062 148.738281 242.910156 143.484375 242.910156 C 135.484375 242.910156 129.542969 236.699219 129.542969 228.835938 "/>
<path style=" stroke:none;fill-rule:nonzero;fill:rgb(100%,100%,100%);fill-opacity:1;" d="M 65.140625 264.964844 C 67.054688 264.964844 68.921875 265.082031 70.761719 264.925781 C 72.171875 264.804688 73.019531 263.617188 73.050781 262.214844 C 73.082031 260.71875 72.421875 259.601562 70.914062 259.433594 C 69.011719 259.21875 67.070312 259.382812 65.074219 259.382812 C 65.074219 261.023438 65.074219 262.65625 65.078125 264.285156 C 65.078125 264.484375 65.113281 264.6875 65.140625 264.964844 Z M 65.054688 269.164062 C 65.054688 271.441406 65.054688 273.5625 65.054688 275.746094 C 63.515625 275.746094 62.109375 275.746094 60.59375 275.746094 C 60.59375 268.882812 60.59375 262.027344 60.59375 255.207031 C 64.488281 255.207031 68.371094 254.976562 72.210938 255.28125 C 75.28125 255.527344 77.183594 257.738281 77.605469 260.578125 C 78.113281 264.023438 76.941406 266.511719 74.074219 268.070312 C 73.890625 268.171875 73.710938 268.269531 73.390625 268.445312 C 75.007812 270.839844 76.605469 273.210938 78.355469 275.804688 C 76.53125 275.804688 74.96875 275.847656 73.410156 275.773438 C 73.09375 275.757812 72.71875 275.363281 72.503906 275.054688 C 71.453125 273.539062 70.382812 272.03125 69.441406 270.445312 C 68.859375 269.46875 68.183594 268.988281 67.035156 269.148438 C 66.433594 269.234375 65.808594 269.164062 65.054688 269.164062 "/>
<path style=" stroke:none;fill-rule:nonzero;fill:rgb(100%,100%,100%);fill-opacity:1;" d="M 167.785156 271.574219 C 169.292969 271.574219 170.667969 271.648438 172.03125 271.558594 C 174.792969 271.367188 176.988281 269.222656 177.300781 266.523438 C 177.6875 263.167969 176.253906 260.34375 173.433594 259.609375 C 171.636719 259.140625 169.695312 259.21875 167.785156 259.054688 C 167.785156 263.394531 167.785156 267.414062 167.785156 271.574219 Z M 163.226562 254.851562 C 167.03125 255.035156 170.75 254.847656 174.320312 255.480469 C 179.289062 256.363281 182.378906 260.742188 182.183594 265.691406 C 181.976562 270.894531 178.523438 275.007812 173.398438 275.554688 C 170.074219 275.910156 166.679688 275.621094 163.226562 275.621094 C 163.226562 268.851562 163.226562 262.027344 163.226562 254.851562 "/>
<path style=" stroke:none;fill-rule:nonzero;fill:rgb(100%,100%,100%);fill-opacity:1;" d="M 158.636719 275.742188 C 153.429688 275.742188 148.308594 275.742188 143.074219 275.742188 C 143.074219 268.886719 143.074219 262.023438 143.074219 255.09375 C 148.179688 255.09375 153.261719 255.09375 158.445312 255.09375 C 158.445312 256.386719 158.445312 257.667969 158.445312 259.121094 C 154.867188 259.121094 151.261719 259.121094 147.589844 259.121094 C 147.589844 260.570312 147.589844 261.851562 147.589844 263.265625 C 150.808594 263.265625 153.960938 263.265625 157.179688 263.265625 C 157.179688 264.679688 157.179688 265.960938 157.179688 267.386719 C 153.976562 267.386719 150.824219 267.386719 147.597656 267.386719 C 147.597656 268.855469 147.597656 270.179688 147.597656 271.675781 C 151.257812 271.675781 154.914062 271.675781 158.636719 271.675781 C 158.636719 273.09375 158.636719 274.339844 158.636719 275.742188 "/>
<path style=" stroke:none;fill-rule:nonzero;fill:rgb(100%,100%,100%);fill-opacity:1;" d="M 40.183594 255.097656 C 45.378906 255.097656 50.414062 255.097656 55.542969 255.097656 C 55.542969 256.441406 55.542969 257.714844 55.542969 259.125 C 51.914062 259.125 48.339844 259.125 44.6875 259.125 C 44.6875 260.535156 44.6875 261.820312 44.6875 263.257812 C 47.867188 263.257812 51.011719 263.257812 54.226562 263.257812 C 54.226562 264.691406 54.226562 265.96875 54.226562 267.367188 C 51.042969 267.367188 47.929688 267.367188 44.710938 267.367188 C 44.710938 268.804688 44.710938 270.128906 44.710938 271.617188 C 48.320312 271.617188 51.96875 271.617188 55.707031 271.617188 C 55.707031 273.054688 55.707031 274.339844 55.707031 275.71875 C 50.566406 275.71875 45.421875 275.71875 40.183594 275.71875 C 40.183594 268.847656 40.183594 262.019531 40.183594 255.097656 "/>
<path style=" stroke:none;fill-rule:nonzero;fill:rgb(100%,100%,100%);fill-opacity:1;" d="M 17.355469 247.976562 C 17.011719 247.035156 17.273438 246.617188 18.214844 246.691406 C 18.464844 246.714844 18.714844 246.695312 18.964844 246.695312 C 72.410156 246.695312 125.851562 246.695312 179.292969 246.695312 C 179.90625 246.695312 180.519531 246.695312 181.183594 246.695312 C 181.183594 247.214844 181.183594 247.566406 181.183594 247.976562 C 126.550781 247.976562 71.996094 247.976562 17.355469 247.976562 "/>
<path style=" stroke:none;fill-rule:nonzero;fill:rgb(100%,100%,100%);fill-opacity:1;" d="M 36.257812 272.222656 C 32.675781 276.570312 25.242188 277.117188 20.953125 273.246094 C 16.414062 269.144531 16.148438 261.804688 20.378906 257.433594 C 24.46875 253.210938 32.117188 253.222656 36.273438 257.566406 C 35.34375 258.652344 34.40625 259.75 33.40625 260.917969 C 31.558594 259.328125 29.5625 258.09375 27.136719 258.730469 C 25.917969 259.046875 24.625 259.757812 23.773438 260.671875 C 21.503906 263.113281 21.667969 267.257812 23.898438 269.65625 C 26.355469 272.300781 29.394531 272.167969 33.472656 269.242188 C 34.378906 270.210938 35.285156 271.179688 36.257812 272.222656 "/>
<path style=" stroke:none;fill-rule:nonzero;fill:rgb(100%,100%,100%);fill-opacity:1;" d="M 116.453125 267.734375 C 116.453125 270.503906 116.453125 273.058594 116.453125 275.710938 C 114.933594 275.710938 113.5 275.710938 111.976562 275.710938 C 111.976562 268.882812 111.976562 262.054688 111.976562 255.125 C 117.128906 255.125 122.277344 255.125 127.53125 255.125 C 127.53125 256.445312 127.53125 257.753906 127.53125 259.160156 C 123.882812 259.160156 120.261719 259.160156 116.542969 259.160156 C 116.542969 260.609375 116.542969 261.96875 116.542969 263.523438 C 117.773438 263.523438 119.007812 263.523438 120.238281 263.523438 C 121.949219 263.523438 123.664062 263.539062 125.375 263.515625 C 125.972656 263.507812 126.324219 263.644531 126.304688 264.34375 C 126.273438 265.429688 126.296875 266.519531 126.296875 267.734375 C 123.019531 267.734375 119.820312 267.734375 116.453125 267.734375 "/>
<path style=" stroke:none;fill-rule:nonzero;fill:rgb(100%,100%,100%);fill-opacity:1;" d="M 91.34375 275.742188 C 89.746094 275.742188 88.34375 275.742188 86.707031 275.742188 C 86.707031 273.011719 86.707031 270.300781 86.707031 267.59375 C 86.707031 264.867188 86.707031 262.140625 86.707031 259.28125 C 84.613281 259.28125 82.636719 259.28125 80.550781 259.28125 C 80.550781 257.835938 80.550781 256.527344 80.550781 255.121094 C 86.1875 255.121094 91.792969 255.121094 97.484375 255.121094 C 97.484375 256.445312 97.484375 257.730469 97.484375 259.191406 C 95.480469 259.191406 93.464844 259.191406 91.34375 259.191406 C 91.34375 264.769531 91.34375 270.179688 91.34375 275.742188 "/>
<path style=" stroke:none;fill-rule:nonzero;fill:rgb(100%,100%,100%);fill-opacity:1;" d="M 133.222656 255.097656 C 134.769531 255.097656 136.171875 255.097656 137.640625 255.097656 C 137.640625 262 137.640625 268.828125 137.640625 275.734375 C 136.160156 275.734375 134.726562 275.734375 133.222656 275.734375 C 133.222656 268.84375 133.222656 262.015625 133.222656 255.097656 "/>
<path style=" stroke:none;fill-rule:nonzero;fill:rgb(100%,100%,100%);fill-opacity:1;" d="M 102.148438 255.097656 C 103.691406 255.097656 105.097656 255.097656 106.5625 255.097656 C 106.5625 261.996094 106.5625 268.824219 106.5625 275.734375 C 105.085938 275.734375 103.65625 275.734375 102.148438 275.734375 C 102.148438 268.84375 102.148438 262.019531 102.148438 255.097656 "/>
</g>
</svg>
