<?xml version="1.0" encoding="UTF-8"?>
<svg xmlns="http://www.w3.org/2000/svg" xmlns:xlink="http://www.w3.org/1999/xlink" width="200px" height="200px" viewBox="0 0 200 200" version="1.1">
<g id="surface1">
<path style=" stroke:none;fill-rule:nonzero;fill:rgb(100%,50.588238%,21.568628%);fill-opacity:1;" d="M 49.96875 127.421875 C 42.332031 126.257812 34.507812 122.484375 27.667969 116.503906 C 29.355469 113.679688 31.226562 111.074219 33.28125 108.742188 C 36.871094 117.054688 42.605469 123.679688 49.96875 127.421875 M 28.988281 87.484375 C 28.957031 82.453125 29.480469 76.011719 31.71875 69.171875 C 23.375 68.34375 15.308594 69.355469 8.25 72.085938 C 7.792969 79.570312 9.203125 87.667969 12.605469 95.582031 C 16.933594 92.332031 24.507812 88.894531 28.988281 87.484375 M 29.203125 92.238281 C 25.460938 93.527344 18.4375 96.5625 14.601562 99.691406 C 16.625 103.804688 21.351562 110.152344 24.292969 113.25 C 26.441406 109.816406 28.863281 106.75 31.535156 103.988281 C 30.335938 100.308594 29.570312 96.351562 29.203125 92.238281 "/>
<path style=" stroke:none;fill-rule:nonzero;fill:rgb(0%,45.882353%,74.901962%);fill-opacity:1;" d="M 41.5625 113.863281 C 36.964844 107.636719 34.109375 99.449219 33.527344 90.367188 C 36.71875 89.570312 39.878906 89.050781 42.976562 88.835938 C 39.632812 97.269531 39.019531 106.011719 41.5625 113.863281 M 55 70.765625 C 58.527344 67.207031 63.464844 63.007812 69.878906 59.753906 C 64.570312 53.28125 58.160156 48.28125 51.226562 45.214844 C 45.613281 50.183594 40.890625 56.902344 37.699219 64.90625 C 43.035156 65.644531 50.796875 68.621094 55 70.765625 M 51.777344 74.292969 C 48.222656 72.546875 41.105469 69.753906 36.164062 69.234375 C 34.691406 73.558594 33.527344 81.410156 33.4375 85.675781 C 37.363281 84.753906 41.257812 84.324219 45.09375 84.234375 C 46.871094 80.796875 49.109375 77.453125 51.777344 74.292969 "/>
<path style=" stroke:none;fill-rule:nonzero;fill:rgb(71.764708%,83.92157%,21.176471%);fill-opacity:1;" d="M 45.214844 98.3125 C 46.378906 90.675781 50.152344 82.851562 56.136719 76.011719 C 58.957031 77.699219 61.5625 79.570312 63.894531 81.625 C 55.582031 85.214844 48.988281 90.980469 45.214844 98.3125 M 85.183594 77.332031 C 90.214844 77.300781 96.65625 77.820312 103.496094 80.0625 C 104.324219 71.71875 103.3125 63.648438 100.582031 56.59375 C 93.128906 56.136719 85 57.546875 77.117188 60.949219 C 80.335938 65.277344 83.742188 72.851562 85.183594 77.332031 M 80.398438 77.546875 C 79.109375 73.804688 76.074219 66.777344 72.945312 62.914062 C 68.835938 64.9375 62.484375 69.664062 59.386719 72.605469 C 62.820312 74.722656 65.890625 77.179688 68.621094 79.847656 C 72.332031 78.679688 76.289062 77.914062 80.398438 77.546875 "/>
<path style=" stroke:none;fill-rule:nonzero;fill:rgb(0%,0%,0%);fill-opacity:1;" d="M 64.785156 123.222656 L 57.085938 111.503906 L 57.085938 123.222656 L 54.570312 123.222656 L 54.570312 106.59375 L 56.871094 106.59375 L 64.570312 118.28125 L 64.570312 106.59375 L 67.085938 106.59375 L 67.085938 123.222656 Z M 86.105469 123.222656 L 86.105469 106.59375 L 83.589844 106.59375 L 78.835938 116.933594 L 73.988281 106.59375 L 71.472656 106.59375 L 71.472656 123.222656 L 73.988281 123.222656 L 73.988281 112.085938 L 77.914062 120.183594 L 79.785156 120.183594 L 83.621094 112.085938 L 83.621094 123.222656 Z M 94.847656 123.375 C 98.3125 123.375 100.828125 121.5625 100.828125 118.496094 C 100.828125 117.085938 100.367188 115.890625 99.480469 115.09375 C 98.773438 114.449219 97.914062 114.078125 96.378906 113.863281 L 94.480469 113.589844 C 93.710938 113.464844 93.035156 113.191406 92.605469 112.820312 C 92.179688 112.421875 91.964844 111.902344 91.964844 111.289062 C 91.964844 109.816406 93.035156 108.679688 95 108.679688 C 96.410156 108.679688 97.605469 108.988281 98.621094 109.96875 L 100.246094 108.375 C 98.835938 107.054688 97.269531 106.472656 95.09375 106.472656 C 91.625 106.472656 89.539062 108.464844 89.539062 111.351562 C 89.539062 112.699219 89.9375 113.742188 90.765625 114.539062 C 91.503906 115.214844 92.578125 115.675781 93.925781 115.859375 L 95.890625 116.136719 C 96.871094 116.289062 97.300781 116.441406 97.699219 116.839844 C 98.128906 117.238281 98.34375 117.851562 98.34375 118.558594 C 98.34375 120.183594 97.085938 121.105469 94.90625 121.105469 C 93.191406 121.105469 91.871094 120.734375 90.644531 119.507812 L 88.957031 121.164062 C 90.550781 122.792969 92.332031 123.375 94.847656 123.375 M 114.355469 121.65625 C 116.164062 119.847656 116.042969 117.207031 116.042969 114.785156 C 116.042969 112.394531 116.164062 109.9375 114.355469 108.160156 C 113.3125 107.117188 111.777344 106.59375 110.0625 106.59375 L 104.234375 106.59375 L 104.234375 123.222656 L 110.0625 123.222656 C 111.777344 123.222656 113.28125 122.730469 114.355469 121.65625 M 112.605469 110 C 113.464844 110.949219 113.496094 112.515625 113.496094 114.816406 C 113.496094 117.117188 113.464844 118.894531 112.605469 119.878906 C 111.902344 120.644531 110.980469 121.011719 109.785156 121.011719 L 106.71875 121.011719 L 106.71875 108.894531 L 109.785156 108.894531 C 110.980469 108.863281 111.902344 109.203125 112.605469 110 M 125.121094 123.375 C 128.128906 123.375 130.492188 121.5625 131.042969 118.25 L 128.527344 118.25 C 128.128906 119.9375 126.992188 121.105469 125.152344 121.105469 C 124.171875 121.105469 123.28125 120.734375 122.699219 120.09375 C 121.871094 119.203125 121.6875 118.25 121.6875 114.90625 C 121.6875 111.5625 121.871094 110.613281 122.699219 109.722656 C 123.28125 109.078125 124.171875 108.710938 125.152344 108.710938 C 126.992188 108.710938 128.128906 109.878906 128.527344 111.5625 L 131.105469 111.5625 C 130.519531 108.25 128.222656 106.441406 125.183594 106.441406 C 123.464844 106.441406 121.964844 107.085938 120.828125 108.222656 C 119.203125 109.847656 119.203125 111.6875 119.203125 114.90625 C 119.203125 118.097656 119.171875 119.96875 120.828125 121.59375 C 121.902344 122.730469 123.40625 123.375 125.121094 123.375 M 60.707031 138.28125 L 60.707031 130 L 59.449219 130 L 59.449219 135.828125 L 55.613281 130 L 54.449219 130 L 54.449219 138.28125 L 55.707031 138.28125 L 55.707031 132.453125 L 59.539062 138.28125 Z M 67.117188 138.28125 L 67.117188 134.324219 C 67.117188 132.976562 66.289062 132.300781 64.691406 132.300781 C 63.710938 132.300781 63.128906 132.484375 62.578125 133.160156 L 63.34375 133.894531 C 63.679688 133.464844 63.988281 133.3125 64.632812 133.3125 C 65.550781 133.3125 65.921875 133.679688 65.921875 134.417969 L 65.921875 134.847656 L 64.355469 134.847656 C 63.007812 134.847656 62.332031 135.550781 62.332031 136.535156 C 62.332031 137.023438 62.484375 137.484375 62.792969 137.792969 C 63.160156 138.160156 63.648438 138.34375 64.386719 138.34375 C 65.121094 138.34375 65.519531 138.160156 65.949219 137.730469 L 65.949219 138.25 L 67.117188 138.25 Z M 65.921875 136.164062 C 65.921875 136.59375 65.828125 136.871094 65.675781 137.023438 C 65.367188 137.332031 65.03125 137.363281 64.570312 137.363281 C 63.835938 137.363281 63.496094 137.054688 63.496094 136.535156 C 63.496094 136.011719 63.863281 135.675781 64.570312 135.675781 L 65.949219 135.675781 L 65.949219 136.164062 Z M 71.472656 138.28125 L 71.472656 137.269531 L 70.980469 137.269531 C 70.550781 137.269531 70.335938 137.023438 70.335938 136.59375 L 70.335938 133.40625 L 71.472656 133.40625 L 71.472656 132.484375 L 70.335938 132.484375 L 70.335938 130.675781 L 69.140625 130.675781 L 69.140625 132.453125 L 68.464844 132.453125 L 68.464844 133.375 L 69.140625 133.375 L 69.140625 136.625 C 69.140625 137.484375 69.664062 138.28125 70.765625 138.28125 Z M 73.007812 131.226562 L 74.265625 131.226562 L 74.265625 129.96875 L 73.007812 129.96875 Z M 73.066406 138.28125 L 74.265625 138.28125 L 74.265625 132.363281 L 73.066406 132.363281 Z M 80.121094 137.667969 C 80.675781 137.085938 80.828125 136.351562 80.828125 135.335938 C 80.828125 134.355469 80.675781 133.589844 80.121094 133.007812 C 79.722656 132.605469 79.171875 132.300781 78.34375 132.300781 C 77.546875 132.300781 76.964844 132.605469 76.59375 133.007812 C 76.042969 133.589844 75.890625 134.324219 75.890625 135.335938 C 75.890625 136.351562 76.042969 137.085938 76.59375 137.667969 C 76.992188 138.066406 77.546875 138.375 78.34375 138.375 C 79.171875 138.34375 79.753906 138.035156 80.121094 137.667969 M 79.234375 133.710938 C 79.601562 134.078125 79.632812 134.691406 79.632812 135.335938 C 79.632812 135.980469 79.570312 136.59375 79.234375 136.964844 C 79.019531 137.179688 78.710938 137.300781 78.375 137.300781 C 78.035156 137.300781 77.730469 137.179688 77.515625 136.964844 C 77.148438 136.59375 77.117188 135.980469 77.117188 135.335938 C 77.117188 134.691406 77.179688 134.078125 77.515625 133.710938 C 77.730469 133.496094 78.035156 133.375 78.375 133.375 C 78.710938 133.375 79.019531 133.496094 79.234375 133.710938 M 87.300781 138.28125 L 87.300781 134.507812 C 87.300781 133.835938 87.148438 133.28125 86.71875 132.851562 C 86.378906 132.515625 85.859375 132.332031 85.277344 132.332031 C 84.691406 132.332031 84.109375 132.546875 83.710938 133.007812 L 83.710938 132.421875 L 82.546875 132.421875 L 82.546875 138.34375 L 83.742188 138.34375 L 83.742188 134.753906 C 83.742188 133.835938 84.292969 133.4375 84.96875 133.4375 C 85.644531 133.4375 86.164062 133.835938 86.164062 134.753906 L 86.164062 138.34375 L 87.300781 138.34375 Z M 93.527344 138.28125 L 93.527344 134.324219 C 93.527344 132.976562 92.699219 132.300781 91.105469 132.300781 C 90.121094 132.300781 89.539062 132.484375 88.988281 133.160156 L 89.753906 133.894531 C 90.09375 133.464844 90.398438 133.3125 91.042969 133.3125 C 91.964844 133.3125 92.332031 133.679688 92.332031 134.417969 L 92.332031 134.847656 L 90.765625 134.847656 C 89.417969 134.847656 88.742188 135.550781 88.742188 136.535156 C 88.742188 137.023438 88.894531 137.484375 89.203125 137.792969 C 89.570312 138.160156 90.0625 138.34375 90.796875 138.34375 C 91.535156 138.34375 91.933594 138.160156 92.363281 137.730469 L 92.363281 138.25 L 93.527344 138.25 Z M 92.332031 136.164062 C 92.332031 136.59375 92.238281 136.871094 92.085938 137.023438 C 91.777344 137.332031 91.441406 137.363281 90.980469 137.363281 C 90.246094 137.363281 89.90625 137.054688 89.90625 136.535156 C 89.90625 136.011719 90.277344 135.675781 90.980469 135.675781 L 92.363281 135.675781 L 92.363281 136.164062 Z M 97.730469 138.28125 L 97.730469 137.269531 L 97.207031 137.269531 C 96.71875 137.269531 96.5625 137.023438 96.5625 136.59375 L 96.5625 130 L 95.367188 130 L 95.367188 136.65625 C 95.367188 137.515625 95.859375 138.28125 96.992188 138.28125 Z M 109.386719 138.28125 L 109.386719 130 L 108.128906 130 L 105.765625 135.152344 L 103.34375 130 L 102.085938 130 L 102.085938 138.28125 L 103.34375 138.28125 L 103.34375 132.730469 L 105.308594 136.777344 L 106.226562 136.777344 L 108.128906 132.730469 L 108.128906 138.28125 Z M 111.441406 131.226562 L 112.699219 131.226562 L 112.699219 129.96875 L 111.441406 129.96875 Z M 111.472656 138.28125 L 112.667969 138.28125 L 112.667969 132.363281 L 111.472656 132.363281 Z M 119.386719 138.28125 L 119.386719 134.507812 C 119.386719 133.835938 119.234375 133.28125 118.804688 132.851562 C 118.464844 132.515625 117.945312 132.332031 117.363281 132.332031 C 116.777344 132.332031 116.195312 132.546875 115.796875 133.007812 L 115.796875 132.421875 L 114.632812 132.421875 L 114.632812 138.34375 L 115.828125 138.34375 L 115.828125 134.753906 C 115.828125 133.835938 116.378906 133.4375 117.054688 133.4375 C 117.730469 133.4375 118.25 133.835938 118.25 134.753906 L 118.25 138.34375 L 119.386719 138.34375 Z M 125.246094 137.667969 C 125.796875 137.085938 125.949219 136.351562 125.949219 135.335938 C 125.949219 134.355469 125.796875 133.589844 125.246094 133.007812 C 124.847656 132.605469 124.292969 132.300781 123.464844 132.300781 C 122.667969 132.300781 122.085938 132.605469 121.71875 133.007812 C 121.164062 133.589844 121.011719 134.324219 121.011719 135.335938 C 121.011719 136.351562 121.164062 137.085938 121.71875 137.667969 C 122.117188 138.066406 122.667969 138.375 123.464844 138.375 C 124.265625 138.34375 124.847656 138.035156 125.246094 137.667969 M 124.324219 133.710938 C 124.691406 134.078125 124.722656 134.691406 124.722656 135.335938 C 124.722656 135.980469 124.664062 136.59375 124.324219 136.964844 C 124.109375 137.179688 123.804688 137.300781 123.464844 137.300781 C 123.128906 137.300781 122.820312 137.179688 122.605469 136.964844 C 122.238281 136.59375 122.207031 135.980469 122.207031 135.335938 C 122.207031 134.691406 122.269531 134.078125 122.605469 133.710938 C 122.820312 133.496094 123.128906 133.375 123.464844 133.375 C 123.804688 133.375 124.109375 133.496094 124.324219 133.710938 M 131.75 132.851562 C 131.351562 132.453125 130.921875 132.300781 130.335938 132.300781 C 129.664062 132.300781 129.078125 132.578125 128.773438 133.007812 L 128.773438 132.363281 L 127.605469 132.363281 L 127.605469 138.28125 L 128.804688 138.28125 L 128.804688 134.691406 C 128.804688 133.863281 129.324219 133.375 129.96875 133.375 C 130.367188 133.375 130.582031 133.496094 130.859375 133.773438 Z M 132.730469 131.226562 L 133.988281 131.226562 L 133.988281 129.96875 L 132.730469 129.96875 Z M 132.761719 138.28125 L 133.957031 138.28125 L 133.957031 132.363281 L 132.761719 132.363281 Z M 138.375 138.28125 L 138.375 137.269531 L 137.882812 137.269531 C 137.453125 137.269531 137.238281 137.023438 137.238281 136.59375 L 137.238281 133.40625 L 138.375 133.40625 L 138.375 132.484375 L 137.238281 132.484375 L 137.238281 130.675781 L 136.042969 130.675781 L 136.042969 132.453125 L 135.367188 132.453125 L 135.367188 133.375 L 136.042969 133.375 L 136.042969 136.625 C 136.042969 137.484375 136.5625 138.28125 137.667969 138.28125 Z M 144.417969 132.394531 L 143.160156 132.394531 L 141.777344 136.5625 L 140.367188 132.394531 L 139.109375 132.394531 L 141.164062 138.007812 L 140.828125 138.925781 C 140.644531 139.417969 140.492188 139.539062 139.96875 139.539062 L 139.664062 139.539062 L 139.664062 140.613281 L 140.152344 140.613281 C 140.613281 140.613281 141.042969 140.519531 141.378906 140.183594 C 141.5625 140 141.6875 139.785156 141.808594 139.449219 Z M 150.644531 138.34375 C 152.394531 138.34375 153.621094 137.421875 153.621094 135.921875 C 153.621094 135.214844 153.40625 134.601562 152.945312 134.234375 C 152.605469 133.925781 152.179688 133.742188 151.410156 133.621094 L 150.460938 133.464844 C 150.0625 133.40625 149.722656 133.28125 149.539062 133.066406 C 149.324219 132.882812 149.234375 132.605469 149.234375 132.300781 C 149.234375 131.5625 149.753906 131.011719 150.734375 131.011719 C 151.441406 131.011719 152.023438 131.164062 152.546875 131.65625 L 153.34375 130.859375 C 152.636719 130.183594 151.871094 129.90625 150.765625 129.90625 C 149.050781 129.90625 148.007812 130.890625 148.007812 132.332031 C 148.007812 133.007812 148.191406 133.527344 148.621094 133.925781 C 148.988281 134.265625 149.507812 134.507812 150.183594 134.601562 L 151.164062 134.753906 C 151.65625 134.816406 151.871094 134.90625 152.085938 135.09375 C 152.300781 135.277344 152.421875 135.582031 152.421875 135.949219 C 152.421875 136.75 151.777344 137.207031 150.707031 137.207031 C 149.847656 137.207031 149.203125 137.023438 148.589844 136.410156 L 147.761719 137.238281 C 148.496094 138.066406 149.417969 138.34375 150.644531 138.34375 M 159.96875 138.28125 L 159.96875 132.363281 L 158.773438 132.363281 L 158.773438 135.949219 C 158.773438 136.871094 158.222656 137.269531 157.546875 137.269531 C 156.871094 137.269531 156.351562 136.871094 156.351562 135.949219 L 156.351562 132.363281 L 155.152344 132.363281 L 155.152344 136.136719 C 155.152344 136.808594 155.308594 137.363281 155.734375 137.792969 C 156.074219 138.128906 156.59375 138.34375 157.179688 138.34375 C 157.761719 138.34375 158.34375 138.128906 158.742188 137.667969 L 158.742188 138.25 L 159.96875 138.25 Z M 166.074219 137.820312 C 166.65625 137.238281 166.75 136.226562 166.75 135.308594 C 166.75 134.417969 166.6875 133.40625 166.074219 132.820312 C 165.734375 132.484375 165.214844 132.300781 164.632812 132.300781 C 163.988281 132.300781 163.527344 132.453125 163.066406 133.007812 L 163.066406 132.363281 L 161.902344 132.363281 L 161.902344 140.644531 L 163.097656 140.644531 L 163.097656 137.636719 C 163.527344 138.160156 164.019531 138.3125 164.664062 138.3125 C 165.246094 138.34375 165.765625 138.160156 166.074219 137.820312 M 164.324219 133.375 C 165.398438 133.375 165.550781 134.292969 165.550781 135.335938 C 165.550781 136.378906 165.398438 137.300781 164.324219 137.300781 C 163.25 137.300781 163.097656 136.378906 163.097656 135.335938 C 163.097656 134.265625 163.28125 133.375 164.324219 133.375 M 172.578125 137.820312 C 173.160156 137.238281 173.25 136.226562 173.25 135.308594 C 173.25 134.417969 173.191406 133.40625 172.578125 132.820312 C 172.238281 132.484375 171.71875 132.300781 171.136719 132.300781 C 170.492188 132.300781 170.03125 132.453125 169.570312 133.007812 L 169.570312 132.363281 L 168.40625 132.363281 L 168.40625 140.644531 L 169.601562 140.644531 L 169.601562 137.636719 C 170.03125 138.160156 170.519531 138.3125 171.136719 138.3125 C 171.75 138.34375 172.269531 138.160156 172.578125 137.820312 M 170.828125 133.375 C 171.902344 133.375 172.054688 134.292969 172.054688 135.335938 C 172.054688 136.378906 171.902344 137.300781 170.828125 137.300781 C 169.753906 137.300781 169.601562 136.378906 169.601562 135.335938 C 169.601562 134.265625 169.753906 133.375 170.828125 133.375 M 177.238281 138.28125 L 177.238281 137.269531 L 176.71875 137.269531 C 176.226562 137.269531 176.074219 137.023438 176.074219 136.59375 L 176.074219 130 L 174.878906 130 L 174.878906 136.65625 C 174.878906 137.515625 175.367188 138.28125 176.503906 138.28125 Z M 178.558594 131.226562 L 179.816406 131.226562 L 179.816406 129.96875 L 178.558594 129.96875 Z M 178.589844 138.28125 L 179.785156 138.28125 L 179.785156 132.363281 L 178.589844 132.363281 Z M 186.441406 135.675781 L 186.441406 135.152344 C 186.441406 133.464844 185.519531 132.300781 183.925781 132.300781 C 182.421875 132.300781 181.410156 133.40625 181.410156 135.308594 C 181.410156 137.546875 182.578125 138.34375 184.078125 138.34375 C 185.121094 138.34375 185.675781 138.035156 186.289062 137.421875 L 185.519531 136.71875 C 185.09375 137.148438 184.753906 137.332031 184.078125 137.332031 C 183.128906 137.332031 182.578125 136.6875 182.578125 135.675781 Z M 185.09375 134.050781 C 185.214844 134.324219 185.246094 134.480469 185.246094 134.847656 L 182.578125 134.847656 C 182.578125 134.480469 182.605469 134.324219 182.730469 134.050781 C 182.914062 133.621094 183.34375 133.3125 183.894531 133.3125 C 184.480469 133.28125 184.90625 133.589844 185.09375 134.050781 M 192.207031 132.851562 C 191.808594 132.453125 191.378906 132.300781 190.796875 132.300781 C 190.121094 132.300781 189.539062 132.578125 189.234375 133.007812 L 189.234375 132.363281 L 188.066406 132.363281 L 188.066406 138.28125 L 189.265625 138.28125 L 189.265625 134.691406 C 189.265625 133.863281 189.785156 133.375 190.429688 133.375 C 190.828125 133.375 191.042969 133.496094 191.320312 133.773438 Z M 59.507812 151.472656 C 60.398438 150.582031 60.335938 149.265625 60.335938 148.035156 C 60.335938 146.839844 60.398438 145.613281 59.507812 144.722656 C 58.988281 144.203125 58.222656 143.957031 57.363281 143.957031 L 54.449219 143.957031 L 54.449219 152.238281 L 57.363281 152.238281 C 58.222656 152.269531 58.988281 151.992188 59.507812 151.472656 M 58.648438 145.644531 C 59.078125 146.136719 59.078125 146.902344 59.078125 148.035156 C 59.078125 149.171875 59.078125 150.0625 58.648438 150.550781 C 58.3125 150.949219 57.820312 151.105469 57.238281 151.105469 L 55.707031 151.105469 L 55.707031 145.09375 L 57.238281 145.09375 C 57.820312 145.09375 58.28125 145.277344 58.648438 145.644531 M 66.839844 149.664062 L 66.839844 149.140625 C 66.839844 147.453125 65.921875 146.289062 64.324219 146.289062 C 62.820312 146.289062 61.808594 147.394531 61.808594 149.292969 C 61.808594 151.535156 62.976562 152.332031 64.480469 152.332031 C 65.519531 152.332031 66.074219 152.023438 66.6875 151.410156 L 65.921875 150.707031 C 65.492188 151.136719 65.152344 151.320312 64.480469 151.320312 C 63.496094 151.320312 62.976562 150.675781 62.976562 149.664062 Z M 65.492188 148.035156 C 65.613281 148.3125 65.644531 148.464844 65.644531 148.835938 L 62.976562 148.835938 C 62.976562 148.464844 63.007812 148.3125 63.128906 148.035156 C 63.3125 147.605469 63.742188 147.300781 64.292969 147.300781 C 64.878906 147.269531 65.308594 147.578125 65.492188 148.035156 M 72.792969 146.351562 L 71.535156 146.351562 L 70.152344 150.519531 L 68.742188 146.351562 L 67.484375 146.351562 L 69.664062 152.269531 L 70.644531 152.269531 Z M 78.464844 149.664062 L 78.464844 149.140625 C 78.464844 147.453125 77.546875 146.289062 75.949219 146.289062 C 74.449219 146.289062 73.4375 147.394531 73.4375 149.292969 C 73.4375 151.535156 74.601562 152.332031 76.105469 152.332031 C 77.148438 152.332031 77.699219 152.023438 78.3125 151.410156 L 77.546875 150.707031 C 77.117188 151.136719 76.777344 151.320312 76.105469 151.320312 C 75.121094 151.320312 74.601562 150.675781 74.601562 149.664062 Z M 77.148438 148.035156 C 77.269531 148.3125 77.300781 148.464844 77.300781 148.835938 L 74.632812 148.835938 C 74.632812 148.464844 74.664062 148.3125 74.785156 148.035156 C 74.96875 147.605469 75.398438 147.300781 75.949219 147.300781 C 76.535156 147.269531 76.964844 147.578125 77.148438 148.035156 M 82.421875 152.269531 L 82.421875 151.257812 L 81.902344 151.257812 C 81.410156 151.257812 81.257812 151.011719 81.257812 150.582031 L 81.257812 143.988281 L 80.0625 143.988281 L 80.0625 150.644531 C 80.0625 151.503906 80.550781 152.269531 81.6875 152.269531 Z M 87.515625 151.625 C 88.066406 151.042969 88.222656 150.308594 88.222656 149.292969 C 88.222656 148.3125 88.066406 147.546875 87.515625 146.964844 C 87.117188 146.5625 86.535156 146.257812 85.734375 146.257812 C 84.9375 146.257812 84.355469 146.5625 83.988281 146.964844 C 83.4375 147.546875 83.28125 148.28125 83.28125 149.292969 C 83.28125 150.308594 83.4375 151.042969 83.988281 151.625 C 84.386719 152.023438 84.9375 152.332031 85.734375 152.332031 C 86.535156 152.332031 87.117188 152.023438 87.515625 151.625 M 86.625 147.699219 C 86.992188 148.066406 87.023438 148.679688 87.023438 149.324219 C 87.023438 149.96875 86.964844 150.582031 86.625 150.949219 C 86.410156 151.164062 86.105469 151.289062 85.765625 151.289062 C 85.429688 151.289062 85.121094 151.164062 84.90625 150.949219 C 84.539062 150.582031 84.507812 149.96875 84.507812 149.324219 C 84.507812 148.679688 84.570312 148.066406 84.90625 147.699219 C 85.121094 147.484375 85.429688 147.363281 85.765625 147.363281 C 86.074219 147.363281 86.378906 147.453125 86.625 147.699219 M 94.050781 151.808594 C 94.632812 151.226562 94.722656 150.214844 94.722656 149.292969 C 94.722656 148.40625 94.664062 147.394531 94.050781 146.808594 C 93.710938 146.472656 93.191406 146.289062 92.605469 146.289062 C 91.964844 146.289062 91.503906 146.441406 91.042969 146.992188 L 91.042969 146.378906 L 89.878906 146.378906 L 89.878906 154.664062 L 91.074219 154.664062 L 91.074219 151.65625 C 91.503906 152.179688 91.992188 152.332031 92.605469 152.332031 C 93.222656 152.332031 93.710938 152.148438 94.050781 151.808594 M 92.300781 147.363281 C 93.375 147.363281 93.527344 148.28125 93.527344 149.324219 C 93.527344 150.367188 93.375 151.289062 92.300781 151.289062 C 91.226562 151.289062 91.074219 150.367188 91.074219 149.324219 C 91.074219 148.25 91.226562 147.363281 92.300781 147.363281 M 104.753906 152.269531 L 104.753906 148.496094 C 104.753906 147.820312 104.570312 147.269531 104.109375 146.839844 C 103.773438 146.503906 103.222656 146.320312 102.605469 146.320312 C 101.839844 146.320312 101.226562 146.59375 100.765625 147.179688 C 100.398438 146.59375 99.816406 146.320312 99.078125 146.320312 C 98.496094 146.320312 97.914062 146.5625 97.515625 146.992188 L 97.515625 146.410156 L 96.351562 146.410156 L 96.351562 152.332031 L 97.546875 152.332031 L 97.546875 148.742188 C 97.546875 147.820312 98.097656 147.421875 98.773438 147.421875 C 99.449219 147.421875 99.96875 147.820312 99.96875 148.742188 L 99.96875 152.332031 L 101.164062 152.332031 L 101.164062 148.679688 C 101.164062 147.820312 101.75 147.421875 102.394531 147.421875 C 103.066406 147.421875 103.589844 147.820312 103.589844 148.742188 L 103.589844 152.332031 L 104.753906 152.332031 Z M 111.351562 149.664062 L 111.351562 149.140625 C 111.351562 147.453125 110.429688 146.289062 108.835938 146.289062 C 107.332031 146.289062 106.320312 147.394531 106.320312 149.292969 C 106.320312 151.535156 107.484375 152.332031 108.988281 152.332031 C 110.03125 152.332031 110.582031 152.023438 111.195312 151.410156 L 110.429688 150.707031 C 110 151.136719 109.664062 151.320312 108.988281 151.320312 C 108.007812 151.320312 107.484375 150.675781 107.484375 149.664062 Z M 110.03125 148.035156 C 110.152344 148.3125 110.183594 148.464844 110.183594 148.835938 L 107.515625 148.835938 C 107.515625 148.464844 107.546875 148.3125 107.667969 148.035156 C 107.851562 147.605469 108.28125 147.300781 108.835938 147.300781 C 109.417969 147.269531 109.816406 147.578125 110.03125 148.035156 M 117.761719 152.269531 L 117.761719 148.496094 C 117.761719 147.820312 117.605469 147.269531 117.179688 146.839844 C 116.839844 146.503906 116.320312 146.320312 115.734375 146.320312 C 115.152344 146.320312 114.570312 146.535156 114.171875 146.992188 L 114.171875 146.410156 L 113.007812 146.410156 L 113.007812 152.332031 L 114.203125 152.332031 L 114.203125 148.742188 C 114.203125 147.820312 114.753906 147.421875 115.429688 147.421875 C 116.105469 147.421875 116.625 147.820312 116.625 148.742188 L 116.625 152.332031 L 117.761719 152.332031 Z M 122.148438 152.269531 L 122.148438 151.257812 L 121.65625 151.257812 C 121.226562 151.257812 121.011719 151.011719 121.011719 150.582031 L 121.011719 147.394531 L 122.148438 147.394531 L 122.148438 146.472656 L 121.011719 146.472656 L 121.011719 144.691406 L 119.816406 144.691406 L 119.816406 146.472656 L 119.140625 146.472656 L 119.140625 147.394531 L 119.816406 147.394531 L 119.816406 150.613281 C 119.816406 151.472656 120.335938 152.269531 121.441406 152.269531 Z M 129.386719 152.332031 C 130.890625 152.332031 132.054688 151.441406 132.332031 149.785156 L 131.074219 149.785156 C 130.890625 150.613281 130.308594 151.195312 129.386719 151.195312 C 128.894531 151.195312 128.464844 151.011719 128.160156 150.707031 C 127.761719 150.277344 127.667969 149.785156 127.667969 148.128906 C 127.667969 146.472656 127.761719 145.980469 128.160156 145.550781 C 128.4375 145.246094 128.894531 145.0625 129.386719 145.0625 C 130.308594 145.0625 130.859375 145.644531 131.074219 146.472656 L 132.363281 146.472656 C 132.054688 144.816406 130.921875 143.925781 129.417969 143.925781 C 128.558594 143.925781 127.820312 144.234375 127.238281 144.816406 C 126.410156 145.644531 126.441406 146.5625 126.441406 148.160156 C 126.441406 149.753906 126.441406 150.675781 127.238281 151.503906 C 127.761719 152.023438 128.527344 152.332031 129.386719 152.332031 M 137.882812 151.625 C 138.4375 151.042969 138.589844 150.308594 138.589844 149.292969 C 138.589844 148.3125 138.4375 147.546875 137.882812 146.964844 C 137.484375 146.5625 136.933594 146.257812 136.105469 146.257812 C 135.308594 146.257812 134.722656 146.5625 134.355469 146.964844 C 133.804688 147.546875 133.648438 148.28125 133.648438 149.292969 C 133.648438 150.308594 133.804688 151.042969 134.355469 151.625 C 134.753906 152.023438 135.308594 152.332031 136.105469 152.332031 C 136.902344 152.332031 137.484375 152.023438 137.882812 151.625 M 136.992188 147.699219 C 137.363281 148.066406 137.394531 148.679688 137.394531 149.324219 C 137.394531 149.96875 137.332031 150.582031 136.992188 150.949219 C 136.777344 151.164062 136.472656 151.289062 136.136719 151.289062 C 135.796875 151.289062 135.492188 151.164062 135.277344 150.949219 C 134.90625 150.582031 134.878906 149.96875 134.878906 149.324219 C 134.878906 148.679688 134.9375 148.066406 135.277344 147.699219 C 135.492188 147.484375 135.796875 147.363281 136.136719 147.363281 C 136.472656 147.363281 136.777344 147.453125 136.992188 147.699219 M 144.96875 152.269531 L 144.96875 146.351562 L 143.773438 146.351562 L 143.773438 149.9375 C 143.773438 150.859375 143.222656 151.257812 142.546875 151.257812 C 141.871094 151.257812 141.351562 150.859375 141.351562 149.9375 L 141.351562 146.351562 L 140.183594 146.351562 L 140.183594 150.121094 C 140.183594 150.796875 140.335938 151.351562 140.765625 151.777344 C 141.105469 152.117188 141.625 152.300781 142.207031 152.300781 C 142.792969 152.300781 143.375 152.085938 143.773438 151.625 L 143.773438 152.207031 L 144.96875 152.207031 Z M 151.71875 152.269531 L 151.71875 148.496094 C 151.71875 147.820312 151.5625 147.269531 151.136719 146.839844 C 150.796875 146.503906 150.277344 146.320312 149.691406 146.320312 C 149.109375 146.320312 148.527344 146.535156 148.128906 146.992188 L 148.128906 146.410156 L 146.933594 146.410156 L 146.933594 152.332031 L 148.128906 152.332031 L 148.128906 148.742188 C 148.128906 147.820312 148.679688 147.421875 149.355469 147.421875 C 150.03125 147.421875 150.550781 147.820312 150.550781 148.742188 L 150.550781 152.332031 L 151.71875 152.332031 Z M 155.921875 152.332031 C 156.75 152.332031 157.300781 152.085938 157.851562 151.503906 L 157.023438 150.734375 C 156.65625 151.136719 156.351562 151.289062 155.890625 151.289062 C 155.429688 151.289062 155.0625 151.105469 154.785156 150.765625 C 154.539062 150.429688 154.449219 150 154.449219 149.324219 C 154.449219 148.648438 154.539062 148.222656 154.785156 147.882812 C 155.03125 147.546875 155.429688 147.363281 155.890625 147.363281 C 156.351562 147.363281 156.65625 147.515625 157.023438 147.914062 L 157.851562 147.117188 C 157.300781 146.535156 156.71875 146.289062 155.921875 146.289062 C 154.601562 146.289062 153.28125 147.085938 153.28125 149.292969 C 153.28125 151.535156 154.601562 152.332031 155.921875 152.332031 M 159.265625 145.183594 L 160.519531 145.183594 L 160.519531 143.925781 L 159.265625 143.925781 Z M 159.292969 152.269531 L 160.492188 152.269531 L 160.492188 146.351562 L 159.292969 146.351562 Z M 164.753906 152.269531 L 164.753906 151.257812 L 164.234375 151.257812 C 163.742188 151.257812 163.589844 151.011719 163.589844 150.582031 L 163.589844 143.988281 L 162.394531 143.988281 L 162.394531 150.644531 C 162.394531 151.503906 162.882812 152.269531 164.019531 152.269531 Z M 164.753906 152.269531 "/>
</g>
</svg>
